<mxfile host="app.diagrams.net" modified="2022-01-24T10:14:02.499Z" agent="5.0 (Windows NT 10.0; Win64; x64) AppleWebKit/537.36 (KHTML, like Gecko) Chrome/97.0.4692.71 Safari/537.36" etag="n85Tl6KpwP_wPpwqmtC4" version="16.2.7" type="github" pages="7">
  <diagram id="BJYIaVWbQNOuNaeR7Ye4" name="分组">
    <mxGraphModel dx="1662" dy="839" grid="1" gridSize="10" guides="1" tooltips="1" connect="1" arrows="1" fold="1" page="1" pageScale="1" pageWidth="827" pageHeight="1169" math="0" shadow="0">
      <root>
        <mxCell id="U7_OvfV498Ky47Fz7oh9-0" />
        <mxCell id="U7_OvfV498Ky47Fz7oh9-1" parent="U7_OvfV498Ky47Fz7oh9-0" />
        <mxCell id="Ky4HkuzUDedNAmBESwq3-0" value="位置分组管理" style="swimlane;startSize=30;" vertex="1" parent="U7_OvfV498Ky47Fz7oh9-1">
          <mxGeometry x="150" y="160" width="510" height="810" as="geometry" />
        </mxCell>
        <mxCell id="Ky4HkuzUDedNAmBESwq3-1" value="新增分组" style="ellipse;whiteSpace=wrap;html=1;" vertex="1" parent="Ky4HkuzUDedNAmBESwq3-0">
          <mxGeometry x="90" y="50" width="117" height="50" as="geometry" />
        </mxCell>
        <mxCell id="Ky4HkuzUDedNAmBESwq3-2" value="修改分组" style="ellipse;whiteSpace=wrap;html=1;" vertex="1" parent="Ky4HkuzUDedNAmBESwq3-0">
          <mxGeometry x="90" y="110" width="117" height="50" as="geometry" />
        </mxCell>
        <mxCell id="Ky4HkuzUDedNAmBESwq3-3" value="查询分组详情" style="ellipse;whiteSpace=wrap;html=1;" vertex="1" parent="Ky4HkuzUDedNAmBESwq3-0">
          <mxGeometry x="90" y="230" width="117" height="50" as="geometry" />
        </mxCell>
        <mxCell id="Ky4HkuzUDedNAmBESwq3-4" value="查询分组列表" style="ellipse;whiteSpace=wrap;html=1;" vertex="1" parent="Ky4HkuzUDedNAmBESwq3-0">
          <mxGeometry x="90" y="300" width="117" height="50" as="geometry" />
        </mxCell>
        <mxCell id="Ky4HkuzUDedNAmBESwq3-5" value="新增/编辑总数分组项" style="ellipse;whiteSpace=wrap;html=1;" vertex="1" parent="Ky4HkuzUDedNAmBESwq3-0">
          <mxGeometry x="80" y="370" width="117" height="50" as="geometry" />
        </mxCell>
        <mxCell id="Ky4HkuzUDedNAmBESwq3-6" value="查询总数分组项列表" style="ellipse;whiteSpace=wrap;html=1;" vertex="1" parent="Ky4HkuzUDedNAmBESwq3-0">
          <mxGeometry x="90" y="440" width="117" height="50" as="geometry" />
        </mxCell>
        <mxCell id="Ky4HkuzUDedNAmBESwq3-7" value="新增/编辑排除分组项" style="ellipse;whiteSpace=wrap;html=1;" vertex="1" parent="Ky4HkuzUDedNAmBESwq3-0">
          <mxGeometry x="80" y="530" width="117" height="50" as="geometry" />
        </mxCell>
        <mxCell id="Ky4HkuzUDedNAmBESwq3-8" value="查询排除分组项列表" style="ellipse;whiteSpace=wrap;html=1;" vertex="1" parent="Ky4HkuzUDedNAmBESwq3-0">
          <mxGeometry x="80" y="590" width="117" height="50" as="geometry" />
        </mxCell>
        <mxCell id="Ky4HkuzUDedNAmBESwq3-9" value="新增/编辑分摊分组项" style="ellipse;whiteSpace=wrap;html=1;" vertex="1" parent="Ky4HkuzUDedNAmBESwq3-0">
          <mxGeometry x="80" y="660" width="117" height="50" as="geometry" />
        </mxCell>
        <mxCell id="Ky4HkuzUDedNAmBESwq3-10" value="查询分摊分组项列表" style="ellipse;whiteSpace=wrap;html=1;" vertex="1" parent="Ky4HkuzUDedNAmBESwq3-0">
          <mxGeometry x="80" y="720" width="117" height="50" as="geometry" />
        </mxCell>
        <mxCell id="Ky4HkuzUDedNAmBESwq3-11" value="删除分组" style="ellipse;whiteSpace=wrap;html=1;" vertex="1" parent="Ky4HkuzUDedNAmBESwq3-0">
          <mxGeometry x="100" y="170" width="117" height="50" as="geometry" />
        </mxCell>
        <mxCell id="Ky4HkuzUDedNAmBESwq3-12" value="管理员" style="shape=umlActor;verticalLabelPosition=bottom;verticalAlign=top;html=1;outlineConnect=0;" vertex="1" parent="U7_OvfV498Ky47Fz7oh9-1">
          <mxGeometry x="80" y="540" width="30" height="60" as="geometry" />
        </mxCell>
        <mxCell id="Ky4HkuzUDedNAmBESwq3-13" value="" style="endArrow=none;html=1;rounded=0;exitX=0.5;exitY=0.5;exitDx=0;exitDy=0;exitPerimeter=0;entryX=0;entryY=0.5;entryDx=0;entryDy=0;" edge="1" parent="U7_OvfV498Ky47Fz7oh9-1" source="Ky4HkuzUDedNAmBESwq3-12" target="Ky4HkuzUDedNAmBESwq3-1">
          <mxGeometry width="50" height="50" relative="1" as="geometry">
            <mxPoint x="420" y="600" as="sourcePoint" />
            <mxPoint x="470" y="550" as="targetPoint" />
          </mxGeometry>
        </mxCell>
        <mxCell id="Ky4HkuzUDedNAmBESwq3-14" value="" style="endArrow=none;html=1;rounded=0;exitX=0.5;exitY=0.5;exitDx=0;exitDy=0;exitPerimeter=0;entryX=0;entryY=0.5;entryDx=0;entryDy=0;" edge="1" parent="U7_OvfV498Ky47Fz7oh9-1" source="Ky4HkuzUDedNAmBESwq3-12" target="Ky4HkuzUDedNAmBESwq3-2">
          <mxGeometry width="50" height="50" relative="1" as="geometry">
            <mxPoint x="105" y="580" as="sourcePoint" />
            <mxPoint x="260" y="265" as="targetPoint" />
          </mxGeometry>
        </mxCell>
        <mxCell id="Ky4HkuzUDedNAmBESwq3-15" value="" style="endArrow=none;html=1;rounded=0;exitX=0.5;exitY=0.5;exitDx=0;exitDy=0;exitPerimeter=0;entryX=0;entryY=0.5;entryDx=0;entryDy=0;" edge="1" parent="U7_OvfV498Ky47Fz7oh9-1" source="Ky4HkuzUDedNAmBESwq3-12" target="Ky4HkuzUDedNAmBESwq3-3">
          <mxGeometry width="50" height="50" relative="1" as="geometry">
            <mxPoint x="105" y="580" as="sourcePoint" />
            <mxPoint x="260" y="325" as="targetPoint" />
          </mxGeometry>
        </mxCell>
        <mxCell id="Ky4HkuzUDedNAmBESwq3-16" value="" style="endArrow=none;html=1;rounded=0;entryX=0;entryY=0.5;entryDx=0;entryDy=0;exitX=0.5;exitY=0.5;exitDx=0;exitDy=0;exitPerimeter=0;" edge="1" parent="U7_OvfV498Ky47Fz7oh9-1" source="Ky4HkuzUDedNAmBESwq3-12" target="Ky4HkuzUDedNAmBESwq3-4">
          <mxGeometry width="50" height="50" relative="1" as="geometry">
            <mxPoint x="100" y="570" as="sourcePoint" />
            <mxPoint x="260" y="395" as="targetPoint" />
          </mxGeometry>
        </mxCell>
        <mxCell id="Ky4HkuzUDedNAmBESwq3-17" value="" style="endArrow=none;html=1;rounded=0;entryX=0;entryY=0.5;entryDx=0;entryDy=0;exitX=0.5;exitY=0.5;exitDx=0;exitDy=0;exitPerimeter=0;" edge="1" parent="U7_OvfV498Ky47Fz7oh9-1" source="Ky4HkuzUDedNAmBESwq3-12" target="Ky4HkuzUDedNAmBESwq3-5">
          <mxGeometry width="50" height="50" relative="1" as="geometry">
            <mxPoint x="105" y="580" as="sourcePoint" />
            <mxPoint x="260" y="465" as="targetPoint" />
          </mxGeometry>
        </mxCell>
        <mxCell id="Ky4HkuzUDedNAmBESwq3-18" value="" style="endArrow=none;html=1;rounded=0;entryX=0;entryY=0.5;entryDx=0;entryDy=0;exitX=0.5;exitY=0.5;exitDx=0;exitDy=0;exitPerimeter=0;" edge="1" parent="U7_OvfV498Ky47Fz7oh9-1" source="Ky4HkuzUDedNAmBESwq3-12" target="Ky4HkuzUDedNAmBESwq3-6">
          <mxGeometry width="50" height="50" relative="1" as="geometry">
            <mxPoint x="105" y="580" as="sourcePoint" />
            <mxPoint x="260" y="555" as="targetPoint" />
          </mxGeometry>
        </mxCell>
        <mxCell id="Ky4HkuzUDedNAmBESwq3-19" value="" style="endArrow=none;html=1;rounded=0;entryX=-0.009;entryY=0.38;entryDx=0;entryDy=0;exitX=0.5;exitY=0.5;exitDx=0;exitDy=0;exitPerimeter=0;entryPerimeter=0;" edge="1" parent="U7_OvfV498Ky47Fz7oh9-1" source="Ky4HkuzUDedNAmBESwq3-12" target="Ky4HkuzUDedNAmBESwq3-7">
          <mxGeometry width="50" height="50" relative="1" as="geometry">
            <mxPoint x="105" y="580" as="sourcePoint" />
            <mxPoint x="260" y="635" as="targetPoint" />
          </mxGeometry>
        </mxCell>
        <mxCell id="Ky4HkuzUDedNAmBESwq3-20" value="" style="endArrow=none;html=1;rounded=0;entryX=0;entryY=0.5;entryDx=0;entryDy=0;exitX=0.5;exitY=0.5;exitDx=0;exitDy=0;exitPerimeter=0;" edge="1" parent="U7_OvfV498Ky47Fz7oh9-1" source="Ky4HkuzUDedNAmBESwq3-12" target="Ky4HkuzUDedNAmBESwq3-8">
          <mxGeometry width="50" height="50" relative="1" as="geometry">
            <mxPoint x="105" y="580" as="sourcePoint" />
            <mxPoint x="248.9469999999999" y="719" as="targetPoint" />
          </mxGeometry>
        </mxCell>
        <mxCell id="Ky4HkuzUDedNAmBESwq3-21" value="" style="endArrow=none;html=1;rounded=0;entryX=0;entryY=0.5;entryDx=0;entryDy=0;" edge="1" parent="U7_OvfV498Ky47Fz7oh9-1" target="Ky4HkuzUDedNAmBESwq3-9">
          <mxGeometry width="50" height="50" relative="1" as="geometry">
            <mxPoint x="100" y="570" as="sourcePoint" />
            <mxPoint x="250" y="785" as="targetPoint" />
          </mxGeometry>
        </mxCell>
        <mxCell id="Ky4HkuzUDedNAmBESwq3-22" value="" style="endArrow=none;html=1;rounded=0;entryX=0;entryY=0.5;entryDx=0;entryDy=0;" edge="1" parent="U7_OvfV498Ky47Fz7oh9-1" target="Ky4HkuzUDedNAmBESwq3-10">
          <mxGeometry width="50" height="50" relative="1" as="geometry">
            <mxPoint x="100" y="570" as="sourcePoint" />
            <mxPoint x="250" y="855" as="targetPoint" />
          </mxGeometry>
        </mxCell>
        <mxCell id="Ky4HkuzUDedNAmBESwq3-23" value="" style="endArrow=none;html=1;rounded=0;entryX=0;entryY=0.5;entryDx=0;entryDy=0;" edge="1" parent="U7_OvfV498Ky47Fz7oh9-1" source="Ky4HkuzUDedNAmBESwq3-12" target="Ky4HkuzUDedNAmBESwq3-11">
          <mxGeometry width="50" height="50" relative="1" as="geometry">
            <mxPoint x="105" y="580" as="sourcePoint" />
            <mxPoint x="260" y="425" as="targetPoint" />
          </mxGeometry>
        </mxCell>
      </root>
    </mxGraphModel>
  </diagram>
  <diagram id="0FVNAMjPYijIXa9MiSlQ" name="电表">
    <mxGraphModel dx="1662" dy="-330" grid="1" gridSize="10" guides="1" tooltips="1" connect="1" arrows="1" fold="1" page="1" pageScale="1" pageWidth="827" pageHeight="1169" math="0" shadow="0">
      <root>
        <mxCell id="0" />
        <mxCell id="1" parent="0" />
        <mxCell id="Fn5ehYDcNYV7hbepeBnN-125" value="电能耗管理" style="swimlane;startSize=23;" parent="1" vertex="1">
          <mxGeometry x="160" y="3790" width="1250" height="850" as="geometry" />
        </mxCell>
        <mxCell id="Fn5ehYDcNYV7hbepeBnN-126" value="查询小时能耗数据列表" style="ellipse;whiteSpace=wrap;html=1;" parent="Fn5ehYDcNYV7hbepeBnN-125" vertex="1">
          <mxGeometry x="60" y="70" width="160" height="50" as="geometry" />
        </mxCell>
        <mxCell id="Fn5ehYDcNYV7hbepeBnN-128" value="查询日能耗数据列表" style="ellipse;whiteSpace=wrap;html=1;" parent="Fn5ehYDcNYV7hbepeBnN-125" vertex="1">
          <mxGeometry x="60" y="150" width="120" height="50" as="geometry" />
        </mxCell>
        <mxCell id="Fn5ehYDcNYV7hbepeBnN-129" value="查询月能耗数据列表" style="ellipse;whiteSpace=wrap;html=1;" parent="Fn5ehYDcNYV7hbepeBnN-125" vertex="1">
          <mxGeometry x="60" y="215" width="120" height="50" as="geometry" />
        </mxCell>
        <mxCell id="Fn5ehYDcNYV7hbepeBnN-134" value="查询自定义时间范围能耗数据列表" style="ellipse;whiteSpace=wrap;html=1;" parent="Fn5ehYDcNYV7hbepeBnN-125" vertex="1">
          <mxGeometry x="60" y="290" width="120" height="50" as="geometry" />
        </mxCell>
        <mxCell id="Fn5ehYDcNYV7hbepeBnN-136" value="手动抄表" style="ellipse;whiteSpace=wrap;html=1;" parent="Fn5ehYDcNYV7hbepeBnN-125" vertex="1">
          <mxGeometry x="40" y="430" width="120" height="50" as="geometry" />
        </mxCell>
        <mxCell id="Fn5ehYDcNYV7hbepeBnN-137" value="删除手动抄表" style="ellipse;whiteSpace=wrap;html=1;" parent="Fn5ehYDcNYV7hbepeBnN-125" vertex="1">
          <mxGeometry x="40" y="510" width="120" height="50" as="geometry" />
        </mxCell>
        <mxCell id="Fn5ehYDcNYV7hbepeBnN-138" value="查询手动抄表列表" style="ellipse;whiteSpace=wrap;html=1;" parent="Fn5ehYDcNYV7hbepeBnN-125" vertex="1">
          <mxGeometry x="60" y="365" width="120" height="50" as="geometry" />
        </mxCell>
        <mxCell id="Fn5ehYDcNYV7hbepeBnN-142" value="计算能耗" style="ellipse;whiteSpace=wrap;html=1;" parent="Fn5ehYDcNYV7hbepeBnN-125" vertex="1">
          <mxGeometry x="40" y="670" width="120" height="40" as="geometry" />
        </mxCell>
        <mxCell id="Fn5ehYDcNYV7hbepeBnN-147" value="统计小时能耗" style="ellipse;whiteSpace=wrap;html=1;" parent="Fn5ehYDcNYV7hbepeBnN-125" vertex="1">
          <mxGeometry x="300" y="480" width="120" height="40" as="geometry" />
        </mxCell>
        <mxCell id="Fn5ehYDcNYV7hbepeBnN-148" value="统计日能耗" style="ellipse;whiteSpace=wrap;html=1;" parent="Fn5ehYDcNYV7hbepeBnN-125" vertex="1">
          <mxGeometry x="310" y="560" width="120" height="40" as="geometry" />
        </mxCell>
        <mxCell id="Fn5ehYDcNYV7hbepeBnN-149" value="统计月能耗" style="ellipse;whiteSpace=wrap;html=1;" parent="Fn5ehYDcNYV7hbepeBnN-125" vertex="1">
          <mxGeometry x="320" y="650" width="120" height="40" as="geometry" />
        </mxCell>
        <mxCell id="Fn5ehYDcNYV7hbepeBnN-150" value="计算电表位置小时能耗" style="ellipse;whiteSpace=wrap;html=1;" parent="Fn5ehYDcNYV7hbepeBnN-125" vertex="1">
          <mxGeometry x="530" y="340" width="120" height="40" as="geometry" />
        </mxCell>
        <mxCell id="Fn5ehYDcNYV7hbepeBnN-151" value="计算分组小时能耗" style="ellipse;whiteSpace=wrap;html=1;" parent="Fn5ehYDcNYV7hbepeBnN-125" vertex="1">
          <mxGeometry x="530" y="390" width="120" height="40" as="geometry" />
        </mxCell>
        <mxCell id="Fn5ehYDcNYV7hbepeBnN-152" value="" style="endArrow=classic;html=1;rounded=0;exitX=1;exitY=0.5;exitDx=0;exitDy=0;entryX=0;entryY=0.5;entryDx=0;entryDy=0;" parent="Fn5ehYDcNYV7hbepeBnN-125" source="Fn5ehYDcNYV7hbepeBnN-147" target="Fn5ehYDcNYV7hbepeBnN-150" edge="1">
          <mxGeometry width="50" height="50" relative="1" as="geometry">
            <mxPoint x="660" y="259.5" as="sourcePoint" />
            <mxPoint x="820" y="259.5" as="targetPoint" />
          </mxGeometry>
        </mxCell>
        <mxCell id="Fn5ehYDcNYV7hbepeBnN-153" value="&amp;lt;&amp;lt;include&amp;gt;&amp;gt;" style="edgeLabel;html=1;align=center;verticalAlign=middle;resizable=0;points=[];" parent="Fn5ehYDcNYV7hbepeBnN-152" vertex="1" connectable="0">
          <mxGeometry x="-0.2854" relative="1" as="geometry">
            <mxPoint as="offset" />
          </mxGeometry>
        </mxCell>
        <mxCell id="Fn5ehYDcNYV7hbepeBnN-154" value="" style="endArrow=classic;html=1;rounded=0;exitX=1;exitY=0.5;exitDx=0;exitDy=0;entryX=0;entryY=0.5;entryDx=0;entryDy=0;" parent="Fn5ehYDcNYV7hbepeBnN-125" source="Fn5ehYDcNYV7hbepeBnN-147" target="Fn5ehYDcNYV7hbepeBnN-151" edge="1">
          <mxGeometry width="50" height="50" relative="1" as="geometry">
            <mxPoint x="620" y="302" as="sourcePoint" />
            <mxPoint x="730" y="230" as="targetPoint" />
          </mxGeometry>
        </mxCell>
        <mxCell id="Fn5ehYDcNYV7hbepeBnN-155" value="&amp;lt;&amp;lt;include&amp;gt;&amp;gt;" style="edgeLabel;html=1;align=center;verticalAlign=middle;resizable=0;points=[];" parent="Fn5ehYDcNYV7hbepeBnN-154" vertex="1" connectable="0">
          <mxGeometry x="-0.2854" relative="1" as="geometry">
            <mxPoint as="offset" />
          </mxGeometry>
        </mxCell>
        <mxCell id="Fn5ehYDcNYV7hbepeBnN-161" value="计算分组日能耗" style="ellipse;whiteSpace=wrap;html=1;" parent="Fn5ehYDcNYV7hbepeBnN-125" vertex="1">
          <mxGeometry x="540" y="545" width="120" height="40" as="geometry" />
        </mxCell>
        <mxCell id="Fn5ehYDcNYV7hbepeBnN-160" value="计算电表位置日能耗" style="ellipse;whiteSpace=wrap;html=1;" parent="Fn5ehYDcNYV7hbepeBnN-125" vertex="1">
          <mxGeometry x="540" y="490" width="120" height="40" as="geometry" />
        </mxCell>
        <mxCell id="Fn5ehYDcNYV7hbepeBnN-162" value="计算电表位置月能耗" style="ellipse;whiteSpace=wrap;html=1;" parent="Fn5ehYDcNYV7hbepeBnN-125" vertex="1">
          <mxGeometry x="570" y="610" width="120" height="40" as="geometry" />
        </mxCell>
        <mxCell id="Fn5ehYDcNYV7hbepeBnN-163" value="计算分组月能耗" style="ellipse;whiteSpace=wrap;html=1;" parent="Fn5ehYDcNYV7hbepeBnN-125" vertex="1">
          <mxGeometry x="570" y="670" width="120" height="40" as="geometry" />
        </mxCell>
        <mxCell id="Fn5ehYDcNYV7hbepeBnN-164" value="" style="endArrow=classic;html=1;rounded=0;exitX=1;exitY=0.5;exitDx=0;exitDy=0;entryX=0;entryY=0.5;entryDx=0;entryDy=0;" parent="Fn5ehYDcNYV7hbepeBnN-125" source="Fn5ehYDcNYV7hbepeBnN-148" target="Fn5ehYDcNYV7hbepeBnN-160" edge="1">
          <mxGeometry width="50" height="50" relative="1" as="geometry">
            <mxPoint x="690" y="420" as="sourcePoint" />
            <mxPoint x="850" y="448" as="targetPoint" />
          </mxGeometry>
        </mxCell>
        <mxCell id="Fn5ehYDcNYV7hbepeBnN-165" value="&amp;lt;&amp;lt;include&amp;gt;&amp;gt;" style="edgeLabel;html=1;align=center;verticalAlign=middle;resizable=0;points=[];" parent="Fn5ehYDcNYV7hbepeBnN-164" vertex="1" connectable="0">
          <mxGeometry x="-0.2854" relative="1" as="geometry">
            <mxPoint as="offset" />
          </mxGeometry>
        </mxCell>
        <mxCell id="Fn5ehYDcNYV7hbepeBnN-166" value="" style="endArrow=classic;html=1;rounded=0;exitX=1;exitY=0.5;exitDx=0;exitDy=0;entryX=0;entryY=0.5;entryDx=0;entryDy=0;" parent="Fn5ehYDcNYV7hbepeBnN-125" source="Fn5ehYDcNYV7hbepeBnN-148" target="Fn5ehYDcNYV7hbepeBnN-161" edge="1">
          <mxGeometry width="50" height="50" relative="1" as="geometry">
            <mxPoint x="670" y="460" as="sourcePoint" />
            <mxPoint x="770" y="405" as="targetPoint" />
          </mxGeometry>
        </mxCell>
        <mxCell id="Fn5ehYDcNYV7hbepeBnN-167" value="&amp;lt;&amp;lt;include&amp;gt;&amp;gt;" style="edgeLabel;html=1;align=center;verticalAlign=middle;resizable=0;points=[];" parent="Fn5ehYDcNYV7hbepeBnN-166" vertex="1" connectable="0">
          <mxGeometry x="-0.2854" relative="1" as="geometry">
            <mxPoint as="offset" />
          </mxGeometry>
        </mxCell>
        <mxCell id="Fn5ehYDcNYV7hbepeBnN-168" value="" style="endArrow=classic;html=1;rounded=0;exitX=1;exitY=0.5;exitDx=0;exitDy=0;entryX=0;entryY=0.5;entryDx=0;entryDy=0;" parent="Fn5ehYDcNYV7hbepeBnN-125" source="Fn5ehYDcNYV7hbepeBnN-149" target="Fn5ehYDcNYV7hbepeBnN-162" edge="1">
          <mxGeometry width="50" height="50" relative="1" as="geometry">
            <mxPoint x="710" y="540" as="sourcePoint" />
            <mxPoint x="810" y="570" as="targetPoint" />
          </mxGeometry>
        </mxCell>
        <mxCell id="Fn5ehYDcNYV7hbepeBnN-169" value="&amp;lt;&amp;lt;include&amp;gt;&amp;gt;" style="edgeLabel;html=1;align=center;verticalAlign=middle;resizable=0;points=[];" parent="Fn5ehYDcNYV7hbepeBnN-168" vertex="1" connectable="0">
          <mxGeometry x="-0.2854" relative="1" as="geometry">
            <mxPoint as="offset" />
          </mxGeometry>
        </mxCell>
        <mxCell id="Fn5ehYDcNYV7hbepeBnN-170" value="" style="endArrow=classic;html=1;rounded=0;exitX=1;exitY=0.5;exitDx=0;exitDy=0;entryX=0;entryY=0.5;entryDx=0;entryDy=0;" parent="Fn5ehYDcNYV7hbepeBnN-125" source="Fn5ehYDcNYV7hbepeBnN-149" target="Fn5ehYDcNYV7hbepeBnN-163" edge="1">
          <mxGeometry width="50" height="50" relative="1" as="geometry">
            <mxPoint x="670" y="570" as="sourcePoint" />
            <mxPoint x="750" y="620" as="targetPoint" />
          </mxGeometry>
        </mxCell>
        <mxCell id="Fn5ehYDcNYV7hbepeBnN-171" value="&amp;lt;&amp;lt;include&amp;gt;&amp;gt;" style="edgeLabel;html=1;align=center;verticalAlign=middle;resizable=0;points=[];" parent="Fn5ehYDcNYV7hbepeBnN-170" vertex="1" connectable="0">
          <mxGeometry x="-0.2854" relative="1" as="geometry">
            <mxPoint as="offset" />
          </mxGeometry>
        </mxCell>
        <mxCell id="Fn5ehYDcNYV7hbepeBnN-173" value="定时自动抄表" style="ellipse;whiteSpace=wrap;html=1;" parent="Fn5ehYDcNYV7hbepeBnN-125" vertex="1">
          <mxGeometry x="50" y="745" width="120" height="50" as="geometry" />
        </mxCell>
        <mxCell id="Fn5ehYDcNYV7hbepeBnN-177" value="" style="endArrow=classic;html=1;rounded=0;exitX=0.5;exitY=0;exitDx=0;exitDy=0;entryX=0;entryY=0.5;entryDx=0;entryDy=0;" parent="Fn5ehYDcNYV7hbepeBnN-125" source="Fn5ehYDcNYV7hbepeBnN-142" target="Fn5ehYDcNYV7hbepeBnN-147" edge="1">
          <mxGeometry width="50" height="50" relative="1" as="geometry">
            <mxPoint x="440" y="440" as="sourcePoint" />
            <mxPoint x="620" y="525" as="targetPoint" />
          </mxGeometry>
        </mxCell>
        <mxCell id="Fn5ehYDcNYV7hbepeBnN-178" value="&amp;lt;&amp;lt;include&amp;gt;&amp;gt;" style="edgeLabel;html=1;align=center;verticalAlign=middle;resizable=0;points=[];" parent="Fn5ehYDcNYV7hbepeBnN-177" vertex="1" connectable="0">
          <mxGeometry x="-0.2854" relative="1" as="geometry">
            <mxPoint as="offset" />
          </mxGeometry>
        </mxCell>
        <mxCell id="Fn5ehYDcNYV7hbepeBnN-179" value="" style="endArrow=classic;html=1;rounded=0;exitX=0.783;exitY=0.025;exitDx=0;exitDy=0;entryX=0;entryY=0.5;entryDx=0;entryDy=0;exitPerimeter=0;" parent="Fn5ehYDcNYV7hbepeBnN-125" source="Fn5ehYDcNYV7hbepeBnN-142" target="Fn5ehYDcNYV7hbepeBnN-148" edge="1">
          <mxGeometry width="50" height="50" relative="1" as="geometry">
            <mxPoint x="410" y="570" as="sourcePoint" />
            <mxPoint x="547" y="320" as="targetPoint" />
          </mxGeometry>
        </mxCell>
        <mxCell id="Fn5ehYDcNYV7hbepeBnN-180" value="&amp;lt;&amp;lt;include&amp;gt;&amp;gt;" style="edgeLabel;html=1;align=center;verticalAlign=middle;resizable=0;points=[];" parent="Fn5ehYDcNYV7hbepeBnN-179" vertex="1" connectable="0">
          <mxGeometry x="-0.2854" relative="1" as="geometry">
            <mxPoint as="offset" />
          </mxGeometry>
        </mxCell>
        <mxCell id="Fn5ehYDcNYV7hbepeBnN-181" value="" style="endArrow=classic;html=1;rounded=0;exitX=1;exitY=0.5;exitDx=0;exitDy=0;entryX=0;entryY=0.5;entryDx=0;entryDy=0;" parent="Fn5ehYDcNYV7hbepeBnN-125" source="Fn5ehYDcNYV7hbepeBnN-142" target="Fn5ehYDcNYV7hbepeBnN-149" edge="1">
          <mxGeometry width="50" height="50" relative="1" as="geometry">
            <mxPoint x="443.96000000000004" y="571" as="sourcePoint" />
            <mxPoint x="550" y="460" as="targetPoint" />
          </mxGeometry>
        </mxCell>
        <mxCell id="Fn5ehYDcNYV7hbepeBnN-182" value="&amp;lt;&amp;lt;include&amp;gt;&amp;gt;" style="edgeLabel;html=1;align=center;verticalAlign=middle;resizable=0;points=[];" parent="Fn5ehYDcNYV7hbepeBnN-181" vertex="1" connectable="0">
          <mxGeometry x="-0.2854" relative="1" as="geometry">
            <mxPoint as="offset" />
          </mxGeometry>
        </mxCell>
        <mxCell id="Fn5ehYDcNYV7hbepeBnN-183" value="更新所属分组组内所有分摊表时间段内分摊、计费费用" style="ellipse;whiteSpace=wrap;html=1;" parent="Fn5ehYDcNYV7hbepeBnN-125" vertex="1">
          <mxGeometry x="800" y="460" width="360" height="120" as="geometry" />
        </mxCell>
        <mxCell id="Fn5ehYDcNYV7hbepeBnN-190" value="" style="endArrow=classic;html=1;rounded=0;exitX=1;exitY=0.5;exitDx=0;exitDy=0;" parent="Fn5ehYDcNYV7hbepeBnN-125" source="Fn5ehYDcNYV7hbepeBnN-150" target="Fn5ehYDcNYV7hbepeBnN-183" edge="1">
          <mxGeometry width="50" height="50" relative="1" as="geometry">
            <mxPoint x="1050" y="302" as="sourcePoint" />
            <mxPoint x="1153" y="202" as="targetPoint" />
          </mxGeometry>
        </mxCell>
        <mxCell id="Fn5ehYDcNYV7hbepeBnN-191" value="&amp;lt;&amp;lt;include&amp;gt;&amp;gt;" style="edgeLabel;html=1;align=center;verticalAlign=middle;resizable=0;points=[];" parent="Fn5ehYDcNYV7hbepeBnN-190" vertex="1" connectable="0">
          <mxGeometry x="-0.2854" relative="1" as="geometry">
            <mxPoint as="offset" />
          </mxGeometry>
        </mxCell>
        <mxCell id="Fn5ehYDcNYV7hbepeBnN-194" value="" style="endArrow=classic;html=1;rounded=0;exitX=1;exitY=0.5;exitDx=0;exitDy=0;" parent="Fn5ehYDcNYV7hbepeBnN-125" source="Fn5ehYDcNYV7hbepeBnN-160" target="Fn5ehYDcNYV7hbepeBnN-183" edge="1">
          <mxGeometry width="50" height="50" relative="1" as="geometry">
            <mxPoint x="900" y="330" as="sourcePoint" />
            <mxPoint x="1280" y="390" as="targetPoint" />
          </mxGeometry>
        </mxCell>
        <mxCell id="Fn5ehYDcNYV7hbepeBnN-195" value="&amp;lt;&amp;lt;include&amp;gt;&amp;gt;" style="edgeLabel;html=1;align=center;verticalAlign=middle;resizable=0;points=[];" parent="Fn5ehYDcNYV7hbepeBnN-194" vertex="1" connectable="0">
          <mxGeometry x="-0.2854" relative="1" as="geometry">
            <mxPoint as="offset" />
          </mxGeometry>
        </mxCell>
        <mxCell id="Fn5ehYDcNYV7hbepeBnN-196" value="" style="endArrow=classic;html=1;rounded=0;exitX=1;exitY=0.5;exitDx=0;exitDy=0;entryX=0.039;entryY=0.683;entryDx=0;entryDy=0;entryPerimeter=0;" parent="Fn5ehYDcNYV7hbepeBnN-125" source="Fn5ehYDcNYV7hbepeBnN-161" target="Fn5ehYDcNYV7hbepeBnN-183" edge="1">
          <mxGeometry width="50" height="50" relative="1" as="geometry">
            <mxPoint x="890" y="405" as="sourcePoint" />
            <mxPoint x="1290" y="400" as="targetPoint" />
          </mxGeometry>
        </mxCell>
        <mxCell id="Fn5ehYDcNYV7hbepeBnN-197" value="&amp;lt;&amp;lt;include&amp;gt;&amp;gt;" style="edgeLabel;html=1;align=center;verticalAlign=middle;resizable=0;points=[];" parent="Fn5ehYDcNYV7hbepeBnN-196" vertex="1" connectable="0">
          <mxGeometry x="-0.2854" relative="1" as="geometry">
            <mxPoint as="offset" />
          </mxGeometry>
        </mxCell>
        <mxCell id="Fn5ehYDcNYV7hbepeBnN-200" value="" style="endArrow=classic;html=1;rounded=0;exitX=1;exitY=0.5;exitDx=0;exitDy=0;entryX=0;entryY=1;entryDx=0;entryDy=0;" parent="Fn5ehYDcNYV7hbepeBnN-125" source="Fn5ehYDcNYV7hbepeBnN-163" target="Fn5ehYDcNYV7hbepeBnN-183" edge="1">
          <mxGeometry width="50" height="50" relative="1" as="geometry">
            <mxPoint x="900" y="615" as="sourcePoint" />
            <mxPoint x="1294.04" y="441.96000000000004" as="targetPoint" />
          </mxGeometry>
        </mxCell>
        <mxCell id="Fn5ehYDcNYV7hbepeBnN-201" value="&amp;lt;&amp;lt;include&amp;gt;&amp;gt;" style="edgeLabel;html=1;align=center;verticalAlign=middle;resizable=0;points=[];" parent="Fn5ehYDcNYV7hbepeBnN-200" vertex="1" connectable="0">
          <mxGeometry x="-0.2854" relative="1" as="geometry">
            <mxPoint as="offset" />
          </mxGeometry>
        </mxCell>
        <mxCell id="Fn5ehYDcNYV7hbepeBnN-314" value="计算月统计范围" style="ellipse;whiteSpace=wrap;html=1;" parent="Fn5ehYDcNYV7hbepeBnN-125" vertex="1">
          <mxGeometry x="580" y="730" width="120" height="40" as="geometry" />
        </mxCell>
        <mxCell id="Fn5ehYDcNYV7hbepeBnN-315" value="" style="endArrow=classic;html=1;rounded=0;entryX=0.042;entryY=0.75;entryDx=0;entryDy=0;entryPerimeter=0;" parent="Fn5ehYDcNYV7hbepeBnN-125" source="Fn5ehYDcNYV7hbepeBnN-149" target="Fn5ehYDcNYV7hbepeBnN-314" edge="1">
          <mxGeometry width="50" height="50" relative="1" as="geometry">
            <mxPoint x="690" y="650" as="sourcePoint" />
            <mxPoint x="770" y="700" as="targetPoint" />
          </mxGeometry>
        </mxCell>
        <mxCell id="Fn5ehYDcNYV7hbepeBnN-316" value="&amp;lt;&amp;lt;include&amp;gt;&amp;gt;" style="edgeLabel;html=1;align=center;verticalAlign=middle;resizable=0;points=[];" parent="Fn5ehYDcNYV7hbepeBnN-315" vertex="1" connectable="0">
          <mxGeometry x="-0.2854" relative="1" as="geometry">
            <mxPoint as="offset" />
          </mxGeometry>
        </mxCell>
        <mxCell id="Fn5ehYDcNYV7hbepeBnN-192" value="" style="endArrow=classic;html=1;rounded=0;exitX=1;exitY=0.5;exitDx=0;exitDy=0;" parent="Fn5ehYDcNYV7hbepeBnN-125" source="Fn5ehYDcNYV7hbepeBnN-151" edge="1" target="Fn5ehYDcNYV7hbepeBnN-183">
          <mxGeometry width="50" height="50" relative="1" as="geometry">
            <mxPoint x="890" y="220" as="sourcePoint" />
            <mxPoint x="1270" y="380" as="targetPoint" />
          </mxGeometry>
        </mxCell>
        <mxCell id="Fn5ehYDcNYV7hbepeBnN-193" value="&amp;lt;&amp;lt;include&amp;gt;&amp;gt;" style="edgeLabel;html=1;align=center;verticalAlign=middle;resizable=0;points=[];" parent="Fn5ehYDcNYV7hbepeBnN-192" vertex="1" connectable="0">
          <mxGeometry x="-0.2854" relative="1" as="geometry">
            <mxPoint as="offset" />
          </mxGeometry>
        </mxCell>
        <mxCell id="Fn5ehYDcNYV7hbepeBnN-198" value="" style="endArrow=classic;html=1;rounded=0;exitX=1;exitY=0.5;exitDx=0;exitDy=0;entryX=0.058;entryY=0.775;entryDx=0;entryDy=0;entryPerimeter=0;" parent="Fn5ehYDcNYV7hbepeBnN-125" source="Fn5ehYDcNYV7hbepeBnN-162" edge="1" target="Fn5ehYDcNYV7hbepeBnN-183">
          <mxGeometry width="50" height="50" relative="1" as="geometry">
            <mxPoint x="890" y="490" as="sourcePoint" />
            <mxPoint x="1284.04" y="431.96000000000004" as="targetPoint" />
          </mxGeometry>
        </mxCell>
        <mxCell id="Fn5ehYDcNYV7hbepeBnN-199" value="&amp;lt;&amp;lt;include&amp;gt;&amp;gt;" style="edgeLabel;html=1;align=center;verticalAlign=middle;resizable=0;points=[];" parent="Fn5ehYDcNYV7hbepeBnN-198" vertex="1" connectable="0">
          <mxGeometry x="-0.2854" relative="1" as="geometry">
            <mxPoint as="offset" />
          </mxGeometry>
        </mxCell>
        <mxCell id="Fn5ehYDcNYV7hbepeBnN-130" value="管理员" style="shape=umlActor;verticalLabelPosition=bottom;verticalAlign=top;html=1;outlineConnect=0;" parent="1" vertex="1">
          <mxGeometry x="50" y="3880" width="30" height="60" as="geometry" />
        </mxCell>
        <mxCell id="Fn5ehYDcNYV7hbepeBnN-131" value="" style="endArrow=none;html=1;rounded=0;exitX=0.5;exitY=0.5;exitDx=0;exitDy=0;exitPerimeter=0;entryX=0;entryY=0.5;entryDx=0;entryDy=0;" parent="1" source="Fn5ehYDcNYV7hbepeBnN-130" target="Fn5ehYDcNYV7hbepeBnN-126" edge="1">
          <mxGeometry width="50" height="50" relative="1" as="geometry">
            <mxPoint x="400" y="3820" as="sourcePoint" />
            <mxPoint x="450" y="3770" as="targetPoint" />
          </mxGeometry>
        </mxCell>
        <mxCell id="Fn5ehYDcNYV7hbepeBnN-132" value="" style="endArrow=none;html=1;rounded=0;exitX=0.5;exitY=0.5;exitDx=0;exitDy=0;exitPerimeter=0;entryX=0;entryY=0.5;entryDx=0;entryDy=0;" parent="1" source="Fn5ehYDcNYV7hbepeBnN-130" target="Fn5ehYDcNYV7hbepeBnN-128" edge="1">
          <mxGeometry width="50" height="50" relative="1" as="geometry">
            <mxPoint x="75" y="3920" as="sourcePoint" />
            <mxPoint x="200" y="3835" as="targetPoint" />
          </mxGeometry>
        </mxCell>
        <mxCell id="Fn5ehYDcNYV7hbepeBnN-133" value="" style="endArrow=none;html=1;rounded=0;exitX=0.5;exitY=0.5;exitDx=0;exitDy=0;exitPerimeter=0;entryX=0;entryY=0.5;entryDx=0;entryDy=0;" parent="1" source="Fn5ehYDcNYV7hbepeBnN-130" target="Fn5ehYDcNYV7hbepeBnN-129" edge="1">
          <mxGeometry width="50" height="50" relative="1" as="geometry">
            <mxPoint x="75" y="3920" as="sourcePoint" />
            <mxPoint x="200" y="3915" as="targetPoint" />
          </mxGeometry>
        </mxCell>
        <mxCell id="Fn5ehYDcNYV7hbepeBnN-135" value="" style="endArrow=none;html=1;rounded=0;exitX=0.5;exitY=0.5;exitDx=0;exitDy=0;exitPerimeter=0;entryX=0;entryY=0.5;entryDx=0;entryDy=0;" parent="1" source="Fn5ehYDcNYV7hbepeBnN-130" target="Fn5ehYDcNYV7hbepeBnN-134" edge="1">
          <mxGeometry width="50" height="50" relative="1" as="geometry">
            <mxPoint x="75" y="3920" as="sourcePoint" />
            <mxPoint x="200" y="4005" as="targetPoint" />
          </mxGeometry>
        </mxCell>
        <mxCell id="Fn5ehYDcNYV7hbepeBnN-139" value="" style="endArrow=none;html=1;rounded=0;exitX=0.5;exitY=0.5;exitDx=0;exitDy=0;exitPerimeter=0;entryX=0;entryY=0.5;entryDx=0;entryDy=0;" parent="1" source="Fn5ehYDcNYV7hbepeBnN-130" target="Fn5ehYDcNYV7hbepeBnN-136" edge="1">
          <mxGeometry width="50" height="50" relative="1" as="geometry">
            <mxPoint x="75" y="3920" as="sourcePoint" />
            <mxPoint x="200" y="4055" as="targetPoint" />
          </mxGeometry>
        </mxCell>
        <mxCell id="Fn5ehYDcNYV7hbepeBnN-140" value="" style="endArrow=none;html=1;rounded=0;entryX=0;entryY=0.5;entryDx=0;entryDy=0;" parent="1" source="Fn5ehYDcNYV7hbepeBnN-130" target="Fn5ehYDcNYV7hbepeBnN-137" edge="1">
          <mxGeometry width="50" height="50" relative="1" as="geometry">
            <mxPoint x="75" y="3920" as="sourcePoint" />
            <mxPoint x="200" y="4135" as="targetPoint" />
          </mxGeometry>
        </mxCell>
        <mxCell id="Fn5ehYDcNYV7hbepeBnN-141" value="" style="endArrow=none;html=1;rounded=0;entryX=0;entryY=0.5;entryDx=0;entryDy=0;" parent="1" source="Fn5ehYDcNYV7hbepeBnN-130" target="Fn5ehYDcNYV7hbepeBnN-138" edge="1">
          <mxGeometry width="50" height="50" relative="1" as="geometry">
            <mxPoint x="87.71186440677957" y="3950" as="sourcePoint" />
            <mxPoint x="200" y="4215" as="targetPoint" />
          </mxGeometry>
        </mxCell>
        <mxCell id="Fn5ehYDcNYV7hbepeBnN-172" value="系统" style="shape=umlActor;verticalLabelPosition=bottom;verticalAlign=top;html=1;outlineConnect=0;" parent="1" vertex="1">
          <mxGeometry x="40" y="4510" width="40" height="60" as="geometry" />
        </mxCell>
        <mxCell id="Fn5ehYDcNYV7hbepeBnN-174" value="" style="endArrow=none;html=1;rounded=0;entryX=0;entryY=0.5;entryDx=0;entryDy=0;exitX=0.5;exitY=0.5;exitDx=0;exitDy=0;exitPerimeter=0;" parent="1" source="Fn5ehYDcNYV7hbepeBnN-172" target="Fn5ehYDcNYV7hbepeBnN-173" edge="1">
          <mxGeometry width="50" height="50" relative="1" as="geometry">
            <mxPoint x="84.25531914893622" y="3950" as="sourcePoint" />
            <mxPoint x="220" y="4390" as="targetPoint" />
          </mxGeometry>
        </mxCell>
        <mxCell id="Fn5ehYDcNYV7hbepeBnN-202" value="电能耗分析" style="swimlane;startSize=23;" parent="1" vertex="1">
          <mxGeometry x="161" y="4822" width="1620" height="1358" as="geometry" />
        </mxCell>
        <mxCell id="Fn5ehYDcNYV7hbepeBnN-258" value="能耗总览" style="ellipse;whiteSpace=wrap;html=1;" parent="Fn5ehYDcNYV7hbepeBnN-202" vertex="1">
          <mxGeometry x="40" y="270" width="120" height="50" as="geometry" />
        </mxCell>
        <mxCell id="Fn5ehYDcNYV7hbepeBnN-259" value="查询今日/本月/本年电能耗" style="ellipse;whiteSpace=wrap;html=1;" parent="Fn5ehYDcNYV7hbepeBnN-202" vertex="1">
          <mxGeometry x="320" y="50" width="140" height="50" as="geometry" />
        </mxCell>
        <mxCell id="Fn5ehYDcNYV7hbepeBnN-261" value="" style="endArrow=classic;html=1;rounded=0;exitX=0.5;exitY=0;exitDx=0;exitDy=0;entryX=0;entryY=0.5;entryDx=0;entryDy=0;" parent="Fn5ehYDcNYV7hbepeBnN-202" source="Fn5ehYDcNYV7hbepeBnN-258" target="Fn5ehYDcNYV7hbepeBnN-259" edge="1">
          <mxGeometry width="50" height="50" relative="1" as="geometry">
            <mxPoint x="340" y="390" as="sourcePoint" />
            <mxPoint x="390" y="340" as="targetPoint" />
          </mxGeometry>
        </mxCell>
        <mxCell id="Fn5ehYDcNYV7hbepeBnN-269" value="&amp;lt;&amp;lt;include&amp;gt;&amp;gt;" style="edgeLabel;html=1;align=center;verticalAlign=middle;resizable=0;points=[];" parent="Fn5ehYDcNYV7hbepeBnN-261" vertex="1" connectable="0">
          <mxGeometry x="-0.2652" y="-1" relative="1" as="geometry">
            <mxPoint x="1" as="offset" />
          </mxGeometry>
        </mxCell>
        <mxCell id="Fn5ehYDcNYV7hbepeBnN-262" value="实时/今日最大/本月最大负荷" style="ellipse;whiteSpace=wrap;html=1;" parent="Fn5ehYDcNYV7hbepeBnN-202" vertex="1">
          <mxGeometry x="310" y="140" width="140" height="50" as="geometry" />
        </mxCell>
        <mxCell id="Fn5ehYDcNYV7hbepeBnN-263" value="" style="endArrow=classic;html=1;rounded=0;exitX=1;exitY=0;exitDx=0;exitDy=0;entryX=0;entryY=0.5;entryDx=0;entryDy=0;" parent="Fn5ehYDcNYV7hbepeBnN-202" source="Fn5ehYDcNYV7hbepeBnN-258" target="Fn5ehYDcNYV7hbepeBnN-262" edge="1">
          <mxGeometry width="50" height="50" relative="1" as="geometry">
            <mxPoint x="250" y="135" as="sourcePoint" />
            <mxPoint x="330" y="85" as="targetPoint" />
          </mxGeometry>
        </mxCell>
        <mxCell id="Fn5ehYDcNYV7hbepeBnN-270" value="&amp;lt;&amp;lt;include&amp;gt;&amp;gt;" style="edgeLabel;html=1;align=center;verticalAlign=middle;resizable=0;points=[];" parent="Fn5ehYDcNYV7hbepeBnN-263" vertex="1" connectable="0">
          <mxGeometry x="-0.2246" relative="1" as="geometry">
            <mxPoint as="offset" />
          </mxGeometry>
        </mxCell>
        <mxCell id="Fn5ehYDcNYV7hbepeBnN-264" value="查看电表在线情况" style="ellipse;whiteSpace=wrap;html=1;" parent="Fn5ehYDcNYV7hbepeBnN-202" vertex="1">
          <mxGeometry x="300" y="220" width="140" height="50" as="geometry" />
        </mxCell>
        <mxCell id="Fn5ehYDcNYV7hbepeBnN-265" value="" style="endArrow=classic;html=1;rounded=0;exitX=1;exitY=0.5;exitDx=0;exitDy=0;entryX=0;entryY=0.5;entryDx=0;entryDy=0;" parent="Fn5ehYDcNYV7hbepeBnN-202" source="Fn5ehYDcNYV7hbepeBnN-258" target="Fn5ehYDcNYV7hbepeBnN-264" edge="1">
          <mxGeometry width="50" height="50" relative="1" as="geometry">
            <mxPoint x="250" y="135" as="sourcePoint" />
            <mxPoint x="320" y="175" as="targetPoint" />
          </mxGeometry>
        </mxCell>
        <mxCell id="Fn5ehYDcNYV7hbepeBnN-271" value="&amp;lt;&amp;lt;include&amp;gt;&amp;gt;" style="edgeLabel;html=1;align=center;verticalAlign=middle;resizable=0;points=[];" parent="Fn5ehYDcNYV7hbepeBnN-265" vertex="1" connectable="0">
          <mxGeometry x="0.2729" y="1" relative="1" as="geometry">
            <mxPoint as="offset" />
          </mxGeometry>
        </mxCell>
        <mxCell id="Fn5ehYDcNYV7hbepeBnN-266" value="查看当月电能源总用量费用" style="ellipse;whiteSpace=wrap;html=1;" parent="Fn5ehYDcNYV7hbepeBnN-202" vertex="1">
          <mxGeometry x="310" y="320" width="140" height="50" as="geometry" />
        </mxCell>
        <mxCell id="Fn5ehYDcNYV7hbepeBnN-267" value="" style="endArrow=classic;html=1;rounded=0;exitX=0.6;exitY=0.98;exitDx=0;exitDy=0;entryX=0;entryY=0.5;entryDx=0;entryDy=0;exitPerimeter=0;" parent="Fn5ehYDcNYV7hbepeBnN-202" source="Fn5ehYDcNYV7hbepeBnN-258" target="Fn5ehYDcNYV7hbepeBnN-266" edge="1">
          <mxGeometry width="50" height="50" relative="1" as="geometry">
            <mxPoint x="223" y="156" as="sourcePoint" />
            <mxPoint x="310" y="255" as="targetPoint" />
          </mxGeometry>
        </mxCell>
        <mxCell id="Fn5ehYDcNYV7hbepeBnN-272" value="&amp;lt;&amp;lt;include&amp;gt;&amp;gt;" style="edgeLabel;html=1;align=center;verticalAlign=middle;resizable=0;points=[];" parent="Fn5ehYDcNYV7hbepeBnN-267" vertex="1" connectable="0">
          <mxGeometry x="0.3103" y="-1" relative="1" as="geometry">
            <mxPoint as="offset" />
          </mxGeometry>
        </mxCell>
        <mxCell id="Fn5ehYDcNYV7hbepeBnN-268" value="查询本月、上月电能耗每日用量" style="ellipse;whiteSpace=wrap;html=1;" parent="Fn5ehYDcNYV7hbepeBnN-202" vertex="1">
          <mxGeometry x="310" y="400" width="120" height="50" as="geometry" />
        </mxCell>
        <mxCell id="Fn5ehYDcNYV7hbepeBnN-275" value="查询本月各时间段内费用占比饼图" style="ellipse;whiteSpace=wrap;html=1;" parent="Fn5ehYDcNYV7hbepeBnN-202" vertex="1">
          <mxGeometry x="310" y="490" width="120" height="50" as="geometry" />
        </mxCell>
        <mxCell id="Fn5ehYDcNYV7hbepeBnN-278" value="" style="endArrow=classic;html=1;rounded=0;exitX=0.5;exitY=1;exitDx=0;exitDy=0;entryX=0;entryY=0.5;entryDx=0;entryDy=0;" parent="Fn5ehYDcNYV7hbepeBnN-202" source="Fn5ehYDcNYV7hbepeBnN-258" target="Fn5ehYDcNYV7hbepeBnN-268" edge="1">
          <mxGeometry width="50" height="50" relative="1" as="geometry">
            <mxPoint x="182" y="269" as="sourcePoint" />
            <mxPoint x="320" y="355" as="targetPoint" />
          </mxGeometry>
        </mxCell>
        <mxCell id="Fn5ehYDcNYV7hbepeBnN-279" value="&amp;lt;&amp;lt;include&amp;gt;&amp;gt;" style="edgeLabel;html=1;align=center;verticalAlign=middle;resizable=0;points=[];" parent="Fn5ehYDcNYV7hbepeBnN-278" vertex="1" connectable="0">
          <mxGeometry x="0.3103" y="-1" relative="1" as="geometry">
            <mxPoint as="offset" />
          </mxGeometry>
        </mxCell>
        <mxCell id="Fn5ehYDcNYV7hbepeBnN-280" value="" style="endArrow=classic;html=1;rounded=0;exitX=0.35;exitY=1.06;exitDx=0;exitDy=0;entryX=0;entryY=0.5;entryDx=0;entryDy=0;exitPerimeter=0;" parent="Fn5ehYDcNYV7hbepeBnN-202" source="Fn5ehYDcNYV7hbepeBnN-258" target="Fn5ehYDcNYV7hbepeBnN-275" edge="1">
          <mxGeometry width="50" height="50" relative="1" as="geometry">
            <mxPoint x="157.03999999999996" y="274" as="sourcePoint" />
            <mxPoint x="320" y="435" as="targetPoint" />
          </mxGeometry>
        </mxCell>
        <mxCell id="Fn5ehYDcNYV7hbepeBnN-281" value="&amp;lt;&amp;lt;include&amp;gt;&amp;gt;" style="edgeLabel;html=1;align=center;verticalAlign=middle;resizable=0;points=[];" parent="Fn5ehYDcNYV7hbepeBnN-280" vertex="1" connectable="0">
          <mxGeometry x="0.3103" y="-1" relative="1" as="geometry">
            <mxPoint as="offset" />
          </mxGeometry>
        </mxCell>
        <mxCell id="Fn5ehYDcNYV7hbepeBnN-282" value="查询本月上月每日&lt;br&gt;负荷/电流" style="ellipse;whiteSpace=wrap;html=1;" parent="Fn5ehYDcNYV7hbepeBnN-202" vertex="1">
          <mxGeometry x="310" y="580" width="120" height="50" as="geometry" />
        </mxCell>
        <mxCell id="Fn5ehYDcNYV7hbepeBnN-283" value="" style="endArrow=classic;html=1;rounded=0;exitX=0;exitY=1;exitDx=0;exitDy=0;" parent="Fn5ehYDcNYV7hbepeBnN-202" source="Fn5ehYDcNYV7hbepeBnN-258" target="Fn5ehYDcNYV7hbepeBnN-282" edge="1">
          <mxGeometry width="50" height="50" relative="1" as="geometry">
            <mxPoint x="67.57359312880703" y="322.67766952966304" as="sourcePoint" />
            <mxPoint x="320" y="525" as="targetPoint" />
          </mxGeometry>
        </mxCell>
        <mxCell id="Fn5ehYDcNYV7hbepeBnN-284" value="&amp;lt;&amp;lt;include&amp;gt;&amp;gt;" style="edgeLabel;html=1;align=center;verticalAlign=middle;resizable=0;points=[];" parent="Fn5ehYDcNYV7hbepeBnN-283" vertex="1" connectable="0">
          <mxGeometry x="0.3103" y="-1" relative="1" as="geometry">
            <mxPoint as="offset" />
          </mxGeometry>
        </mxCell>
        <mxCell id="Fn5ehYDcNYV7hbepeBnN-285" value="按表分析电能耗" style="ellipse;whiteSpace=wrap;html=1;" parent="Fn5ehYDcNYV7hbepeBnN-202" vertex="1">
          <mxGeometry x="300" y="680" width="120" height="50" as="geometry" />
        </mxCell>
        <mxCell id="Fn5ehYDcNYV7hbepeBnN-286" value="按分类查询日/月/年/自定义时间电能耗" style="ellipse;whiteSpace=wrap;html=1;" parent="Fn5ehYDcNYV7hbepeBnN-202" vertex="1">
          <mxGeometry x="600" y="580" width="170" height="50" as="geometry" />
        </mxCell>
        <mxCell id="Fn5ehYDcNYV7hbepeBnN-287" value="分析能耗" style="ellipse;whiteSpace=wrap;html=1;" parent="Fn5ehYDcNYV7hbepeBnN-202" vertex="1">
          <mxGeometry x="50" y="780" width="120" height="50" as="geometry" />
        </mxCell>
        <mxCell id="Fn5ehYDcNYV7hbepeBnN-289" value="按工段分析能耗" style="ellipse;whiteSpace=wrap;html=1;" parent="Fn5ehYDcNYV7hbepeBnN-202" vertex="1">
          <mxGeometry x="300" y="748" width="120" height="50" as="geometry" />
        </mxCell>
        <mxCell id="Fn5ehYDcNYV7hbepeBnN-290" value="按位置分析能耗" style="ellipse;whiteSpace=wrap;html=1;" parent="Fn5ehYDcNYV7hbepeBnN-202" vertex="1">
          <mxGeometry x="300" y="858" width="120" height="50" as="geometry" />
        </mxCell>
        <mxCell id="Fn5ehYDcNYV7hbepeBnN-291" value="" style="endArrow=classic;html=1;rounded=0;exitX=0.933;exitY=0.2;exitDx=0;exitDy=0;exitPerimeter=0;entryX=0;entryY=0.5;entryDx=0;entryDy=0;" parent="Fn5ehYDcNYV7hbepeBnN-202" source="Fn5ehYDcNYV7hbepeBnN-287" target="Fn5ehYDcNYV7hbepeBnN-285" edge="1">
          <mxGeometry width="50" height="50" relative="1" as="geometry">
            <mxPoint x="67.57359312880703" y="322.67766952966304" as="sourcePoint" />
            <mxPoint x="355.5968629764518" y="592.1611666318076" as="targetPoint" />
          </mxGeometry>
        </mxCell>
        <mxCell id="Fn5ehYDcNYV7hbepeBnN-292" value="&amp;lt;&amp;lt;include&amp;gt;&amp;gt;" style="edgeLabel;html=1;align=center;verticalAlign=middle;resizable=0;points=[];" parent="Fn5ehYDcNYV7hbepeBnN-291" vertex="1" connectable="0">
          <mxGeometry x="0.3103" y="-1" relative="1" as="geometry">
            <mxPoint as="offset" />
          </mxGeometry>
        </mxCell>
        <mxCell id="Fn5ehYDcNYV7hbepeBnN-295" value="" style="endArrow=classic;html=1;rounded=0;exitX=1;exitY=1;exitDx=0;exitDy=0;entryX=0;entryY=0.5;entryDx=0;entryDy=0;" parent="Fn5ehYDcNYV7hbepeBnN-202" source="Fn5ehYDcNYV7hbepeBnN-287" target="Fn5ehYDcNYV7hbepeBnN-290" edge="1">
          <mxGeometry width="50" height="50" relative="1" as="geometry">
            <mxPoint x="181.96000000000004" y="810" as="sourcePoint" />
            <mxPoint x="310" y="805" as="targetPoint" />
          </mxGeometry>
        </mxCell>
        <mxCell id="Fn5ehYDcNYV7hbepeBnN-296" value="&amp;lt;&amp;lt;include&amp;gt;&amp;gt;" style="edgeLabel;html=1;align=center;verticalAlign=middle;resizable=0;points=[];" parent="Fn5ehYDcNYV7hbepeBnN-295" vertex="1" connectable="0">
          <mxGeometry x="0.3103" y="-1" relative="1" as="geometry">
            <mxPoint as="offset" />
          </mxGeometry>
        </mxCell>
        <mxCell id="Fn5ehYDcNYV7hbepeBnN-297" value="按表查询日/月/年/自定义时间&lt;br&gt;电能耗" style="ellipse;whiteSpace=wrap;html=1;" parent="Fn5ehYDcNYV7hbepeBnN-202" vertex="1">
          <mxGeometry x="610" y="670" width="180" height="50" as="geometry" />
        </mxCell>
        <mxCell id="Fn5ehYDcNYV7hbepeBnN-298" value="" style="endArrow=classic;html=1;rounded=0;entryX=0;entryY=0.5;entryDx=0;entryDy=0;" parent="Fn5ehYDcNYV7hbepeBnN-202" source="Fn5ehYDcNYV7hbepeBnN-285" target="Fn5ehYDcNYV7hbepeBnN-286" edge="1">
          <mxGeometry width="50" height="50" relative="1" as="geometry">
            <mxPoint x="450" y="650" as="sourcePoint" />
            <mxPoint x="588.04" y="565" as="targetPoint" />
          </mxGeometry>
        </mxCell>
        <mxCell id="Fn5ehYDcNYV7hbepeBnN-299" value="&amp;lt;&amp;lt;include&amp;gt;&amp;gt;" style="edgeLabel;html=1;align=center;verticalAlign=middle;resizable=0;points=[];" parent="Fn5ehYDcNYV7hbepeBnN-298" vertex="1" connectable="0">
          <mxGeometry x="0.3103" y="-1" relative="1" as="geometry">
            <mxPoint as="offset" />
          </mxGeometry>
        </mxCell>
        <mxCell id="Fn5ehYDcNYV7hbepeBnN-302" value="按工段查询日/月/年/自定义时间&lt;br&gt;能耗" style="ellipse;whiteSpace=wrap;html=1;" parent="Fn5ehYDcNYV7hbepeBnN-202" vertex="1">
          <mxGeometry x="590" y="738" width="190" height="50" as="geometry" />
        </mxCell>
        <mxCell id="Fn5ehYDcNYV7hbepeBnN-303" value="" style="endArrow=classic;html=1;rounded=0;exitX=0.975;exitY=0.68;exitDx=0;exitDy=0;exitPerimeter=0;entryX=0;entryY=0.5;entryDx=0;entryDy=0;" parent="Fn5ehYDcNYV7hbepeBnN-202" source="Fn5ehYDcNYV7hbepeBnN-289" target="Fn5ehYDcNYV7hbepeBnN-302" edge="1">
          <mxGeometry width="50" height="50" relative="1" as="geometry">
            <mxPoint x="424.28172872013965" y="708.1307700113757" as="sourcePoint" />
            <mxPoint x="620.0351404844573" y="705.7920550133831" as="targetPoint" />
          </mxGeometry>
        </mxCell>
        <mxCell id="Fn5ehYDcNYV7hbepeBnN-304" value="&amp;lt;&amp;lt;include&amp;gt;&amp;gt;" style="edgeLabel;html=1;align=center;verticalAlign=middle;resizable=0;points=[];" parent="Fn5ehYDcNYV7hbepeBnN-303" vertex="1" connectable="0">
          <mxGeometry x="0.3103" y="-1" relative="1" as="geometry">
            <mxPoint as="offset" />
          </mxGeometry>
        </mxCell>
        <mxCell id="Fn5ehYDcNYV7hbepeBnN-305" value="按位置查询日/月/年/自定义时间&lt;br&gt;电能耗" style="ellipse;whiteSpace=wrap;html=1;" parent="Fn5ehYDcNYV7hbepeBnN-202" vertex="1">
          <mxGeometry x="570" y="860" width="200" height="50" as="geometry" />
        </mxCell>
        <mxCell id="Fn5ehYDcNYV7hbepeBnN-306" value="" style="endArrow=classic;html=1;rounded=0;exitX=1;exitY=0.5;exitDx=0;exitDy=0;entryX=0;entryY=0.5;entryDx=0;entryDy=0;" parent="Fn5ehYDcNYV7hbepeBnN-202" source="Fn5ehYDcNYV7hbepeBnN-290" target="Fn5ehYDcNYV7hbepeBnN-305" edge="1">
          <mxGeometry width="50" height="50" relative="1" as="geometry">
            <mxPoint x="427" y="814" as="sourcePoint" />
            <mxPoint x="600" y="805" as="targetPoint" />
          </mxGeometry>
        </mxCell>
        <mxCell id="Fn5ehYDcNYV7hbepeBnN-307" value="&amp;lt;&amp;lt;include&amp;gt;&amp;gt;" style="edgeLabel;html=1;align=center;verticalAlign=middle;resizable=0;points=[];" parent="Fn5ehYDcNYV7hbepeBnN-306" vertex="1" connectable="0">
          <mxGeometry x="0.3103" y="-1" relative="1" as="geometry">
            <mxPoint as="offset" />
          </mxGeometry>
        </mxCell>
        <mxCell id="4uNDwX8hjNjPK4yF6hCE-4" value="查询电表位置节点环比用电曲线图" style="ellipse;whiteSpace=wrap;html=1;" vertex="1" parent="Fn5ehYDcNYV7hbepeBnN-202">
          <mxGeometry x="1009" y="658" width="180" height="48" as="geometry" />
        </mxCell>
        <mxCell id="4uNDwX8hjNjPK4yF6hCE-5" value="" style="endArrow=classic;html=1;rounded=0;exitX=1;exitY=0.5;exitDx=0;exitDy=0;" edge="1" parent="Fn5ehYDcNYV7hbepeBnN-202" source="Fn5ehYDcNYV7hbepeBnN-297" target="4uNDwX8hjNjPK4yF6hCE-4">
          <mxGeometry width="50" height="50" relative="1" as="geometry">
            <mxPoint x="423.28172872013965" y="706.1307700113757" as="sourcePoint" />
            <mxPoint x="620.0071290858405" y="705.3146603878122" as="targetPoint" />
          </mxGeometry>
        </mxCell>
        <mxCell id="4uNDwX8hjNjPK4yF6hCE-6" value="&amp;lt;&amp;lt;include&amp;gt;&amp;gt;" style="edgeLabel;html=1;align=center;verticalAlign=middle;resizable=0;points=[];" vertex="1" connectable="0" parent="4uNDwX8hjNjPK4yF6hCE-5">
          <mxGeometry x="0.3103" y="-1" relative="1" as="geometry">
            <mxPoint as="offset" />
          </mxGeometry>
        </mxCell>
        <mxCell id="4uNDwX8hjNjPK4yF6hCE-7" value="查询电表位置当前节点与子节点用电情况&amp;nbsp;" style="ellipse;whiteSpace=wrap;html=1;" vertex="1" parent="Fn5ehYDcNYV7hbepeBnN-202">
          <mxGeometry x="999" y="830" width="180" height="52" as="geometry" />
        </mxCell>
        <mxCell id="4uNDwX8hjNjPK4yF6hCE-8" value="" style="endArrow=classic;html=1;rounded=0;" edge="1" parent="Fn5ehYDcNYV7hbepeBnN-202" source="Fn5ehYDcNYV7hbepeBnN-297" target="4uNDwX8hjNjPK4yF6hCE-7">
          <mxGeometry width="50" height="50" relative="1" as="geometry">
            <mxPoint x="800" y="705" as="sourcePoint" />
            <mxPoint x="972.8923077475088" y="690.9817047772294" as="targetPoint" />
          </mxGeometry>
        </mxCell>
        <mxCell id="4uNDwX8hjNjPK4yF6hCE-9" value="&amp;lt;&amp;lt;include&amp;gt;&amp;gt;" style="edgeLabel;html=1;align=center;verticalAlign=middle;resizable=0;points=[];" vertex="1" connectable="0" parent="4uNDwX8hjNjPK4yF6hCE-8">
          <mxGeometry x="0.3103" y="-1" relative="1" as="geometry">
            <mxPoint as="offset" />
          </mxGeometry>
        </mxCell>
        <mxCell id="4uNDwX8hjNjPK4yF6hCE-10" value="" style="endArrow=classic;html=1;rounded=0;exitX=1;exitY=0.5;exitDx=0;exitDy=0;entryX=0;entryY=1;entryDx=0;entryDy=0;" edge="1" parent="Fn5ehYDcNYV7hbepeBnN-202" source="Fn5ehYDcNYV7hbepeBnN-302" target="4uNDwX8hjNjPK4yF6hCE-4">
          <mxGeometry width="50" height="50" relative="1" as="geometry">
            <mxPoint x="800" y="705" as="sourcePoint" />
            <mxPoint x="972.8923077475088" y="690.9817047772294" as="targetPoint" />
          </mxGeometry>
        </mxCell>
        <mxCell id="4uNDwX8hjNjPK4yF6hCE-11" value="&amp;lt;&amp;lt;include&amp;gt;&amp;gt;" style="edgeLabel;html=1;align=center;verticalAlign=middle;resizable=0;points=[];" vertex="1" connectable="0" parent="4uNDwX8hjNjPK4yF6hCE-10">
          <mxGeometry x="0.3103" y="-1" relative="1" as="geometry">
            <mxPoint as="offset" />
          </mxGeometry>
        </mxCell>
        <mxCell id="4uNDwX8hjNjPK4yF6hCE-12" value="" style="endArrow=classic;html=1;rounded=0;entryX=0.094;entryY=0.808;entryDx=0;entryDy=0;entryPerimeter=0;" edge="1" parent="Fn5ehYDcNYV7hbepeBnN-202" source="Fn5ehYDcNYV7hbepeBnN-302" target="4uNDwX8hjNjPK4yF6hCE-7">
          <mxGeometry width="50" height="50" relative="1" as="geometry">
            <mxPoint x="790" y="805" as="sourcePoint" />
            <mxPoint x="995.3603896932109" y="700.9705627484773" as="targetPoint" />
          </mxGeometry>
        </mxCell>
        <mxCell id="4uNDwX8hjNjPK4yF6hCE-13" value="&amp;lt;&amp;lt;include&amp;gt;&amp;gt;" style="edgeLabel;html=1;align=center;verticalAlign=middle;resizable=0;points=[];" vertex="1" connectable="0" parent="4uNDwX8hjNjPK4yF6hCE-12">
          <mxGeometry x="0.3103" y="-1" relative="1" as="geometry">
            <mxPoint as="offset" />
          </mxGeometry>
        </mxCell>
        <mxCell id="4uNDwX8hjNjPK4yF6hCE-14" value="按工段查询日/月/年/自定义时间&lt;br&gt;电能耗占比饼图" style="ellipse;whiteSpace=wrap;html=1;" vertex="1" parent="Fn5ehYDcNYV7hbepeBnN-202">
          <mxGeometry x="580" y="788" width="190" height="50" as="geometry" />
        </mxCell>
        <mxCell id="4uNDwX8hjNjPK4yF6hCE-15" value="" style="endArrow=classic;html=1;rounded=0;exitX=1;exitY=1;exitDx=0;exitDy=0;" edge="1" parent="Fn5ehYDcNYV7hbepeBnN-202" source="Fn5ehYDcNYV7hbepeBnN-289" target="4uNDwX8hjNjPK4yF6hCE-14">
          <mxGeometry width="50" height="50" relative="1" as="geometry">
            <mxPoint x="427" y="814" as="sourcePoint" />
            <mxPoint x="600" y="773" as="targetPoint" />
          </mxGeometry>
        </mxCell>
        <mxCell id="4uNDwX8hjNjPK4yF6hCE-16" value="&amp;lt;&amp;lt;include&amp;gt;&amp;gt;" style="edgeLabel;html=1;align=center;verticalAlign=middle;resizable=0;points=[];" vertex="1" connectable="0" parent="4uNDwX8hjNjPK4yF6hCE-15">
          <mxGeometry x="0.3103" y="-1" relative="1" as="geometry">
            <mxPoint as="offset" />
          </mxGeometry>
        </mxCell>
        <mxCell id="4uNDwX8hjNjPK4yF6hCE-17" value="按位置查询日/月/年/自定义时间&lt;br&gt;电能耗占比饼图" style="ellipse;whiteSpace=wrap;html=1;" vertex="1" parent="Fn5ehYDcNYV7hbepeBnN-202">
          <mxGeometry x="590" y="928" width="190" height="50" as="geometry" />
        </mxCell>
        <mxCell id="4uNDwX8hjNjPK4yF6hCE-18" value="" style="endArrow=classic;html=1;rounded=0;" edge="1" parent="Fn5ehYDcNYV7hbepeBnN-202" source="Fn5ehYDcNYV7hbepeBnN-290" target="4uNDwX8hjNjPK4yF6hCE-17">
          <mxGeometry width="50" height="50" relative="1" as="geometry">
            <mxPoint x="430" y="885" as="sourcePoint" />
            <mxPoint x="580" y="895" as="targetPoint" />
          </mxGeometry>
        </mxCell>
        <mxCell id="4uNDwX8hjNjPK4yF6hCE-19" value="&amp;lt;&amp;lt;include&amp;gt;&amp;gt;" style="edgeLabel;html=1;align=center;verticalAlign=middle;resizable=0;points=[];" vertex="1" connectable="0" parent="4uNDwX8hjNjPK4yF6hCE-18">
          <mxGeometry x="0.3103" y="-1" relative="1" as="geometry">
            <mxPoint as="offset" />
          </mxGeometry>
        </mxCell>
        <mxCell id="4uNDwX8hjNjPK4yF6hCE-20" value="" style="endArrow=classic;html=1;rounded=0;exitX=1;exitY=0;exitDx=0;exitDy=0;" edge="1" parent="Fn5ehYDcNYV7hbepeBnN-202" source="Fn5ehYDcNYV7hbepeBnN-305" target="4uNDwX8hjNjPK4yF6hCE-4">
          <mxGeometry width="50" height="50" relative="1" as="geometry">
            <mxPoint x="800" y="705" as="sourcePoint" />
            <mxPoint x="972.8923077475088" y="690.9817047772294" as="targetPoint" />
          </mxGeometry>
        </mxCell>
        <mxCell id="4uNDwX8hjNjPK4yF6hCE-21" value="&amp;lt;&amp;lt;include&amp;gt;&amp;gt;" style="edgeLabel;html=1;align=center;verticalAlign=middle;resizable=0;points=[];" vertex="1" connectable="0" parent="4uNDwX8hjNjPK4yF6hCE-20">
          <mxGeometry x="0.3103" y="-1" relative="1" as="geometry">
            <mxPoint as="offset" />
          </mxGeometry>
        </mxCell>
        <mxCell id="4uNDwX8hjNjPK4yF6hCE-22" value="" style="endArrow=classic;html=1;rounded=0;exitX=1;exitY=0.5;exitDx=0;exitDy=0;entryX=0.222;entryY=0.923;entryDx=0;entryDy=0;entryPerimeter=0;" edge="1" parent="Fn5ehYDcNYV7hbepeBnN-202" source="Fn5ehYDcNYV7hbepeBnN-305" target="4uNDwX8hjNjPK4yF6hCE-7">
          <mxGeometry width="50" height="50" relative="1" as="geometry">
            <mxPoint x="750.7106781186549" y="877.322330470336" as="sourcePoint" />
            <mxPoint x="1067.728010514401" y="713.3277040637877" as="targetPoint" />
          </mxGeometry>
        </mxCell>
        <mxCell id="4uNDwX8hjNjPK4yF6hCE-23" value="&amp;lt;&amp;lt;include&amp;gt;&amp;gt;" style="edgeLabel;html=1;align=center;verticalAlign=middle;resizable=0;points=[];" vertex="1" connectable="0" parent="4uNDwX8hjNjPK4yF6hCE-22">
          <mxGeometry x="0.3103" y="-1" relative="1" as="geometry">
            <mxPoint as="offset" />
          </mxGeometry>
        </mxCell>
        <mxCell id="4uNDwX8hjNjPK4yF6hCE-24" value="按功率/电流分析能耗" style="ellipse;whiteSpace=wrap;html=1;" vertex="1" parent="Fn5ehYDcNYV7hbepeBnN-202">
          <mxGeometry x="295" y="958" width="150" height="50" as="geometry" />
        </mxCell>
        <mxCell id="4uNDwX8hjNjPK4yF6hCE-25" value="" style="endArrow=classic;html=1;rounded=0;entryX=0;entryY=0.5;entryDx=0;entryDy=0;" edge="1" parent="Fn5ehYDcNYV7hbepeBnN-202" source="Fn5ehYDcNYV7hbepeBnN-287" target="4uNDwX8hjNjPK4yF6hCE-24">
          <mxGeometry width="50" height="50" relative="1" as="geometry">
            <mxPoint x="139.34190195957694" y="838.6653859270118" as="sourcePoint" />
            <mxPoint x="290" y="1023" as="targetPoint" />
          </mxGeometry>
        </mxCell>
        <mxCell id="4uNDwX8hjNjPK4yF6hCE-26" value="&amp;lt;&amp;lt;include&amp;gt;&amp;gt;" style="edgeLabel;html=1;align=center;verticalAlign=middle;resizable=0;points=[];" vertex="1" connectable="0" parent="4uNDwX8hjNjPK4yF6hCE-25">
          <mxGeometry x="0.3103" y="-1" relative="1" as="geometry">
            <mxPoint as="offset" />
          </mxGeometry>
        </mxCell>
        <mxCell id="4uNDwX8hjNjPK4yF6hCE-27" value="查询日/月/年/自定义时间内&lt;br&gt;功率环比曲线图" style="ellipse;whiteSpace=wrap;html=1;" vertex="1" parent="Fn5ehYDcNYV7hbepeBnN-202">
          <mxGeometry x="610" y="1023" width="200" height="50" as="geometry" />
        </mxCell>
        <mxCell id="4uNDwX8hjNjPK4yF6hCE-28" value="查询日/月/年/自定义时间内&lt;br&gt;平均功率因数环比曲线图" style="ellipse;whiteSpace=wrap;html=1;" vertex="1" parent="Fn5ehYDcNYV7hbepeBnN-202">
          <mxGeometry x="629" y="1188" width="200" height="50" as="geometry" />
        </mxCell>
        <mxCell id="4uNDwX8hjNjPK4yF6hCE-29" value="查询日/月/年/自定义时间内&lt;br&gt;电流环比曲线图" style="ellipse;whiteSpace=wrap;html=1;" vertex="1" parent="Fn5ehYDcNYV7hbepeBnN-202">
          <mxGeometry x="619" y="1108" width="200" height="50" as="geometry" />
        </mxCell>
        <mxCell id="4uNDwX8hjNjPK4yF6hCE-32" value="" style="endArrow=classic;html=1;rounded=0;entryX=0;entryY=0.5;entryDx=0;entryDy=0;exitX=1;exitY=0.5;exitDx=0;exitDy=0;" edge="1" parent="Fn5ehYDcNYV7hbepeBnN-202" source="4uNDwX8hjNjPK4yF6hCE-24" target="4uNDwX8hjNjPK4yF6hCE-27">
          <mxGeometry width="50" height="50" relative="1" as="geometry">
            <mxPoint x="479" y="1173" as="sourcePoint" />
            <mxPoint x="629" y="1078" as="targetPoint" />
          </mxGeometry>
        </mxCell>
        <mxCell id="4uNDwX8hjNjPK4yF6hCE-33" value="&amp;lt;&amp;lt;include&amp;gt;&amp;gt;" style="edgeLabel;html=1;align=center;verticalAlign=middle;resizable=0;points=[];" vertex="1" connectable="0" parent="4uNDwX8hjNjPK4yF6hCE-32">
          <mxGeometry x="0.3103" y="-1" relative="1" as="geometry">
            <mxPoint as="offset" />
          </mxGeometry>
        </mxCell>
        <mxCell id="4uNDwX8hjNjPK4yF6hCE-34" value="" style="endArrow=classic;html=1;rounded=0;entryX=0;entryY=0.5;entryDx=0;entryDy=0;exitX=1;exitY=0.5;exitDx=0;exitDy=0;" edge="1" parent="Fn5ehYDcNYV7hbepeBnN-202" source="4uNDwX8hjNjPK4yF6hCE-24" target="4uNDwX8hjNjPK4yF6hCE-28">
          <mxGeometry width="50" height="50" relative="1" as="geometry">
            <mxPoint x="539" y="1278" as="sourcePoint" />
            <mxPoint x="640" y="1063" as="targetPoint" />
          </mxGeometry>
        </mxCell>
        <mxCell id="4uNDwX8hjNjPK4yF6hCE-35" value="&amp;lt;&amp;lt;include&amp;gt;&amp;gt;" style="edgeLabel;html=1;align=center;verticalAlign=middle;resizable=0;points=[];" vertex="1" connectable="0" parent="4uNDwX8hjNjPK4yF6hCE-34">
          <mxGeometry x="0.3103" y="-1" relative="1" as="geometry">
            <mxPoint as="offset" />
          </mxGeometry>
        </mxCell>
        <mxCell id="4uNDwX8hjNjPK4yF6hCE-30" value="" style="endArrow=classic;html=1;rounded=0;exitX=1;exitY=0.5;exitDx=0;exitDy=0;entryX=0;entryY=0.5;entryDx=0;entryDy=0;" edge="1" parent="Fn5ehYDcNYV7hbepeBnN-202" source="4uNDwX8hjNjPK4yF6hCE-24" target="4uNDwX8hjNjPK4yF6hCE-29">
          <mxGeometry width="50" height="50" relative="1" as="geometry">
            <mxPoint x="490" y="1023" as="sourcePoint" />
            <mxPoint x="620" y="1043" as="targetPoint" />
          </mxGeometry>
        </mxCell>
        <mxCell id="4uNDwX8hjNjPK4yF6hCE-31" value="&amp;lt;&amp;lt;include&amp;gt;&amp;gt;" style="edgeLabel;html=1;align=center;verticalAlign=middle;resizable=0;points=[];" vertex="1" connectable="0" parent="4uNDwX8hjNjPK4yF6hCE-30">
          <mxGeometry x="0.3103" y="-1" relative="1" as="geometry">
            <mxPoint as="offset" />
          </mxGeometry>
        </mxCell>
        <mxCell id="Fn5ehYDcNYV7hbepeBnN-254" value="管理员" style="shape=umlActor;verticalLabelPosition=bottom;verticalAlign=top;html=1;outlineConnect=0;" parent="1" vertex="1">
          <mxGeometry x="30" y="5350" width="30" height="60" as="geometry" />
        </mxCell>
        <mxCell id="Fn5ehYDcNYV7hbepeBnN-273" value="" style="endArrow=none;html=1;rounded=0;entryX=0;entryY=0.5;entryDx=0;entryDy=0;" parent="1" source="Fn5ehYDcNYV7hbepeBnN-254" target="Fn5ehYDcNYV7hbepeBnN-258" edge="1">
          <mxGeometry width="50" height="50" relative="1" as="geometry">
            <mxPoint x="500" y="5200" as="sourcePoint" />
            <mxPoint x="550" y="5150" as="targetPoint" />
          </mxGeometry>
        </mxCell>
        <mxCell id="Fn5ehYDcNYV7hbepeBnN-288" value="" style="endArrow=none;html=1;rounded=0;entryX=0;entryY=0.5;entryDx=0;entryDy=0;" parent="1" source="Fn5ehYDcNYV7hbepeBnN-254" target="Fn5ehYDcNYV7hbepeBnN-287" edge="1">
          <mxGeometry width="50" height="50" relative="1" as="geometry">
            <mxPoint x="70" y="5364.354838709677" as="sourcePoint" />
            <mxPoint x="210" y="5125" as="targetPoint" />
          </mxGeometry>
        </mxCell>
        <mxCell id="Fn5ehYDcNYV7hbepeBnN-293" value="" style="endArrow=classic;html=1;rounded=0;exitX=0.933;exitY=0.2;exitDx=0;exitDy=0;exitPerimeter=0;entryX=0;entryY=0.5;entryDx=0;entryDy=0;" parent="1" target="Fn5ehYDcNYV7hbepeBnN-289" edge="1">
          <mxGeometry width="50" height="50" relative="1" as="geometry">
            <mxPoint x="331.96000000000004" y="5620" as="sourcePoint" />
            <mxPoint x="470" y="5535" as="targetPoint" />
          </mxGeometry>
        </mxCell>
        <mxCell id="Fn5ehYDcNYV7hbepeBnN-294" value="&amp;lt;&amp;lt;include&amp;gt;&amp;gt;" style="edgeLabel;html=1;align=center;verticalAlign=middle;resizable=0;points=[];" parent="Fn5ehYDcNYV7hbepeBnN-293" vertex="1" connectable="0">
          <mxGeometry x="0.3103" y="-1" relative="1" as="geometry">
            <mxPoint as="offset" />
          </mxGeometry>
        </mxCell>
        <mxCell id="Fn5ehYDcNYV7hbepeBnN-300" value="" style="endArrow=classic;html=1;rounded=0;" parent="1" target="Fn5ehYDcNYV7hbepeBnN-297" edge="1">
          <mxGeometry width="50" height="50" relative="1" as="geometry">
            <mxPoint x="574.2817287201397" y="5518.130770011376" as="sourcePoint" />
            <mxPoint x="740" y="5455" as="targetPoint" />
          </mxGeometry>
        </mxCell>
        <mxCell id="Fn5ehYDcNYV7hbepeBnN-301" value="&amp;lt;&amp;lt;include&amp;gt;&amp;gt;" style="edgeLabel;html=1;align=center;verticalAlign=middle;resizable=0;points=[];" parent="Fn5ehYDcNYV7hbepeBnN-300" vertex="1" connectable="0">
          <mxGeometry x="0.3103" y="-1" relative="1" as="geometry">
            <mxPoint as="offset" />
          </mxGeometry>
        </mxCell>
        <mxCell id="dL4Y-PeAec-lhiHuOU8F-3" value="" style="endArrow=none;html=1;rounded=0;entryX=0;entryY=0.5;entryDx=0;entryDy=0;" edge="1" parent="1" source="Fn5ehYDcNYV7hbepeBnN-172" target="Fn5ehYDcNYV7hbepeBnN-142">
          <mxGeometry width="50" height="50" relative="1" as="geometry">
            <mxPoint x="84.7590361445782" y="3950" as="sourcePoint" />
            <mxPoint x="210" y="4335" as="targetPoint" />
          </mxGeometry>
        </mxCell>
        <mxCell id="dL4Y-PeAec-lhiHuOU8F-129" value="管理员" style="shape=umlActor;verticalLabelPosition=bottom;verticalAlign=top;html=1;outlineConnect=0;" vertex="1" parent="1">
          <mxGeometry x="129" y="2039" width="30" height="60" as="geometry" />
        </mxCell>
        <mxCell id="dL4Y-PeAec-lhiHuOU8F-130" value="电表模块" style="swimlane;" vertex="1" parent="1">
          <mxGeometry x="209" y="1920" width="550" height="340" as="geometry" />
        </mxCell>
        <mxCell id="dL4Y-PeAec-lhiHuOU8F-131" value="电表位置管理" style="ellipse;whiteSpace=wrap;html=1;" vertex="1" parent="dL4Y-PeAec-lhiHuOU8F-130">
          <mxGeometry x="130" y="87" width="117" height="50" as="geometry" />
        </mxCell>
        <mxCell id="dL4Y-PeAec-lhiHuOU8F-135" value="电能耗管理" style="ellipse;whiteSpace=wrap;html=1;" vertex="1" parent="dL4Y-PeAec-lhiHuOU8F-130">
          <mxGeometry x="130" y="159" width="117" height="50" as="geometry" />
        </mxCell>
        <mxCell id="dL4Y-PeAec-lhiHuOU8F-136" value="电能耗分析" style="ellipse;whiteSpace=wrap;html=1;" vertex="1" parent="dL4Y-PeAec-lhiHuOU8F-130">
          <mxGeometry x="139" y="247" width="117" height="50" as="geometry" />
        </mxCell>
        <mxCell id="dL4Y-PeAec-lhiHuOU8F-137" value="定时同步工业系统电表数据" style="ellipse;whiteSpace=wrap;html=1;" vertex="1" parent="dL4Y-PeAec-lhiHuOU8F-130">
          <mxGeometry x="329" y="164" width="157" height="50" as="geometry" />
        </mxCell>
        <mxCell id="dL4Y-PeAec-lhiHuOU8F-138" value="" style="endArrow=none;html=1;rounded=0;exitX=0.5;exitY=0.5;exitDx=0;exitDy=0;exitPerimeter=0;entryX=0;entryY=0.5;entryDx=0;entryDy=0;" edge="1" parent="1" source="dL4Y-PeAec-lhiHuOU8F-129" target="dL4Y-PeAec-lhiHuOU8F-131">
          <mxGeometry width="50" height="50" relative="1" as="geometry">
            <mxPoint x="469" y="2017" as="sourcePoint" />
            <mxPoint x="519" y="1967" as="targetPoint" />
          </mxGeometry>
        </mxCell>
        <mxCell id="dL4Y-PeAec-lhiHuOU8F-142" value="" style="endArrow=none;html=1;rounded=0;entryX=0;entryY=0.5;entryDx=0;entryDy=0;" edge="1" parent="1" target="dL4Y-PeAec-lhiHuOU8F-135">
          <mxGeometry width="50" height="50" relative="1" as="geometry">
            <mxPoint x="149" y="2069" as="sourcePoint" />
            <mxPoint x="349" y="2104" as="targetPoint" />
          </mxGeometry>
        </mxCell>
        <mxCell id="dL4Y-PeAec-lhiHuOU8F-143" value="" style="endArrow=none;html=1;rounded=0;entryX=0;entryY=0.5;entryDx=0;entryDy=0;exitX=0.5;exitY=0.5;exitDx=0;exitDy=0;exitPerimeter=0;" edge="1" parent="1" source="dL4Y-PeAec-lhiHuOU8F-129" target="dL4Y-PeAec-lhiHuOU8F-136">
          <mxGeometry width="50" height="50" relative="1" as="geometry">
            <mxPoint x="159" y="2087" as="sourcePoint" />
            <mxPoint x="349" y="2192" as="targetPoint" />
          </mxGeometry>
        </mxCell>
        <mxCell id="dL4Y-PeAec-lhiHuOU8F-144" value="电表位置管理" style="swimlane;" vertex="1" parent="1">
          <mxGeometry x="200" y="2560" width="400" height="540" as="geometry" />
        </mxCell>
        <mxCell id="dL4Y-PeAec-lhiHuOU8F-145" value="新增电表位置" style="ellipse;whiteSpace=wrap;html=1;" vertex="1" parent="dL4Y-PeAec-lhiHuOU8F-144">
          <mxGeometry x="130" y="100" width="117" height="50" as="geometry" />
        </mxCell>
        <mxCell id="dL4Y-PeAec-lhiHuOU8F-146" value="修改电表位置" style="ellipse;whiteSpace=wrap;html=1;" vertex="1" parent="dL4Y-PeAec-lhiHuOU8F-144">
          <mxGeometry x="130" y="160" width="117" height="50" as="geometry" />
        </mxCell>
        <mxCell id="dL4Y-PeAec-lhiHuOU8F-147" value="删除电表位置" style="ellipse;whiteSpace=wrap;html=1;" vertex="1" parent="dL4Y-PeAec-lhiHuOU8F-144">
          <mxGeometry x="130" y="230" width="117" height="50" as="geometry" />
        </mxCell>
        <mxCell id="dL4Y-PeAec-lhiHuOU8F-148" value="查询电表位置详情" style="ellipse;whiteSpace=wrap;html=1;" vertex="1" parent="dL4Y-PeAec-lhiHuOU8F-144">
          <mxGeometry x="130" y="290" width="117" height="50" as="geometry" />
        </mxCell>
        <mxCell id="dL4Y-PeAec-lhiHuOU8F-149" value="查询电表位置树结构" style="ellipse;whiteSpace=wrap;html=1;" vertex="1" parent="dL4Y-PeAec-lhiHuOU8F-144">
          <mxGeometry x="135" y="360" width="117" height="50" as="geometry" />
        </mxCell>
        <mxCell id="dL4Y-PeAec-lhiHuOU8F-151" value="查询电表位置本级下级列表" style="ellipse;whiteSpace=wrap;html=1;" vertex="1" parent="dL4Y-PeAec-lhiHuOU8F-144">
          <mxGeometry x="135" y="439" width="117" height="50" as="geometry" />
        </mxCell>
        <mxCell id="dL4Y-PeAec-lhiHuOU8F-156" value="管理员" style="shape=umlActor;verticalLabelPosition=bottom;verticalAlign=top;html=1;outlineConnect=0;" vertex="1" parent="1">
          <mxGeometry x="90" y="2800" width="30" height="60" as="geometry" />
        </mxCell>
        <mxCell id="dL4Y-PeAec-lhiHuOU8F-157" value="" style="endArrow=none;html=1;rounded=0;exitX=0.5;exitY=0.5;exitDx=0;exitDy=0;exitPerimeter=0;entryX=0;entryY=0.5;entryDx=0;entryDy=0;" edge="1" parent="1" source="dL4Y-PeAec-lhiHuOU8F-156" target="dL4Y-PeAec-lhiHuOU8F-145">
          <mxGeometry width="50" height="50" relative="1" as="geometry">
            <mxPoint x="220" y="2810" as="sourcePoint" />
            <mxPoint x="270" y="2760" as="targetPoint" />
          </mxGeometry>
        </mxCell>
        <mxCell id="dL4Y-PeAec-lhiHuOU8F-158" value="" style="endArrow=none;html=1;rounded=0;exitX=0.5;exitY=0.5;exitDx=0;exitDy=0;exitPerimeter=0;entryX=0;entryY=0.5;entryDx=0;entryDy=0;" edge="1" parent="1" source="dL4Y-PeAec-lhiHuOU8F-156" target="dL4Y-PeAec-lhiHuOU8F-146">
          <mxGeometry width="50" height="50" relative="1" as="geometry">
            <mxPoint x="175" y="2820" as="sourcePoint" />
            <mxPoint x="340" y="2695" as="targetPoint" />
          </mxGeometry>
        </mxCell>
        <mxCell id="dL4Y-PeAec-lhiHuOU8F-159" value="" style="endArrow=none;html=1;rounded=0;exitX=0.5;exitY=0.5;exitDx=0;exitDy=0;exitPerimeter=0;entryX=0;entryY=0.5;entryDx=0;entryDy=0;" edge="1" parent="1" source="dL4Y-PeAec-lhiHuOU8F-156" target="dL4Y-PeAec-lhiHuOU8F-147">
          <mxGeometry width="50" height="50" relative="1" as="geometry">
            <mxPoint x="175" y="2820" as="sourcePoint" />
            <mxPoint x="340" y="2755" as="targetPoint" />
          </mxGeometry>
        </mxCell>
        <mxCell id="dL4Y-PeAec-lhiHuOU8F-160" value="系统" style="shape=umlActor;verticalLabelPosition=bottom;verticalAlign=top;html=1;outlineConnect=0;" vertex="1" parent="1">
          <mxGeometry x="839" y="2079" width="30" height="60" as="geometry" />
        </mxCell>
        <mxCell id="dL4Y-PeAec-lhiHuOU8F-161" value="" style="endArrow=none;html=1;rounded=0;exitX=1;exitY=0.5;exitDx=0;exitDy=0;entryX=0.5;entryY=0.5;entryDx=0;entryDy=0;entryPerimeter=0;" edge="1" parent="1" source="dL4Y-PeAec-lhiHuOU8F-137" target="dL4Y-PeAec-lhiHuOU8F-160">
          <mxGeometry width="50" height="50" relative="1" as="geometry">
            <mxPoint x="689" y="2069" as="sourcePoint" />
            <mxPoint x="884" y="2019" as="targetPoint" />
          </mxGeometry>
        </mxCell>
        <mxCell id="dL4Y-PeAec-lhiHuOU8F-162" value="" style="endArrow=none;html=1;rounded=0;exitX=0.5;exitY=0.5;exitDx=0;exitDy=0;exitPerimeter=0;entryX=0;entryY=0.5;entryDx=0;entryDy=0;" edge="1" parent="1" source="dL4Y-PeAec-lhiHuOU8F-156" target="dL4Y-PeAec-lhiHuOU8F-148">
          <mxGeometry width="50" height="50" relative="1" as="geometry">
            <mxPoint x="175" y="2820" as="sourcePoint" />
            <mxPoint x="340" y="2825" as="targetPoint" />
          </mxGeometry>
        </mxCell>
        <mxCell id="dL4Y-PeAec-lhiHuOU8F-163" value="" style="endArrow=none;html=1;rounded=0;exitX=0.5;exitY=0.5;exitDx=0;exitDy=0;exitPerimeter=0;entryX=0;entryY=0.5;entryDx=0;entryDy=0;" edge="1" parent="1" source="dL4Y-PeAec-lhiHuOU8F-156" target="dL4Y-PeAec-lhiHuOU8F-149">
          <mxGeometry width="50" height="50" relative="1" as="geometry">
            <mxPoint x="175" y="2820" as="sourcePoint" />
            <mxPoint x="340" y="2885" as="targetPoint" />
          </mxGeometry>
        </mxCell>
        <mxCell id="dL4Y-PeAec-lhiHuOU8F-165" value="" style="endArrow=none;html=1;rounded=0;entryX=0;entryY=0.5;entryDx=0;entryDy=0;exitX=0.5;exitY=0.5;exitDx=0;exitDy=0;exitPerimeter=0;" edge="1" parent="1" source="dL4Y-PeAec-lhiHuOU8F-156" target="dL4Y-PeAec-lhiHuOU8F-151">
          <mxGeometry width="50" height="50" relative="1" as="geometry">
            <mxPoint x="170" y="2820" as="sourcePoint" />
            <mxPoint x="345" y="2955" as="targetPoint" />
          </mxGeometry>
        </mxCell>
      </root>
    </mxGraphModel>
  </diagram>
  <diagram name="水表" id="T7PR3nWt3by40_dF074F">
    <mxGraphModel dx="1662" dy="-330" grid="1" gridSize="10" guides="1" tooltips="1" connect="1" arrows="1" fold="1" page="1" pageScale="1" pageWidth="827" pageHeight="1169" math="0" shadow="0">
      <root>
        <mxCell id="0sbqnc-3tho7-nZxA60z-0" />
        <mxCell id="0sbqnc-3tho7-nZxA60z-1" parent="0sbqnc-3tho7-nZxA60z-0" />
        <mxCell id="0sbqnc-3tho7-nZxA60z-2" value="水耗管理" style="swimlane;startSize=23;" vertex="1" parent="0sbqnc-3tho7-nZxA60z-1">
          <mxGeometry x="160" y="3790" width="1190" height="850" as="geometry" />
        </mxCell>
        <mxCell id="0sbqnc-3tho7-nZxA60z-3" value="查询小时耗水量数据列表" style="ellipse;whiteSpace=wrap;html=1;" vertex="1" parent="0sbqnc-3tho7-nZxA60z-2">
          <mxGeometry x="60" y="70" width="160" height="50" as="geometry" />
        </mxCell>
        <mxCell id="0sbqnc-3tho7-nZxA60z-4" value="查询日水耗数据列表" style="ellipse;whiteSpace=wrap;html=1;" vertex="1" parent="0sbqnc-3tho7-nZxA60z-2">
          <mxGeometry x="60" y="150" width="120" height="50" as="geometry" />
        </mxCell>
        <mxCell id="0sbqnc-3tho7-nZxA60z-5" value="查询月水耗数据列表" style="ellipse;whiteSpace=wrap;html=1;" vertex="1" parent="0sbqnc-3tho7-nZxA60z-2">
          <mxGeometry x="60" y="215" width="120" height="50" as="geometry" />
        </mxCell>
        <mxCell id="0sbqnc-3tho7-nZxA60z-6" value="查询自定义时间范围水耗数据列表" style="ellipse;whiteSpace=wrap;html=1;" vertex="1" parent="0sbqnc-3tho7-nZxA60z-2">
          <mxGeometry x="60" y="290" width="120" height="50" as="geometry" />
        </mxCell>
        <mxCell id="0sbqnc-3tho7-nZxA60z-7" value="手动抄表" style="ellipse;whiteSpace=wrap;html=1;" vertex="1" parent="0sbqnc-3tho7-nZxA60z-2">
          <mxGeometry x="40" y="430" width="120" height="50" as="geometry" />
        </mxCell>
        <mxCell id="0sbqnc-3tho7-nZxA60z-8" value="删除手动抄表" style="ellipse;whiteSpace=wrap;html=1;" vertex="1" parent="0sbqnc-3tho7-nZxA60z-2">
          <mxGeometry x="40" y="510" width="120" height="50" as="geometry" />
        </mxCell>
        <mxCell id="0sbqnc-3tho7-nZxA60z-9" value="查询手动抄表列表" style="ellipse;whiteSpace=wrap;html=1;" vertex="1" parent="0sbqnc-3tho7-nZxA60z-2">
          <mxGeometry x="60" y="365" width="120" height="50" as="geometry" />
        </mxCell>
        <mxCell id="0sbqnc-3tho7-nZxA60z-10" value="计算耗水量" style="ellipse;whiteSpace=wrap;html=1;" vertex="1" parent="0sbqnc-3tho7-nZxA60z-2">
          <mxGeometry x="40" y="670" width="120" height="40" as="geometry" />
        </mxCell>
        <mxCell id="0sbqnc-3tho7-nZxA60z-11" value="统计小时水耗" style="ellipse;whiteSpace=wrap;html=1;" vertex="1" parent="0sbqnc-3tho7-nZxA60z-2">
          <mxGeometry x="300" y="480" width="120" height="40" as="geometry" />
        </mxCell>
        <mxCell id="0sbqnc-3tho7-nZxA60z-12" value="统计日水耗" style="ellipse;whiteSpace=wrap;html=1;" vertex="1" parent="0sbqnc-3tho7-nZxA60z-2">
          <mxGeometry x="310" y="560" width="120" height="40" as="geometry" />
        </mxCell>
        <mxCell id="0sbqnc-3tho7-nZxA60z-13" value="统计月水耗" style="ellipse;whiteSpace=wrap;html=1;" vertex="1" parent="0sbqnc-3tho7-nZxA60z-2">
          <mxGeometry x="320" y="650" width="120" height="40" as="geometry" />
        </mxCell>
        <mxCell id="0sbqnc-3tho7-nZxA60z-14" value="计算水表位置小时能耗" style="ellipse;whiteSpace=wrap;html=1;" vertex="1" parent="0sbqnc-3tho7-nZxA60z-2">
          <mxGeometry x="530" y="340" width="120" height="40" as="geometry" />
        </mxCell>
        <mxCell id="0sbqnc-3tho7-nZxA60z-15" value="计算分组小时耗水量" style="ellipse;whiteSpace=wrap;html=1;" vertex="1" parent="0sbqnc-3tho7-nZxA60z-2">
          <mxGeometry x="530" y="390" width="120" height="40" as="geometry" />
        </mxCell>
        <mxCell id="0sbqnc-3tho7-nZxA60z-16" value="" style="endArrow=classic;html=1;rounded=0;exitX=1;exitY=0.5;exitDx=0;exitDy=0;entryX=0;entryY=0.5;entryDx=0;entryDy=0;" edge="1" parent="0sbqnc-3tho7-nZxA60z-2" source="0sbqnc-3tho7-nZxA60z-11" target="0sbqnc-3tho7-nZxA60z-14">
          <mxGeometry width="50" height="50" relative="1" as="geometry">
            <mxPoint x="660" y="259.5" as="sourcePoint" />
            <mxPoint x="820" y="259.5" as="targetPoint" />
          </mxGeometry>
        </mxCell>
        <mxCell id="0sbqnc-3tho7-nZxA60z-17" value="&amp;lt;&amp;lt;include&amp;gt;&amp;gt;" style="edgeLabel;html=1;align=center;verticalAlign=middle;resizable=0;points=[];" vertex="1" connectable="0" parent="0sbqnc-3tho7-nZxA60z-16">
          <mxGeometry x="-0.2854" relative="1" as="geometry">
            <mxPoint as="offset" />
          </mxGeometry>
        </mxCell>
        <mxCell id="0sbqnc-3tho7-nZxA60z-18" value="" style="endArrow=classic;html=1;rounded=0;exitX=1;exitY=0.5;exitDx=0;exitDy=0;entryX=0;entryY=0.5;entryDx=0;entryDy=0;" edge="1" parent="0sbqnc-3tho7-nZxA60z-2" source="0sbqnc-3tho7-nZxA60z-11" target="0sbqnc-3tho7-nZxA60z-15">
          <mxGeometry width="50" height="50" relative="1" as="geometry">
            <mxPoint x="620" y="302" as="sourcePoint" />
            <mxPoint x="730" y="230" as="targetPoint" />
          </mxGeometry>
        </mxCell>
        <mxCell id="0sbqnc-3tho7-nZxA60z-19" value="&amp;lt;&amp;lt;include&amp;gt;&amp;gt;" style="edgeLabel;html=1;align=center;verticalAlign=middle;resizable=0;points=[];" vertex="1" connectable="0" parent="0sbqnc-3tho7-nZxA60z-18">
          <mxGeometry x="-0.2854" relative="1" as="geometry">
            <mxPoint as="offset" />
          </mxGeometry>
        </mxCell>
        <mxCell id="0sbqnc-3tho7-nZxA60z-20" value="计算分组日耗水量" style="ellipse;whiteSpace=wrap;html=1;" vertex="1" parent="0sbqnc-3tho7-nZxA60z-2">
          <mxGeometry x="540" y="545" width="120" height="40" as="geometry" />
        </mxCell>
        <mxCell id="0sbqnc-3tho7-nZxA60z-21" value="计算水表位置日耗水量" style="ellipse;whiteSpace=wrap;html=1;" vertex="1" parent="0sbqnc-3tho7-nZxA60z-2">
          <mxGeometry x="540" y="490" width="120" height="40" as="geometry" />
        </mxCell>
        <mxCell id="0sbqnc-3tho7-nZxA60z-22" value="计算水表位置月耗水量" style="ellipse;whiteSpace=wrap;html=1;" vertex="1" parent="0sbqnc-3tho7-nZxA60z-2">
          <mxGeometry x="570" y="610" width="120" height="40" as="geometry" />
        </mxCell>
        <mxCell id="0sbqnc-3tho7-nZxA60z-23" value="计算分组月耗水量" style="ellipse;whiteSpace=wrap;html=1;" vertex="1" parent="0sbqnc-3tho7-nZxA60z-2">
          <mxGeometry x="570" y="670" width="120" height="40" as="geometry" />
        </mxCell>
        <mxCell id="0sbqnc-3tho7-nZxA60z-24" value="" style="endArrow=classic;html=1;rounded=0;exitX=1;exitY=0.5;exitDx=0;exitDy=0;entryX=0;entryY=0.5;entryDx=0;entryDy=0;" edge="1" parent="0sbqnc-3tho7-nZxA60z-2" source="0sbqnc-3tho7-nZxA60z-12" target="0sbqnc-3tho7-nZxA60z-21">
          <mxGeometry width="50" height="50" relative="1" as="geometry">
            <mxPoint x="690" y="420" as="sourcePoint" />
            <mxPoint x="850" y="448" as="targetPoint" />
          </mxGeometry>
        </mxCell>
        <mxCell id="0sbqnc-3tho7-nZxA60z-25" value="&amp;lt;&amp;lt;include&amp;gt;&amp;gt;" style="edgeLabel;html=1;align=center;verticalAlign=middle;resizable=0;points=[];" vertex="1" connectable="0" parent="0sbqnc-3tho7-nZxA60z-24">
          <mxGeometry x="-0.2854" relative="1" as="geometry">
            <mxPoint as="offset" />
          </mxGeometry>
        </mxCell>
        <mxCell id="0sbqnc-3tho7-nZxA60z-26" value="" style="endArrow=classic;html=1;rounded=0;exitX=1;exitY=0.5;exitDx=0;exitDy=0;entryX=0;entryY=0.5;entryDx=0;entryDy=0;" edge="1" parent="0sbqnc-3tho7-nZxA60z-2" source="0sbqnc-3tho7-nZxA60z-12" target="0sbqnc-3tho7-nZxA60z-20">
          <mxGeometry width="50" height="50" relative="1" as="geometry">
            <mxPoint x="670" y="460" as="sourcePoint" />
            <mxPoint x="770" y="405" as="targetPoint" />
          </mxGeometry>
        </mxCell>
        <mxCell id="0sbqnc-3tho7-nZxA60z-27" value="&amp;lt;&amp;lt;include&amp;gt;&amp;gt;" style="edgeLabel;html=1;align=center;verticalAlign=middle;resizable=0;points=[];" vertex="1" connectable="0" parent="0sbqnc-3tho7-nZxA60z-26">
          <mxGeometry x="-0.2854" relative="1" as="geometry">
            <mxPoint as="offset" />
          </mxGeometry>
        </mxCell>
        <mxCell id="0sbqnc-3tho7-nZxA60z-28" value="" style="endArrow=classic;html=1;rounded=0;exitX=1;exitY=0.5;exitDx=0;exitDy=0;entryX=0;entryY=0.5;entryDx=0;entryDy=0;" edge="1" parent="0sbqnc-3tho7-nZxA60z-2" source="0sbqnc-3tho7-nZxA60z-13" target="0sbqnc-3tho7-nZxA60z-22">
          <mxGeometry width="50" height="50" relative="1" as="geometry">
            <mxPoint x="710" y="540" as="sourcePoint" />
            <mxPoint x="810" y="570" as="targetPoint" />
          </mxGeometry>
        </mxCell>
        <mxCell id="0sbqnc-3tho7-nZxA60z-29" value="&amp;lt;&amp;lt;include&amp;gt;&amp;gt;" style="edgeLabel;html=1;align=center;verticalAlign=middle;resizable=0;points=[];" vertex="1" connectable="0" parent="0sbqnc-3tho7-nZxA60z-28">
          <mxGeometry x="-0.2854" relative="1" as="geometry">
            <mxPoint as="offset" />
          </mxGeometry>
        </mxCell>
        <mxCell id="0sbqnc-3tho7-nZxA60z-30" value="" style="endArrow=classic;html=1;rounded=0;exitX=1;exitY=0.5;exitDx=0;exitDy=0;entryX=0;entryY=0.5;entryDx=0;entryDy=0;" edge="1" parent="0sbqnc-3tho7-nZxA60z-2" source="0sbqnc-3tho7-nZxA60z-13" target="0sbqnc-3tho7-nZxA60z-23">
          <mxGeometry width="50" height="50" relative="1" as="geometry">
            <mxPoint x="670" y="570" as="sourcePoint" />
            <mxPoint x="750" y="620" as="targetPoint" />
          </mxGeometry>
        </mxCell>
        <mxCell id="0sbqnc-3tho7-nZxA60z-31" value="&amp;lt;&amp;lt;include&amp;gt;&amp;gt;" style="edgeLabel;html=1;align=center;verticalAlign=middle;resizable=0;points=[];" vertex="1" connectable="0" parent="0sbqnc-3tho7-nZxA60z-30">
          <mxGeometry x="-0.2854" relative="1" as="geometry">
            <mxPoint as="offset" />
          </mxGeometry>
        </mxCell>
        <mxCell id="0sbqnc-3tho7-nZxA60z-32" value="定时自动抄表" style="ellipse;whiteSpace=wrap;html=1;" vertex="1" parent="0sbqnc-3tho7-nZxA60z-2">
          <mxGeometry x="40" y="745" width="120" height="50" as="geometry" />
        </mxCell>
        <mxCell id="0sbqnc-3tho7-nZxA60z-33" value="" style="endArrow=classic;html=1;rounded=0;exitX=0.5;exitY=0;exitDx=0;exitDy=0;entryX=0;entryY=0.5;entryDx=0;entryDy=0;" edge="1" parent="0sbqnc-3tho7-nZxA60z-2" source="0sbqnc-3tho7-nZxA60z-10" target="0sbqnc-3tho7-nZxA60z-11">
          <mxGeometry width="50" height="50" relative="1" as="geometry">
            <mxPoint x="440" y="440" as="sourcePoint" />
            <mxPoint x="620" y="525" as="targetPoint" />
          </mxGeometry>
        </mxCell>
        <mxCell id="0sbqnc-3tho7-nZxA60z-34" value="&amp;lt;&amp;lt;include&amp;gt;&amp;gt;" style="edgeLabel;html=1;align=center;verticalAlign=middle;resizable=0;points=[];" vertex="1" connectable="0" parent="0sbqnc-3tho7-nZxA60z-33">
          <mxGeometry x="-0.2854" relative="1" as="geometry">
            <mxPoint as="offset" />
          </mxGeometry>
        </mxCell>
        <mxCell id="0sbqnc-3tho7-nZxA60z-35" value="" style="endArrow=classic;html=1;rounded=0;exitX=0.783;exitY=0.025;exitDx=0;exitDy=0;entryX=0;entryY=0.5;entryDx=0;entryDy=0;exitPerimeter=0;" edge="1" parent="0sbqnc-3tho7-nZxA60z-2" source="0sbqnc-3tho7-nZxA60z-10" target="0sbqnc-3tho7-nZxA60z-12">
          <mxGeometry width="50" height="50" relative="1" as="geometry">
            <mxPoint x="410" y="570" as="sourcePoint" />
            <mxPoint x="547" y="320" as="targetPoint" />
          </mxGeometry>
        </mxCell>
        <mxCell id="0sbqnc-3tho7-nZxA60z-36" value="&amp;lt;&amp;lt;include&amp;gt;&amp;gt;" style="edgeLabel;html=1;align=center;verticalAlign=middle;resizable=0;points=[];" vertex="1" connectable="0" parent="0sbqnc-3tho7-nZxA60z-35">
          <mxGeometry x="-0.2854" relative="1" as="geometry">
            <mxPoint as="offset" />
          </mxGeometry>
        </mxCell>
        <mxCell id="0sbqnc-3tho7-nZxA60z-37" value="" style="endArrow=classic;html=1;rounded=0;exitX=1;exitY=0.5;exitDx=0;exitDy=0;entryX=0;entryY=0.5;entryDx=0;entryDy=0;" edge="1" parent="0sbqnc-3tho7-nZxA60z-2" source="0sbqnc-3tho7-nZxA60z-10" target="0sbqnc-3tho7-nZxA60z-13">
          <mxGeometry width="50" height="50" relative="1" as="geometry">
            <mxPoint x="443.96000000000004" y="571" as="sourcePoint" />
            <mxPoint x="550" y="460" as="targetPoint" />
          </mxGeometry>
        </mxCell>
        <mxCell id="0sbqnc-3tho7-nZxA60z-38" value="&amp;lt;&amp;lt;include&amp;gt;&amp;gt;" style="edgeLabel;html=1;align=center;verticalAlign=middle;resizable=0;points=[];" vertex="1" connectable="0" parent="0sbqnc-3tho7-nZxA60z-37">
          <mxGeometry x="-0.2854" relative="1" as="geometry">
            <mxPoint as="offset" />
          </mxGeometry>
        </mxCell>
        <mxCell id="0sbqnc-3tho7-nZxA60z-39" value="更新所属分组组内所有分摊表时间段内计费费用" style="ellipse;whiteSpace=wrap;html=1;" vertex="1" parent="0sbqnc-3tho7-nZxA60z-2">
          <mxGeometry x="800" y="460" width="270" height="70" as="geometry" />
        </mxCell>
        <mxCell id="0sbqnc-3tho7-nZxA60z-40" value="" style="endArrow=classic;html=1;rounded=0;exitX=1;exitY=0.5;exitDx=0;exitDy=0;" edge="1" parent="0sbqnc-3tho7-nZxA60z-2" source="0sbqnc-3tho7-nZxA60z-14" target="0sbqnc-3tho7-nZxA60z-39">
          <mxGeometry width="50" height="50" relative="1" as="geometry">
            <mxPoint x="1050" y="302" as="sourcePoint" />
            <mxPoint x="1153" y="202" as="targetPoint" />
          </mxGeometry>
        </mxCell>
        <mxCell id="0sbqnc-3tho7-nZxA60z-41" value="&amp;lt;&amp;lt;include&amp;gt;&amp;gt;" style="edgeLabel;html=1;align=center;verticalAlign=middle;resizable=0;points=[];" vertex="1" connectable="0" parent="0sbqnc-3tho7-nZxA60z-40">
          <mxGeometry x="-0.2854" relative="1" as="geometry">
            <mxPoint as="offset" />
          </mxGeometry>
        </mxCell>
        <mxCell id="0sbqnc-3tho7-nZxA60z-42" value="" style="endArrow=classic;html=1;rounded=0;exitX=1;exitY=0.5;exitDx=0;exitDy=0;" edge="1" parent="0sbqnc-3tho7-nZxA60z-2" source="0sbqnc-3tho7-nZxA60z-21" target="0sbqnc-3tho7-nZxA60z-39">
          <mxGeometry width="50" height="50" relative="1" as="geometry">
            <mxPoint x="900" y="330" as="sourcePoint" />
            <mxPoint x="1280" y="390" as="targetPoint" />
          </mxGeometry>
        </mxCell>
        <mxCell id="0sbqnc-3tho7-nZxA60z-43" value="&amp;lt;&amp;lt;include&amp;gt;&amp;gt;" style="edgeLabel;html=1;align=center;verticalAlign=middle;resizable=0;points=[];" vertex="1" connectable="0" parent="0sbqnc-3tho7-nZxA60z-42">
          <mxGeometry x="-0.2854" relative="1" as="geometry">
            <mxPoint as="offset" />
          </mxGeometry>
        </mxCell>
        <mxCell id="0sbqnc-3tho7-nZxA60z-44" value="" style="endArrow=classic;html=1;rounded=0;exitX=1;exitY=0.5;exitDx=0;exitDy=0;entryX=0.039;entryY=0.683;entryDx=0;entryDy=0;entryPerimeter=0;" edge="1" parent="0sbqnc-3tho7-nZxA60z-2" source="0sbqnc-3tho7-nZxA60z-20" target="0sbqnc-3tho7-nZxA60z-39">
          <mxGeometry width="50" height="50" relative="1" as="geometry">
            <mxPoint x="890" y="405" as="sourcePoint" />
            <mxPoint x="1290" y="400" as="targetPoint" />
          </mxGeometry>
        </mxCell>
        <mxCell id="0sbqnc-3tho7-nZxA60z-45" value="&amp;lt;&amp;lt;include&amp;gt;&amp;gt;" style="edgeLabel;html=1;align=center;verticalAlign=middle;resizable=0;points=[];" vertex="1" connectable="0" parent="0sbqnc-3tho7-nZxA60z-44">
          <mxGeometry x="-0.2854" relative="1" as="geometry">
            <mxPoint as="offset" />
          </mxGeometry>
        </mxCell>
        <mxCell id="0sbqnc-3tho7-nZxA60z-46" value="" style="endArrow=classic;html=1;rounded=0;exitX=1;exitY=0.5;exitDx=0;exitDy=0;entryX=0;entryY=1;entryDx=0;entryDy=0;" edge="1" parent="0sbqnc-3tho7-nZxA60z-2" source="0sbqnc-3tho7-nZxA60z-23" target="0sbqnc-3tho7-nZxA60z-39">
          <mxGeometry width="50" height="50" relative="1" as="geometry">
            <mxPoint x="900" y="615" as="sourcePoint" />
            <mxPoint x="1294.04" y="441.96000000000004" as="targetPoint" />
          </mxGeometry>
        </mxCell>
        <mxCell id="0sbqnc-3tho7-nZxA60z-47" value="&amp;lt;&amp;lt;include&amp;gt;&amp;gt;" style="edgeLabel;html=1;align=center;verticalAlign=middle;resizable=0;points=[];" vertex="1" connectable="0" parent="0sbqnc-3tho7-nZxA60z-46">
          <mxGeometry x="-0.2854" relative="1" as="geometry">
            <mxPoint as="offset" />
          </mxGeometry>
        </mxCell>
        <mxCell id="0sbqnc-3tho7-nZxA60z-48" value="计算月统计范围" style="ellipse;whiteSpace=wrap;html=1;" vertex="1" parent="0sbqnc-3tho7-nZxA60z-2">
          <mxGeometry x="580" y="730" width="120" height="40" as="geometry" />
        </mxCell>
        <mxCell id="0sbqnc-3tho7-nZxA60z-49" value="" style="endArrow=classic;html=1;rounded=0;entryX=0.042;entryY=0.75;entryDx=0;entryDy=0;entryPerimeter=0;" edge="1" parent="0sbqnc-3tho7-nZxA60z-2" source="0sbqnc-3tho7-nZxA60z-13" target="0sbqnc-3tho7-nZxA60z-48">
          <mxGeometry width="50" height="50" relative="1" as="geometry">
            <mxPoint x="690" y="650" as="sourcePoint" />
            <mxPoint x="770" y="700" as="targetPoint" />
          </mxGeometry>
        </mxCell>
        <mxCell id="0sbqnc-3tho7-nZxA60z-50" value="&amp;lt;&amp;lt;include&amp;gt;&amp;gt;" style="edgeLabel;html=1;align=center;verticalAlign=middle;resizable=0;points=[];" vertex="1" connectable="0" parent="0sbqnc-3tho7-nZxA60z-49">
          <mxGeometry x="-0.2854" relative="1" as="geometry">
            <mxPoint as="offset" />
          </mxGeometry>
        </mxCell>
        <mxCell id="0sbqnc-3tho7-nZxA60z-51" value="" style="endArrow=classic;html=1;rounded=0;exitX=1;exitY=0.5;exitDx=0;exitDy=0;" edge="1" parent="0sbqnc-3tho7-nZxA60z-2" source="0sbqnc-3tho7-nZxA60z-15" target="0sbqnc-3tho7-nZxA60z-39">
          <mxGeometry width="50" height="50" relative="1" as="geometry">
            <mxPoint x="890" y="220" as="sourcePoint" />
            <mxPoint x="1270" y="380" as="targetPoint" />
          </mxGeometry>
        </mxCell>
        <mxCell id="0sbqnc-3tho7-nZxA60z-52" value="&amp;lt;&amp;lt;include&amp;gt;&amp;gt;" style="edgeLabel;html=1;align=center;verticalAlign=middle;resizable=0;points=[];" vertex="1" connectable="0" parent="0sbqnc-3tho7-nZxA60z-51">
          <mxGeometry x="-0.2854" relative="1" as="geometry">
            <mxPoint as="offset" />
          </mxGeometry>
        </mxCell>
        <mxCell id="0sbqnc-3tho7-nZxA60z-53" value="" style="endArrow=classic;html=1;rounded=0;exitX=1;exitY=0.5;exitDx=0;exitDy=0;entryX=0.058;entryY=0.775;entryDx=0;entryDy=0;entryPerimeter=0;" edge="1" parent="0sbqnc-3tho7-nZxA60z-2" source="0sbqnc-3tho7-nZxA60z-22" target="0sbqnc-3tho7-nZxA60z-39">
          <mxGeometry width="50" height="50" relative="1" as="geometry">
            <mxPoint x="890" y="490" as="sourcePoint" />
            <mxPoint x="1284.04" y="431.96000000000004" as="targetPoint" />
          </mxGeometry>
        </mxCell>
        <mxCell id="0sbqnc-3tho7-nZxA60z-54" value="&amp;lt;&amp;lt;include&amp;gt;&amp;gt;" style="edgeLabel;html=1;align=center;verticalAlign=middle;resizable=0;points=[];" vertex="1" connectable="0" parent="0sbqnc-3tho7-nZxA60z-53">
          <mxGeometry x="-0.2854" relative="1" as="geometry">
            <mxPoint as="offset" />
          </mxGeometry>
        </mxCell>
        <mxCell id="0sbqnc-3tho7-nZxA60z-55" value="管理员" style="shape=umlActor;verticalLabelPosition=bottom;verticalAlign=top;html=1;outlineConnect=0;" vertex="1" parent="0sbqnc-3tho7-nZxA60z-1">
          <mxGeometry x="50" y="3880" width="30" height="60" as="geometry" />
        </mxCell>
        <mxCell id="0sbqnc-3tho7-nZxA60z-56" value="" style="endArrow=none;html=1;rounded=0;exitX=0.5;exitY=0.5;exitDx=0;exitDy=0;exitPerimeter=0;entryX=0;entryY=0.5;entryDx=0;entryDy=0;" edge="1" parent="0sbqnc-3tho7-nZxA60z-1" source="0sbqnc-3tho7-nZxA60z-55" target="0sbqnc-3tho7-nZxA60z-3">
          <mxGeometry width="50" height="50" relative="1" as="geometry">
            <mxPoint x="400" y="3820" as="sourcePoint" />
            <mxPoint x="450" y="3770" as="targetPoint" />
          </mxGeometry>
        </mxCell>
        <mxCell id="0sbqnc-3tho7-nZxA60z-57" value="" style="endArrow=none;html=1;rounded=0;exitX=0.5;exitY=0.5;exitDx=0;exitDy=0;exitPerimeter=0;entryX=0;entryY=0.5;entryDx=0;entryDy=0;" edge="1" parent="0sbqnc-3tho7-nZxA60z-1" source="0sbqnc-3tho7-nZxA60z-55" target="0sbqnc-3tho7-nZxA60z-4">
          <mxGeometry width="50" height="50" relative="1" as="geometry">
            <mxPoint x="75" y="3920" as="sourcePoint" />
            <mxPoint x="200" y="3835" as="targetPoint" />
          </mxGeometry>
        </mxCell>
        <mxCell id="0sbqnc-3tho7-nZxA60z-58" value="" style="endArrow=none;html=1;rounded=0;exitX=0.5;exitY=0.5;exitDx=0;exitDy=0;exitPerimeter=0;entryX=0;entryY=0.5;entryDx=0;entryDy=0;" edge="1" parent="0sbqnc-3tho7-nZxA60z-1" source="0sbqnc-3tho7-nZxA60z-55" target="0sbqnc-3tho7-nZxA60z-5">
          <mxGeometry width="50" height="50" relative="1" as="geometry">
            <mxPoint x="75" y="3920" as="sourcePoint" />
            <mxPoint x="200" y="3915" as="targetPoint" />
          </mxGeometry>
        </mxCell>
        <mxCell id="0sbqnc-3tho7-nZxA60z-59" value="" style="endArrow=none;html=1;rounded=0;exitX=0.5;exitY=0.5;exitDx=0;exitDy=0;exitPerimeter=0;entryX=0;entryY=0.5;entryDx=0;entryDy=0;" edge="1" parent="0sbqnc-3tho7-nZxA60z-1" source="0sbqnc-3tho7-nZxA60z-55" target="0sbqnc-3tho7-nZxA60z-6">
          <mxGeometry width="50" height="50" relative="1" as="geometry">
            <mxPoint x="75" y="3920" as="sourcePoint" />
            <mxPoint x="200" y="4005" as="targetPoint" />
          </mxGeometry>
        </mxCell>
        <mxCell id="0sbqnc-3tho7-nZxA60z-60" value="" style="endArrow=none;html=1;rounded=0;exitX=0.5;exitY=0.5;exitDx=0;exitDy=0;exitPerimeter=0;entryX=0;entryY=0.5;entryDx=0;entryDy=0;" edge="1" parent="0sbqnc-3tho7-nZxA60z-1" source="0sbqnc-3tho7-nZxA60z-55" target="0sbqnc-3tho7-nZxA60z-7">
          <mxGeometry width="50" height="50" relative="1" as="geometry">
            <mxPoint x="75" y="3920" as="sourcePoint" />
            <mxPoint x="200" y="4055" as="targetPoint" />
          </mxGeometry>
        </mxCell>
        <mxCell id="0sbqnc-3tho7-nZxA60z-61" value="" style="endArrow=none;html=1;rounded=0;entryX=0;entryY=0.5;entryDx=0;entryDy=0;" edge="1" parent="0sbqnc-3tho7-nZxA60z-1" source="0sbqnc-3tho7-nZxA60z-55" target="0sbqnc-3tho7-nZxA60z-8">
          <mxGeometry width="50" height="50" relative="1" as="geometry">
            <mxPoint x="75" y="3920" as="sourcePoint" />
            <mxPoint x="200" y="4135" as="targetPoint" />
          </mxGeometry>
        </mxCell>
        <mxCell id="0sbqnc-3tho7-nZxA60z-62" value="" style="endArrow=none;html=1;rounded=0;entryX=0;entryY=0.5;entryDx=0;entryDy=0;" edge="1" parent="0sbqnc-3tho7-nZxA60z-1" source="0sbqnc-3tho7-nZxA60z-55" target="0sbqnc-3tho7-nZxA60z-9">
          <mxGeometry width="50" height="50" relative="1" as="geometry">
            <mxPoint x="87.71186440677957" y="3950" as="sourcePoint" />
            <mxPoint x="200" y="4215" as="targetPoint" />
          </mxGeometry>
        </mxCell>
        <mxCell id="0sbqnc-3tho7-nZxA60z-63" value="系统" style="shape=umlActor;verticalLabelPosition=bottom;verticalAlign=top;html=1;outlineConnect=0;" vertex="1" parent="0sbqnc-3tho7-nZxA60z-1">
          <mxGeometry x="40" y="4510" width="40" height="60" as="geometry" />
        </mxCell>
        <mxCell id="0sbqnc-3tho7-nZxA60z-64" value="" style="endArrow=none;html=1;rounded=0;entryX=0;entryY=0.5;entryDx=0;entryDy=0;exitX=0.5;exitY=0.5;exitDx=0;exitDy=0;exitPerimeter=0;" edge="1" parent="0sbqnc-3tho7-nZxA60z-1" source="0sbqnc-3tho7-nZxA60z-63" target="0sbqnc-3tho7-nZxA60z-32">
          <mxGeometry width="50" height="50" relative="1" as="geometry">
            <mxPoint x="84.25531914893622" y="3950" as="sourcePoint" />
            <mxPoint x="220" y="4390" as="targetPoint" />
          </mxGeometry>
        </mxCell>
        <mxCell id="0sbqnc-3tho7-nZxA60z-65" value="水耗分析" style="swimlane;startSize=28;" vertex="1" parent="0sbqnc-3tho7-nZxA60z-1">
          <mxGeometry x="161" y="4822" width="1349" height="888" as="geometry" />
        </mxCell>
        <mxCell id="0sbqnc-3tho7-nZxA60z-66" value="水耗总览" style="ellipse;whiteSpace=wrap;html=1;" vertex="1" parent="0sbqnc-3tho7-nZxA60z-65">
          <mxGeometry x="40" y="254" width="120" height="50" as="geometry" />
        </mxCell>
        <mxCell id="0sbqnc-3tho7-nZxA60z-67" value="查询今日/本月/本年耗水量" style="ellipse;whiteSpace=wrap;html=1;" vertex="1" parent="0sbqnc-3tho7-nZxA60z-65">
          <mxGeometry x="319" y="92" width="140" height="50" as="geometry" />
        </mxCell>
        <mxCell id="0sbqnc-3tho7-nZxA60z-68" value="" style="endArrow=classic;html=1;rounded=0;exitX=0.5;exitY=0;exitDx=0;exitDy=0;entryX=0;entryY=0.5;entryDx=0;entryDy=0;" edge="1" parent="0sbqnc-3tho7-nZxA60z-65" source="0sbqnc-3tho7-nZxA60z-66" target="0sbqnc-3tho7-nZxA60z-67">
          <mxGeometry width="50" height="50" relative="1" as="geometry">
            <mxPoint x="340" y="374" as="sourcePoint" />
            <mxPoint x="390" y="324" as="targetPoint" />
          </mxGeometry>
        </mxCell>
        <mxCell id="0sbqnc-3tho7-nZxA60z-69" value="&amp;lt;&amp;lt;include&amp;gt;&amp;gt;" style="edgeLabel;html=1;align=center;verticalAlign=middle;resizable=0;points=[];" vertex="1" connectable="0" parent="0sbqnc-3tho7-nZxA60z-68">
          <mxGeometry x="-0.2652" y="-1" relative="1" as="geometry">
            <mxPoint x="1" as="offset" />
          </mxGeometry>
        </mxCell>
        <mxCell id="0sbqnc-3tho7-nZxA60z-73" value="查看水表在线情况" style="ellipse;whiteSpace=wrap;html=1;" vertex="1" parent="0sbqnc-3tho7-nZxA60z-65">
          <mxGeometry x="329" y="182" width="140" height="50" as="geometry" />
        </mxCell>
        <mxCell id="0sbqnc-3tho7-nZxA60z-74" value="" style="endArrow=classic;html=1;rounded=0;exitX=1;exitY=0.5;exitDx=0;exitDy=0;entryX=0;entryY=0.5;entryDx=0;entryDy=0;" edge="1" parent="0sbqnc-3tho7-nZxA60z-65" source="0sbqnc-3tho7-nZxA60z-66" target="0sbqnc-3tho7-nZxA60z-73">
          <mxGeometry width="50" height="50" relative="1" as="geometry">
            <mxPoint x="250" y="119" as="sourcePoint" />
            <mxPoint x="320" y="159" as="targetPoint" />
          </mxGeometry>
        </mxCell>
        <mxCell id="0sbqnc-3tho7-nZxA60z-75" value="&amp;lt;&amp;lt;include&amp;gt;&amp;gt;" style="edgeLabel;html=1;align=center;verticalAlign=middle;resizable=0;points=[];" vertex="1" connectable="0" parent="0sbqnc-3tho7-nZxA60z-74">
          <mxGeometry x="0.2729" y="1" relative="1" as="geometry">
            <mxPoint as="offset" />
          </mxGeometry>
        </mxCell>
        <mxCell id="0sbqnc-3tho7-nZxA60z-76" value="查看当月水耗总用量费用" style="ellipse;whiteSpace=wrap;html=1;" vertex="1" parent="0sbqnc-3tho7-nZxA60z-65">
          <mxGeometry x="329" y="254" width="140" height="50" as="geometry" />
        </mxCell>
        <mxCell id="0sbqnc-3tho7-nZxA60z-77" value="" style="endArrow=classic;html=1;rounded=0;exitX=0.6;exitY=0.98;exitDx=0;exitDy=0;entryX=0;entryY=0.5;entryDx=0;entryDy=0;exitPerimeter=0;" edge="1" parent="0sbqnc-3tho7-nZxA60z-65" source="0sbqnc-3tho7-nZxA60z-66" target="0sbqnc-3tho7-nZxA60z-76">
          <mxGeometry width="50" height="50" relative="1" as="geometry">
            <mxPoint x="223" y="140" as="sourcePoint" />
            <mxPoint x="310" y="239" as="targetPoint" />
          </mxGeometry>
        </mxCell>
        <mxCell id="0sbqnc-3tho7-nZxA60z-78" value="&amp;lt;&amp;lt;include&amp;gt;&amp;gt;" style="edgeLabel;html=1;align=center;verticalAlign=middle;resizable=0;points=[];" vertex="1" connectable="0" parent="0sbqnc-3tho7-nZxA60z-77">
          <mxGeometry x="0.3103" y="-1" relative="1" as="geometry">
            <mxPoint as="offset" />
          </mxGeometry>
        </mxCell>
        <mxCell id="0sbqnc-3tho7-nZxA60z-79" value="查询本月、上月水耗每日用量" style="ellipse;whiteSpace=wrap;html=1;" vertex="1" parent="0sbqnc-3tho7-nZxA60z-65">
          <mxGeometry x="339" y="342" width="120" height="50" as="geometry" />
        </mxCell>
        <mxCell id="0sbqnc-3tho7-nZxA60z-81" value="" style="endArrow=classic;html=1;rounded=0;exitX=0.5;exitY=1;exitDx=0;exitDy=0;entryX=0;entryY=0.5;entryDx=0;entryDy=0;" edge="1" parent="0sbqnc-3tho7-nZxA60z-65" source="0sbqnc-3tho7-nZxA60z-66" target="0sbqnc-3tho7-nZxA60z-79">
          <mxGeometry width="50" height="50" relative="1" as="geometry">
            <mxPoint x="182" y="253" as="sourcePoint" />
            <mxPoint x="320" y="339" as="targetPoint" />
          </mxGeometry>
        </mxCell>
        <mxCell id="0sbqnc-3tho7-nZxA60z-82" value="&amp;lt;&amp;lt;include&amp;gt;&amp;gt;" style="edgeLabel;html=1;align=center;verticalAlign=middle;resizable=0;points=[];" vertex="1" connectable="0" parent="0sbqnc-3tho7-nZxA60z-81">
          <mxGeometry x="0.3103" y="-1" relative="1" as="geometry">
            <mxPoint as="offset" />
          </mxGeometry>
        </mxCell>
        <mxCell id="0sbqnc-3tho7-nZxA60z-88" value="按表分析用水量" style="ellipse;whiteSpace=wrap;html=1;" vertex="1" parent="0sbqnc-3tho7-nZxA60z-65">
          <mxGeometry x="295" y="528" width="120" height="50" as="geometry" />
        </mxCell>
        <mxCell id="0sbqnc-3tho7-nZxA60z-89" value="按分类查询日/月/年/自定义时间用水量" style="ellipse;whiteSpace=wrap;html=1;" vertex="1" parent="0sbqnc-3tho7-nZxA60z-65">
          <mxGeometry x="600" y="455" width="170" height="50" as="geometry" />
        </mxCell>
        <mxCell id="0sbqnc-3tho7-nZxA60z-90" value="分析用水量" style="ellipse;whiteSpace=wrap;html=1;" vertex="1" parent="0sbqnc-3tho7-nZxA60z-65">
          <mxGeometry x="50" y="655" width="120" height="50" as="geometry" />
        </mxCell>
        <mxCell id="0sbqnc-3tho7-nZxA60z-91" value="按工段分析用水量" style="ellipse;whiteSpace=wrap;html=1;" vertex="1" parent="0sbqnc-3tho7-nZxA60z-65">
          <mxGeometry x="300" y="623" width="120" height="50" as="geometry" />
        </mxCell>
        <mxCell id="0sbqnc-3tho7-nZxA60z-92" value="按位置分析用水量" style="ellipse;whiteSpace=wrap;html=1;" vertex="1" parent="0sbqnc-3tho7-nZxA60z-65">
          <mxGeometry x="300" y="733" width="120" height="50" as="geometry" />
        </mxCell>
        <mxCell id="0sbqnc-3tho7-nZxA60z-93" value="" style="endArrow=classic;html=1;rounded=0;exitX=0.933;exitY=0.2;exitDx=0;exitDy=0;exitPerimeter=0;entryX=0;entryY=0.5;entryDx=0;entryDy=0;" edge="1" parent="0sbqnc-3tho7-nZxA60z-65" source="0sbqnc-3tho7-nZxA60z-90" target="0sbqnc-3tho7-nZxA60z-88">
          <mxGeometry width="50" height="50" relative="1" as="geometry">
            <mxPoint x="67.57359312880703" y="197.67766952966304" as="sourcePoint" />
            <mxPoint x="355.5968629764518" y="467.16116663180765" as="targetPoint" />
          </mxGeometry>
        </mxCell>
        <mxCell id="0sbqnc-3tho7-nZxA60z-94" value="&amp;lt;&amp;lt;include&amp;gt;&amp;gt;" style="edgeLabel;html=1;align=center;verticalAlign=middle;resizable=0;points=[];" vertex="1" connectable="0" parent="0sbqnc-3tho7-nZxA60z-93">
          <mxGeometry x="0.3103" y="-1" relative="1" as="geometry">
            <mxPoint as="offset" />
          </mxGeometry>
        </mxCell>
        <mxCell id="0sbqnc-3tho7-nZxA60z-95" value="" style="endArrow=classic;html=1;rounded=0;exitX=1;exitY=1;exitDx=0;exitDy=0;entryX=0;entryY=0.5;entryDx=0;entryDy=0;" edge="1" parent="0sbqnc-3tho7-nZxA60z-65" source="0sbqnc-3tho7-nZxA60z-90" target="0sbqnc-3tho7-nZxA60z-92">
          <mxGeometry width="50" height="50" relative="1" as="geometry">
            <mxPoint x="181.96000000000004" y="685" as="sourcePoint" />
            <mxPoint x="310" y="680" as="targetPoint" />
          </mxGeometry>
        </mxCell>
        <mxCell id="0sbqnc-3tho7-nZxA60z-96" value="&amp;lt;&amp;lt;include&amp;gt;&amp;gt;" style="edgeLabel;html=1;align=center;verticalAlign=middle;resizable=0;points=[];" vertex="1" connectable="0" parent="0sbqnc-3tho7-nZxA60z-95">
          <mxGeometry x="0.3103" y="-1" relative="1" as="geometry">
            <mxPoint as="offset" />
          </mxGeometry>
        </mxCell>
        <mxCell id="0sbqnc-3tho7-nZxA60z-97" value="按表查询日/月/年/自定义时间&lt;br&gt;用水量" style="ellipse;whiteSpace=wrap;html=1;" vertex="1" parent="0sbqnc-3tho7-nZxA60z-65">
          <mxGeometry x="610" y="545" width="180" height="50" as="geometry" />
        </mxCell>
        <mxCell id="0sbqnc-3tho7-nZxA60z-98" value="" style="endArrow=classic;html=1;rounded=0;entryX=0;entryY=0.5;entryDx=0;entryDy=0;" edge="1" parent="0sbqnc-3tho7-nZxA60z-65" source="0sbqnc-3tho7-nZxA60z-88" target="0sbqnc-3tho7-nZxA60z-89">
          <mxGeometry width="50" height="50" relative="1" as="geometry">
            <mxPoint x="450" y="525" as="sourcePoint" />
            <mxPoint x="588.04" y="440" as="targetPoint" />
          </mxGeometry>
        </mxCell>
        <mxCell id="0sbqnc-3tho7-nZxA60z-99" value="&amp;lt;&amp;lt;include&amp;gt;&amp;gt;" style="edgeLabel;html=1;align=center;verticalAlign=middle;resizable=0;points=[];" vertex="1" connectable="0" parent="0sbqnc-3tho7-nZxA60z-98">
          <mxGeometry x="0.3103" y="-1" relative="1" as="geometry">
            <mxPoint as="offset" />
          </mxGeometry>
        </mxCell>
        <mxCell id="0sbqnc-3tho7-nZxA60z-100" value="按工段查询日/月/年/自定义时间&lt;br&gt;用水量" style="ellipse;whiteSpace=wrap;html=1;" vertex="1" parent="0sbqnc-3tho7-nZxA60z-65">
          <mxGeometry x="590" y="613" width="190" height="50" as="geometry" />
        </mxCell>
        <mxCell id="0sbqnc-3tho7-nZxA60z-101" value="" style="endArrow=classic;html=1;rounded=0;exitX=0.975;exitY=0.68;exitDx=0;exitDy=0;exitPerimeter=0;entryX=0;entryY=0.5;entryDx=0;entryDy=0;" edge="1" parent="0sbqnc-3tho7-nZxA60z-65" source="0sbqnc-3tho7-nZxA60z-91" target="0sbqnc-3tho7-nZxA60z-100">
          <mxGeometry width="50" height="50" relative="1" as="geometry">
            <mxPoint x="424.28172872013965" y="583.1307700113757" as="sourcePoint" />
            <mxPoint x="620.0351404844573" y="580.7920550133831" as="targetPoint" />
          </mxGeometry>
        </mxCell>
        <mxCell id="0sbqnc-3tho7-nZxA60z-102" value="&amp;lt;&amp;lt;include&amp;gt;&amp;gt;" style="edgeLabel;html=1;align=center;verticalAlign=middle;resizable=0;points=[];" vertex="1" connectable="0" parent="0sbqnc-3tho7-nZxA60z-101">
          <mxGeometry x="0.3103" y="-1" relative="1" as="geometry">
            <mxPoint as="offset" />
          </mxGeometry>
        </mxCell>
        <mxCell id="0sbqnc-3tho7-nZxA60z-103" value="按位置查询日/月/年/自定义时间&lt;br&gt;用水量" style="ellipse;whiteSpace=wrap;html=1;" vertex="1" parent="0sbqnc-3tho7-nZxA60z-65">
          <mxGeometry x="570" y="735" width="200" height="50" as="geometry" />
        </mxCell>
        <mxCell id="0sbqnc-3tho7-nZxA60z-104" value="" style="endArrow=classic;html=1;rounded=0;exitX=1;exitY=0.5;exitDx=0;exitDy=0;entryX=0;entryY=0.5;entryDx=0;entryDy=0;" edge="1" parent="0sbqnc-3tho7-nZxA60z-65" source="0sbqnc-3tho7-nZxA60z-92" target="0sbqnc-3tho7-nZxA60z-103">
          <mxGeometry width="50" height="50" relative="1" as="geometry">
            <mxPoint x="427" y="689" as="sourcePoint" />
            <mxPoint x="600" y="680" as="targetPoint" />
          </mxGeometry>
        </mxCell>
        <mxCell id="0sbqnc-3tho7-nZxA60z-105" value="&amp;lt;&amp;lt;include&amp;gt;&amp;gt;" style="edgeLabel;html=1;align=center;verticalAlign=middle;resizable=0;points=[];" vertex="1" connectable="0" parent="0sbqnc-3tho7-nZxA60z-104">
          <mxGeometry x="0.3103" y="-1" relative="1" as="geometry">
            <mxPoint as="offset" />
          </mxGeometry>
        </mxCell>
        <mxCell id="0sbqnc-3tho7-nZxA60z-106" value="查询水表位置节点环比用水曲线图" style="ellipse;whiteSpace=wrap;html=1;" vertex="1" parent="0sbqnc-3tho7-nZxA60z-65">
          <mxGeometry x="1009" y="533" width="180" height="48" as="geometry" />
        </mxCell>
        <mxCell id="0sbqnc-3tho7-nZxA60z-107" value="" style="endArrow=classic;html=1;rounded=0;exitX=1;exitY=0.5;exitDx=0;exitDy=0;" edge="1" parent="0sbqnc-3tho7-nZxA60z-65" source="0sbqnc-3tho7-nZxA60z-97" target="0sbqnc-3tho7-nZxA60z-106">
          <mxGeometry width="50" height="50" relative="1" as="geometry">
            <mxPoint x="423.28172872013965" y="581.1307700113757" as="sourcePoint" />
            <mxPoint x="620.0071290858405" y="580.3146603878122" as="targetPoint" />
          </mxGeometry>
        </mxCell>
        <mxCell id="0sbqnc-3tho7-nZxA60z-108" value="&amp;lt;&amp;lt;include&amp;gt;&amp;gt;" style="edgeLabel;html=1;align=center;verticalAlign=middle;resizable=0;points=[];" vertex="1" connectable="0" parent="0sbqnc-3tho7-nZxA60z-107">
          <mxGeometry x="0.3103" y="-1" relative="1" as="geometry">
            <mxPoint as="offset" />
          </mxGeometry>
        </mxCell>
        <mxCell id="0sbqnc-3tho7-nZxA60z-109" value="查询水表位置当前节点与子节点用水情况&amp;nbsp;" style="ellipse;whiteSpace=wrap;html=1;" vertex="1" parent="0sbqnc-3tho7-nZxA60z-65">
          <mxGeometry x="999" y="705" width="180" height="52" as="geometry" />
        </mxCell>
        <mxCell id="0sbqnc-3tho7-nZxA60z-110" value="" style="endArrow=classic;html=1;rounded=0;" edge="1" parent="0sbqnc-3tho7-nZxA60z-65" source="0sbqnc-3tho7-nZxA60z-97" target="0sbqnc-3tho7-nZxA60z-109">
          <mxGeometry width="50" height="50" relative="1" as="geometry">
            <mxPoint x="800" y="580" as="sourcePoint" />
            <mxPoint x="972.8923077475088" y="565.9817047772294" as="targetPoint" />
          </mxGeometry>
        </mxCell>
        <mxCell id="0sbqnc-3tho7-nZxA60z-111" value="&amp;lt;&amp;lt;include&amp;gt;&amp;gt;" style="edgeLabel;html=1;align=center;verticalAlign=middle;resizable=0;points=[];" vertex="1" connectable="0" parent="0sbqnc-3tho7-nZxA60z-110">
          <mxGeometry x="0.3103" y="-1" relative="1" as="geometry">
            <mxPoint as="offset" />
          </mxGeometry>
        </mxCell>
        <mxCell id="0sbqnc-3tho7-nZxA60z-112" value="" style="endArrow=classic;html=1;rounded=0;exitX=1;exitY=0.5;exitDx=0;exitDy=0;entryX=0;entryY=1;entryDx=0;entryDy=0;" edge="1" parent="0sbqnc-3tho7-nZxA60z-65" source="0sbqnc-3tho7-nZxA60z-100" target="0sbqnc-3tho7-nZxA60z-106">
          <mxGeometry width="50" height="50" relative="1" as="geometry">
            <mxPoint x="800" y="580" as="sourcePoint" />
            <mxPoint x="972.8923077475088" y="565.9817047772294" as="targetPoint" />
          </mxGeometry>
        </mxCell>
        <mxCell id="0sbqnc-3tho7-nZxA60z-113" value="&amp;lt;&amp;lt;include&amp;gt;&amp;gt;" style="edgeLabel;html=1;align=center;verticalAlign=middle;resizable=0;points=[];" vertex="1" connectable="0" parent="0sbqnc-3tho7-nZxA60z-112">
          <mxGeometry x="0.3103" y="-1" relative="1" as="geometry">
            <mxPoint as="offset" />
          </mxGeometry>
        </mxCell>
        <mxCell id="0sbqnc-3tho7-nZxA60z-114" value="" style="endArrow=classic;html=1;rounded=0;entryX=0;entryY=0.5;entryDx=0;entryDy=0;" edge="1" parent="0sbqnc-3tho7-nZxA60z-65" source="0sbqnc-3tho7-nZxA60z-100" target="0sbqnc-3tho7-nZxA60z-109">
          <mxGeometry width="50" height="50" relative="1" as="geometry">
            <mxPoint x="790" y="680" as="sourcePoint" />
            <mxPoint x="995.3603896932109" y="575.9705627484773" as="targetPoint" />
          </mxGeometry>
        </mxCell>
        <mxCell id="0sbqnc-3tho7-nZxA60z-115" value="&amp;lt;&amp;lt;include&amp;gt;&amp;gt;" style="edgeLabel;html=1;align=center;verticalAlign=middle;resizable=0;points=[];" vertex="1" connectable="0" parent="0sbqnc-3tho7-nZxA60z-114">
          <mxGeometry x="0.3103" y="-1" relative="1" as="geometry">
            <mxPoint as="offset" />
          </mxGeometry>
        </mxCell>
        <mxCell id="0sbqnc-3tho7-nZxA60z-116" value="按工段查询日/月/年/自定义时间&lt;br&gt;用水量占比饼图" style="ellipse;whiteSpace=wrap;html=1;" vertex="1" parent="0sbqnc-3tho7-nZxA60z-65">
          <mxGeometry x="580" y="663" width="190" height="50" as="geometry" />
        </mxCell>
        <mxCell id="0sbqnc-3tho7-nZxA60z-117" value="" style="endArrow=classic;html=1;rounded=0;exitX=1;exitY=1;exitDx=0;exitDy=0;" edge="1" parent="0sbqnc-3tho7-nZxA60z-65" source="0sbqnc-3tho7-nZxA60z-91" target="0sbqnc-3tho7-nZxA60z-116">
          <mxGeometry width="50" height="50" relative="1" as="geometry">
            <mxPoint x="427" y="689" as="sourcePoint" />
            <mxPoint x="600" y="648" as="targetPoint" />
          </mxGeometry>
        </mxCell>
        <mxCell id="0sbqnc-3tho7-nZxA60z-118" value="&amp;lt;&amp;lt;include&amp;gt;&amp;gt;" style="edgeLabel;html=1;align=center;verticalAlign=middle;resizable=0;points=[];" vertex="1" connectable="0" parent="0sbqnc-3tho7-nZxA60z-117">
          <mxGeometry x="0.3103" y="-1" relative="1" as="geometry">
            <mxPoint as="offset" />
          </mxGeometry>
        </mxCell>
        <mxCell id="0sbqnc-3tho7-nZxA60z-119" value="按位置查询日/月/年/自定义时间&lt;br&gt;用水量占比饼图" style="ellipse;whiteSpace=wrap;html=1;" vertex="1" parent="0sbqnc-3tho7-nZxA60z-65">
          <mxGeometry x="590" y="803" width="190" height="50" as="geometry" />
        </mxCell>
        <mxCell id="0sbqnc-3tho7-nZxA60z-120" value="" style="endArrow=classic;html=1;rounded=0;" edge="1" parent="0sbqnc-3tho7-nZxA60z-65" source="0sbqnc-3tho7-nZxA60z-92" target="0sbqnc-3tho7-nZxA60z-119">
          <mxGeometry width="50" height="50" relative="1" as="geometry">
            <mxPoint x="430" y="760" as="sourcePoint" />
            <mxPoint x="580" y="770" as="targetPoint" />
          </mxGeometry>
        </mxCell>
        <mxCell id="0sbqnc-3tho7-nZxA60z-121" value="&amp;lt;&amp;lt;include&amp;gt;&amp;gt;" style="edgeLabel;html=1;align=center;verticalAlign=middle;resizable=0;points=[];" vertex="1" connectable="0" parent="0sbqnc-3tho7-nZxA60z-120">
          <mxGeometry x="0.3103" y="-1" relative="1" as="geometry">
            <mxPoint as="offset" />
          </mxGeometry>
        </mxCell>
        <mxCell id="0sbqnc-3tho7-nZxA60z-122" value="" style="endArrow=classic;html=1;rounded=0;exitX=1;exitY=0;exitDx=0;exitDy=0;" edge="1" parent="0sbqnc-3tho7-nZxA60z-65" source="0sbqnc-3tho7-nZxA60z-103" target="0sbqnc-3tho7-nZxA60z-106">
          <mxGeometry width="50" height="50" relative="1" as="geometry">
            <mxPoint x="800" y="580" as="sourcePoint" />
            <mxPoint x="972.8923077475088" y="565.9817047772294" as="targetPoint" />
          </mxGeometry>
        </mxCell>
        <mxCell id="0sbqnc-3tho7-nZxA60z-123" value="&amp;lt;&amp;lt;include&amp;gt;&amp;gt;" style="edgeLabel;html=1;align=center;verticalAlign=middle;resizable=0;points=[];" vertex="1" connectable="0" parent="0sbqnc-3tho7-nZxA60z-122">
          <mxGeometry x="0.3103" y="-1" relative="1" as="geometry">
            <mxPoint as="offset" />
          </mxGeometry>
        </mxCell>
        <mxCell id="0sbqnc-3tho7-nZxA60z-124" value="" style="endArrow=classic;html=1;rounded=0;exitX=1;exitY=0.5;exitDx=0;exitDy=0;entryX=0.222;entryY=0.923;entryDx=0;entryDy=0;entryPerimeter=0;" edge="1" parent="0sbqnc-3tho7-nZxA60z-65" source="0sbqnc-3tho7-nZxA60z-103" target="0sbqnc-3tho7-nZxA60z-109">
          <mxGeometry width="50" height="50" relative="1" as="geometry">
            <mxPoint x="750.7106781186549" y="752.322330470336" as="sourcePoint" />
            <mxPoint x="1067.728010514401" y="588.3277040637877" as="targetPoint" />
          </mxGeometry>
        </mxCell>
        <mxCell id="0sbqnc-3tho7-nZxA60z-125" value="&amp;lt;&amp;lt;include&amp;gt;&amp;gt;" style="edgeLabel;html=1;align=center;verticalAlign=middle;resizable=0;points=[];" vertex="1" connectable="0" parent="0sbqnc-3tho7-nZxA60z-124">
          <mxGeometry x="0.3103" y="-1" relative="1" as="geometry">
            <mxPoint as="offset" />
          </mxGeometry>
        </mxCell>
        <mxCell id="0sbqnc-3tho7-nZxA60z-138" value="管理员" style="shape=umlActor;verticalLabelPosition=bottom;verticalAlign=top;html=1;outlineConnect=0;" vertex="1" parent="0sbqnc-3tho7-nZxA60z-1">
          <mxGeometry x="30" y="5225" width="30" height="60" as="geometry" />
        </mxCell>
        <mxCell id="0sbqnc-3tho7-nZxA60z-139" value="" style="endArrow=none;html=1;rounded=0;entryX=0;entryY=0.5;entryDx=0;entryDy=0;" edge="1" parent="0sbqnc-3tho7-nZxA60z-1" source="0sbqnc-3tho7-nZxA60z-138" target="0sbqnc-3tho7-nZxA60z-66">
          <mxGeometry width="50" height="50" relative="1" as="geometry">
            <mxPoint x="500" y="5075" as="sourcePoint" />
            <mxPoint x="550" y="5025" as="targetPoint" />
          </mxGeometry>
        </mxCell>
        <mxCell id="0sbqnc-3tho7-nZxA60z-140" value="" style="endArrow=none;html=1;rounded=0;entryX=0;entryY=0.5;entryDx=0;entryDy=0;" edge="1" parent="0sbqnc-3tho7-nZxA60z-1" source="0sbqnc-3tho7-nZxA60z-138" target="0sbqnc-3tho7-nZxA60z-90">
          <mxGeometry width="50" height="50" relative="1" as="geometry">
            <mxPoint x="70" y="5239.354838709677" as="sourcePoint" />
            <mxPoint x="210" y="5000" as="targetPoint" />
          </mxGeometry>
        </mxCell>
        <mxCell id="0sbqnc-3tho7-nZxA60z-141" value="" style="endArrow=classic;html=1;rounded=0;exitX=0.933;exitY=0.2;exitDx=0;exitDy=0;exitPerimeter=0;entryX=0;entryY=0.5;entryDx=0;entryDy=0;" edge="1" parent="0sbqnc-3tho7-nZxA60z-1" target="0sbqnc-3tho7-nZxA60z-91">
          <mxGeometry width="50" height="50" relative="1" as="geometry">
            <mxPoint x="331.96000000000004" y="5495" as="sourcePoint" />
            <mxPoint x="470" y="5410" as="targetPoint" />
          </mxGeometry>
        </mxCell>
        <mxCell id="0sbqnc-3tho7-nZxA60z-142" value="&amp;lt;&amp;lt;include&amp;gt;&amp;gt;" style="edgeLabel;html=1;align=center;verticalAlign=middle;resizable=0;points=[];" vertex="1" connectable="0" parent="0sbqnc-3tho7-nZxA60z-141">
          <mxGeometry x="0.3103" y="-1" relative="1" as="geometry">
            <mxPoint as="offset" />
          </mxGeometry>
        </mxCell>
        <mxCell id="0sbqnc-3tho7-nZxA60z-143" value="" style="endArrow=classic;html=1;rounded=0;" edge="1" parent="0sbqnc-3tho7-nZxA60z-1" target="0sbqnc-3tho7-nZxA60z-97">
          <mxGeometry width="50" height="50" relative="1" as="geometry">
            <mxPoint x="574.2817287201397" y="5393.130770011376" as="sourcePoint" />
            <mxPoint x="740" y="5330" as="targetPoint" />
          </mxGeometry>
        </mxCell>
        <mxCell id="0sbqnc-3tho7-nZxA60z-144" value="&amp;lt;&amp;lt;include&amp;gt;&amp;gt;" style="edgeLabel;html=1;align=center;verticalAlign=middle;resizable=0;points=[];" vertex="1" connectable="0" parent="0sbqnc-3tho7-nZxA60z-143">
          <mxGeometry x="0.3103" y="-1" relative="1" as="geometry">
            <mxPoint as="offset" />
          </mxGeometry>
        </mxCell>
        <mxCell id="0sbqnc-3tho7-nZxA60z-145" value="" style="endArrow=none;html=1;rounded=0;entryX=0;entryY=0.5;entryDx=0;entryDy=0;" edge="1" parent="0sbqnc-3tho7-nZxA60z-1" source="0sbqnc-3tho7-nZxA60z-63" target="0sbqnc-3tho7-nZxA60z-10">
          <mxGeometry width="50" height="50" relative="1" as="geometry">
            <mxPoint x="84.7590361445782" y="3950" as="sourcePoint" />
            <mxPoint x="210" y="4335" as="targetPoint" />
          </mxGeometry>
        </mxCell>
        <mxCell id="0sbqnc-3tho7-nZxA60z-146" value="管理员" style="shape=umlActor;verticalLabelPosition=bottom;verticalAlign=top;html=1;outlineConnect=0;" vertex="1" parent="0sbqnc-3tho7-nZxA60z-1">
          <mxGeometry x="130" y="2120" width="30" height="60" as="geometry" />
        </mxCell>
        <mxCell id="0sbqnc-3tho7-nZxA60z-147" value="水表模块" style="swimlane;" vertex="1" parent="0sbqnc-3tho7-nZxA60z-1">
          <mxGeometry x="209" y="1920" width="550" height="430" as="geometry" />
        </mxCell>
        <mxCell id="0sbqnc-3tho7-nZxA60z-148" value="水表位置管理" style="ellipse;whiteSpace=wrap;html=1;" vertex="1" parent="0sbqnc-3tho7-nZxA60z-147">
          <mxGeometry x="140" y="110" width="117" height="50" as="geometry" />
        </mxCell>
        <mxCell id="0sbqnc-3tho7-nZxA60z-152" value="水能耗管理" style="ellipse;whiteSpace=wrap;html=1;" vertex="1" parent="0sbqnc-3tho7-nZxA60z-147">
          <mxGeometry x="146" y="190" width="117" height="50" as="geometry" />
        </mxCell>
        <mxCell id="0sbqnc-3tho7-nZxA60z-153" value="水能耗分析" style="ellipse;whiteSpace=wrap;html=1;" vertex="1" parent="0sbqnc-3tho7-nZxA60z-147">
          <mxGeometry x="146" y="260" width="117" height="50" as="geometry" />
        </mxCell>
        <mxCell id="0sbqnc-3tho7-nZxA60z-154" value="定时同步工业系统水表数据" style="ellipse;whiteSpace=wrap;html=1;" vertex="1" parent="0sbqnc-3tho7-nZxA60z-147">
          <mxGeometry x="341" y="210" width="157" height="50" as="geometry" />
        </mxCell>
        <mxCell id="0sbqnc-3tho7-nZxA60z-155" value="" style="endArrow=none;html=1;rounded=0;exitX=0.5;exitY=0.5;exitDx=0;exitDy=0;exitPerimeter=0;entryX=0;entryY=0.5;entryDx=0;entryDy=0;" edge="1" parent="0sbqnc-3tho7-nZxA60z-1" source="0sbqnc-3tho7-nZxA60z-146" target="0sbqnc-3tho7-nZxA60z-148">
          <mxGeometry width="50" height="50" relative="1" as="geometry">
            <mxPoint x="470" y="2230" as="sourcePoint" />
            <mxPoint x="520" y="2180" as="targetPoint" />
          </mxGeometry>
        </mxCell>
        <mxCell id="0sbqnc-3tho7-nZxA60z-159" value="" style="endArrow=none;html=1;rounded=0;entryX=0;entryY=0.5;entryDx=0;entryDy=0;exitX=0.5;exitY=0.5;exitDx=0;exitDy=0;exitPerimeter=0;" edge="1" parent="0sbqnc-3tho7-nZxA60z-1" target="0sbqnc-3tho7-nZxA60z-152" source="0sbqnc-3tho7-nZxA60z-146">
          <mxGeometry width="50" height="50" relative="1" as="geometry">
            <mxPoint x="150" y="2290" as="sourcePoint" />
            <mxPoint x="350" y="2325" as="targetPoint" />
          </mxGeometry>
        </mxCell>
        <mxCell id="0sbqnc-3tho7-nZxA60z-160" value="" style="endArrow=none;html=1;rounded=0;entryX=0;entryY=0.5;entryDx=0;entryDy=0;exitX=0.5;exitY=0.5;exitDx=0;exitDy=0;exitPerimeter=0;" edge="1" parent="0sbqnc-3tho7-nZxA60z-1" source="0sbqnc-3tho7-nZxA60z-146" target="0sbqnc-3tho7-nZxA60z-153">
          <mxGeometry width="50" height="50" relative="1" as="geometry">
            <mxPoint x="160" y="2300" as="sourcePoint" />
            <mxPoint x="350" y="2405" as="targetPoint" />
          </mxGeometry>
        </mxCell>
        <mxCell id="0sbqnc-3tho7-nZxA60z-161" value="水表位置管理" style="swimlane;" vertex="1" parent="0sbqnc-3tho7-nZxA60z-1">
          <mxGeometry x="200" y="2560" width="510" height="530" as="geometry" />
        </mxCell>
        <mxCell id="0sbqnc-3tho7-nZxA60z-162" value="新增水表位置" style="ellipse;whiteSpace=wrap;html=1;" vertex="1" parent="0sbqnc-3tho7-nZxA60z-161">
          <mxGeometry x="130" y="100" width="117" height="50" as="geometry" />
        </mxCell>
        <mxCell id="0sbqnc-3tho7-nZxA60z-163" value="修改水表位置" style="ellipse;whiteSpace=wrap;html=1;" vertex="1" parent="0sbqnc-3tho7-nZxA60z-161">
          <mxGeometry x="130" y="160" width="117" height="50" as="geometry" />
        </mxCell>
        <mxCell id="0sbqnc-3tho7-nZxA60z-164" value="删除水表位置" style="ellipse;whiteSpace=wrap;html=1;" vertex="1" parent="0sbqnc-3tho7-nZxA60z-161">
          <mxGeometry x="130" y="230" width="117" height="50" as="geometry" />
        </mxCell>
        <mxCell id="0sbqnc-3tho7-nZxA60z-165" value="查询水表位置详情" style="ellipse;whiteSpace=wrap;html=1;" vertex="1" parent="0sbqnc-3tho7-nZxA60z-161">
          <mxGeometry x="130" y="290" width="117" height="50" as="geometry" />
        </mxCell>
        <mxCell id="0sbqnc-3tho7-nZxA60z-166" value="查询水表位置树结构" style="ellipse;whiteSpace=wrap;html=1;" vertex="1" parent="0sbqnc-3tho7-nZxA60z-161">
          <mxGeometry x="135" y="360" width="117" height="50" as="geometry" />
        </mxCell>
        <mxCell id="0sbqnc-3tho7-nZxA60z-168" value="查询水表位置本级下级列表" style="ellipse;whiteSpace=wrap;html=1;" vertex="1" parent="0sbqnc-3tho7-nZxA60z-161">
          <mxGeometry x="135" y="439" width="117" height="50" as="geometry" />
        </mxCell>
        <mxCell id="0sbqnc-3tho7-nZxA60z-173" value="管理员" style="shape=umlActor;verticalLabelPosition=bottom;verticalAlign=top;html=1;outlineConnect=0;" vertex="1" parent="0sbqnc-3tho7-nZxA60z-1">
          <mxGeometry x="90" y="2810" width="30" height="60" as="geometry" />
        </mxCell>
        <mxCell id="0sbqnc-3tho7-nZxA60z-174" value="" style="endArrow=none;html=1;rounded=0;exitX=0.5;exitY=0.5;exitDx=0;exitDy=0;exitPerimeter=0;entryX=0;entryY=0.5;entryDx=0;entryDy=0;" edge="1" parent="0sbqnc-3tho7-nZxA60z-1" source="0sbqnc-3tho7-nZxA60z-173" target="0sbqnc-3tho7-nZxA60z-162">
          <mxGeometry width="50" height="50" relative="1" as="geometry">
            <mxPoint x="220" y="2810" as="sourcePoint" />
            <mxPoint x="270" y="2760" as="targetPoint" />
          </mxGeometry>
        </mxCell>
        <mxCell id="0sbqnc-3tho7-nZxA60z-175" value="" style="endArrow=none;html=1;rounded=0;exitX=0.5;exitY=0.5;exitDx=0;exitDy=0;exitPerimeter=0;entryX=0;entryY=0.5;entryDx=0;entryDy=0;" edge="1" parent="0sbqnc-3tho7-nZxA60z-1" source="0sbqnc-3tho7-nZxA60z-173" target="0sbqnc-3tho7-nZxA60z-163">
          <mxGeometry width="50" height="50" relative="1" as="geometry">
            <mxPoint x="175" y="2820" as="sourcePoint" />
            <mxPoint x="340" y="2695" as="targetPoint" />
          </mxGeometry>
        </mxCell>
        <mxCell id="0sbqnc-3tho7-nZxA60z-176" value="" style="endArrow=none;html=1;rounded=0;exitX=0.5;exitY=0.5;exitDx=0;exitDy=0;exitPerimeter=0;entryX=0;entryY=0.5;entryDx=0;entryDy=0;" edge="1" parent="0sbqnc-3tho7-nZxA60z-1" source="0sbqnc-3tho7-nZxA60z-173" target="0sbqnc-3tho7-nZxA60z-164">
          <mxGeometry width="50" height="50" relative="1" as="geometry">
            <mxPoint x="175" y="2820" as="sourcePoint" />
            <mxPoint x="340" y="2755" as="targetPoint" />
          </mxGeometry>
        </mxCell>
        <mxCell id="0sbqnc-3tho7-nZxA60z-177" value="系统" style="shape=umlActor;verticalLabelPosition=bottom;verticalAlign=top;html=1;outlineConnect=0;" vertex="1" parent="0sbqnc-3tho7-nZxA60z-1">
          <mxGeometry x="827" y="2130" width="30" height="60" as="geometry" />
        </mxCell>
        <mxCell id="0sbqnc-3tho7-nZxA60z-178" value="" style="endArrow=none;html=1;rounded=0;exitX=1;exitY=0.5;exitDx=0;exitDy=0;entryX=0.5;entryY=0.5;entryDx=0;entryDy=0;entryPerimeter=0;" edge="1" parent="0sbqnc-3tho7-nZxA60z-1" source="0sbqnc-3tho7-nZxA60z-154" target="0sbqnc-3tho7-nZxA60z-177">
          <mxGeometry width="50" height="50" relative="1" as="geometry">
            <mxPoint x="690" y="2290" as="sourcePoint" />
            <mxPoint x="885" y="2240" as="targetPoint" />
          </mxGeometry>
        </mxCell>
        <mxCell id="0sbqnc-3tho7-nZxA60z-179" value="" style="endArrow=none;html=1;rounded=0;exitX=0.5;exitY=0.5;exitDx=0;exitDy=0;exitPerimeter=0;entryX=0;entryY=0.5;entryDx=0;entryDy=0;" edge="1" parent="0sbqnc-3tho7-nZxA60z-1" source="0sbqnc-3tho7-nZxA60z-173" target="0sbqnc-3tho7-nZxA60z-165">
          <mxGeometry width="50" height="50" relative="1" as="geometry">
            <mxPoint x="175" y="2820" as="sourcePoint" />
            <mxPoint x="340" y="2825" as="targetPoint" />
          </mxGeometry>
        </mxCell>
        <mxCell id="0sbqnc-3tho7-nZxA60z-180" value="" style="endArrow=none;html=1;rounded=0;exitX=0.5;exitY=0.5;exitDx=0;exitDy=0;exitPerimeter=0;entryX=0;entryY=0.5;entryDx=0;entryDy=0;" edge="1" parent="0sbqnc-3tho7-nZxA60z-1" source="0sbqnc-3tho7-nZxA60z-173" target="0sbqnc-3tho7-nZxA60z-166">
          <mxGeometry width="50" height="50" relative="1" as="geometry">
            <mxPoint x="175" y="2820" as="sourcePoint" />
            <mxPoint x="340" y="2885" as="targetPoint" />
          </mxGeometry>
        </mxCell>
        <mxCell id="0sbqnc-3tho7-nZxA60z-182" value="" style="endArrow=none;html=1;rounded=0;entryX=0;entryY=0.5;entryDx=0;entryDy=0;exitX=0.5;exitY=0.5;exitDx=0;exitDy=0;exitPerimeter=0;" edge="1" parent="0sbqnc-3tho7-nZxA60z-1" source="0sbqnc-3tho7-nZxA60z-173" target="0sbqnc-3tho7-nZxA60z-168">
          <mxGeometry width="50" height="50" relative="1" as="geometry">
            <mxPoint x="170" y="2820" as="sourcePoint" />
            <mxPoint x="345" y="2955" as="targetPoint" />
          </mxGeometry>
        </mxCell>
      </root>
    </mxGraphModel>
  </diagram>
  <diagram name="表位置绑定" id="7IqMtTfGcPFhrHTu3ISo">
    <mxGraphModel dx="1662" dy="-1499" grid="1" gridSize="10" guides="1" tooltips="1" connect="1" arrows="1" fold="1" page="1" pageScale="1" pageWidth="827" pageHeight="1169" math="0" shadow="0">
      <root>
        <mxCell id="IBJ5CG6rCvjtTjF0KDm7-0" />
        <mxCell id="IBJ5CG6rCvjtTjF0KDm7-1" parent="IBJ5CG6rCvjtTjF0KDm7-0" />
        <mxCell id="IBJ5CG6rCvjtTjF0KDm7-155" value="表位置绑定" style="swimlane;" vertex="1" parent="IBJ5CG6rCvjtTjF0KDm7-1">
          <mxGeometry x="200" y="2560" width="340" height="300" as="geometry" />
        </mxCell>
        <mxCell id="IBJ5CG6rCvjtTjF0KDm7-161" value="绑定水/电/气表" style="ellipse;whiteSpace=wrap;html=1;" vertex="1" parent="IBJ5CG6rCvjtTjF0KDm7-155">
          <mxGeometry x="97" y="70" width="117" height="50" as="geometry" />
        </mxCell>
        <mxCell id="IBJ5CG6rCvjtTjF0KDm7-166" value="查询历史绑定记录列表" style="ellipse;whiteSpace=wrap;html=1;" vertex="1" parent="IBJ5CG6rCvjtTjF0KDm7-155">
          <mxGeometry x="97" y="205" width="117" height="50" as="geometry" />
        </mxCell>
        <mxCell id="U_Y3Nz97NjrraxkMqlsK-0" value="查询绑定详情" style="ellipse;whiteSpace=wrap;html=1;" vertex="1" parent="IBJ5CG6rCvjtTjF0KDm7-155">
          <mxGeometry x="97" y="125" width="117" height="50" as="geometry" />
        </mxCell>
        <mxCell id="IBJ5CG6rCvjtTjF0KDm7-167" value="管理员" style="shape=umlActor;verticalLabelPosition=bottom;verticalAlign=top;html=1;outlineConnect=0;" vertex="1" parent="IBJ5CG6rCvjtTjF0KDm7-1">
          <mxGeometry x="130" y="2660" width="30" height="60" as="geometry" />
        </mxCell>
        <mxCell id="IBJ5CG6rCvjtTjF0KDm7-175" value="" style="endArrow=none;html=1;rounded=0;exitX=0.5;exitY=0.5;exitDx=0;exitDy=0;exitPerimeter=0;entryX=0;entryY=0.5;entryDx=0;entryDy=0;" edge="1" parent="IBJ5CG6rCvjtTjF0KDm7-1" source="IBJ5CG6rCvjtTjF0KDm7-167" target="IBJ5CG6rCvjtTjF0KDm7-161">
          <mxGeometry width="50" height="50" relative="1" as="geometry">
            <mxPoint x="175" y="2605" as="sourcePoint" />
            <mxPoint x="345" y="2740" as="targetPoint" />
          </mxGeometry>
        </mxCell>
        <mxCell id="IBJ5CG6rCvjtTjF0KDm7-180" value="" style="endArrow=none;html=1;rounded=0;entryX=0;entryY=0.5;entryDx=0;entryDy=0;exitX=0.5;exitY=0.5;exitDx=0;exitDy=0;exitPerimeter=0;" edge="1" parent="IBJ5CG6rCvjtTjF0KDm7-1" target="IBJ5CG6rCvjtTjF0KDm7-166" source="IBJ5CG6rCvjtTjF0KDm7-167">
          <mxGeometry width="50" height="50" relative="1" as="geometry">
            <mxPoint x="140" y="2795" as="sourcePoint" />
            <mxPoint x="340" y="2900" as="targetPoint" />
          </mxGeometry>
        </mxCell>
        <mxCell id="U_Y3Nz97NjrraxkMqlsK-1" value="" style="endArrow=none;html=1;rounded=0;exitX=0.5;exitY=0.5;exitDx=0;exitDy=0;exitPerimeter=0;" edge="1" parent="IBJ5CG6rCvjtTjF0KDm7-1" source="IBJ5CG6rCvjtTjF0KDm7-167" target="U_Y3Nz97NjrraxkMqlsK-0">
          <mxGeometry width="50" height="50" relative="1" as="geometry">
            <mxPoint x="155" y="2700" as="sourcePoint" />
            <mxPoint x="307" y="2665" as="targetPoint" />
          </mxGeometry>
        </mxCell>
      </root>
    </mxGraphModel>
  </diagram>
  <diagram id="BNwal0Ae7CXNK-h48oL7" name="外部成本管理系统">
    <mxGraphModel dx="835" dy="2008" grid="1" gridSize="10" guides="1" tooltips="1" connect="1" arrows="1" fold="1" page="1" pageScale="1" pageWidth="827" pageHeight="1169" math="0" shadow="0">
      <root>
        <mxCell id="ILwhH2VZoe1VF6maPX9_-0" />
        <mxCell id="ILwhH2VZoe1VF6maPX9_-1" parent="ILwhH2VZoe1VF6maPX9_-0" />
        <mxCell id="OEj-0Fk20FWF-JlBuVPm-3" value="成本模块系统" style="shape=umlActor;verticalLabelPosition=bottom;verticalAlign=top;html=1;outlineConnect=0;" vertex="1" parent="ILwhH2VZoe1VF6maPX9_-1">
          <mxGeometry x="910" y="360" width="30" height="60" as="geometry" />
        </mxCell>
        <mxCell id="OEj-0Fk20FWF-JlBuVPm-5" value="外部成本管理系统开放接口模块" style="swimlane;rounded=0;dashed=1;sketch=0;fillColor=none;spacingLeft=20;align=left;" vertex="1" parent="ILwhH2VZoe1VF6maPX9_-1">
          <mxGeometry x="1030" y="-10" width="400" height="720" as="geometry" />
        </mxCell>
        <mxCell id="OEj-0Fk20FWF-JlBuVPm-4" value="查询电表设备及分类关系列表" style="ellipse;whiteSpace=wrap;html=1;" vertex="1" parent="OEj-0Fk20FWF-JlBuVPm-5">
          <mxGeometry x="50" y="80" width="157" height="40" as="geometry" />
        </mxCell>
        <mxCell id="OEj-0Fk20FWF-JlBuVPm-7" value="电表能耗分析" style="ellipse;whiteSpace=wrap;html=1;" vertex="1" parent="OEj-0Fk20FWF-JlBuVPm-5">
          <mxGeometry x="50" y="150" width="157" height="40" as="geometry" />
        </mxCell>
        <mxCell id="OEj-0Fk20FWF-JlBuVPm-8" value="设备电表能耗分析" style="ellipse;whiteSpace=wrap;html=1;" vertex="1" parent="OEj-0Fk20FWF-JlBuVPm-5">
          <mxGeometry x="54" y="220" width="157" height="40" as="geometry" />
        </mxCell>
        <mxCell id="OEj-0Fk20FWF-JlBuVPm-15" value="查询水表设备及分类关系列表" style="ellipse;whiteSpace=wrap;html=1;" vertex="1" parent="OEj-0Fk20FWF-JlBuVPm-5">
          <mxGeometry x="54" y="300" width="157" height="40" as="geometry" />
        </mxCell>
        <mxCell id="OEj-0Fk20FWF-JlBuVPm-16" value="水表能耗分析" style="ellipse;whiteSpace=wrap;html=1;" vertex="1" parent="OEj-0Fk20FWF-JlBuVPm-5">
          <mxGeometry x="54" y="370" width="157" height="40" as="geometry" />
        </mxCell>
        <mxCell id="OEj-0Fk20FWF-JlBuVPm-17" value="设备水表能耗分析" style="ellipse;whiteSpace=wrap;html=1;" vertex="1" parent="OEj-0Fk20FWF-JlBuVPm-5">
          <mxGeometry x="58" y="440" width="157" height="40" as="geometry" />
        </mxCell>
        <mxCell id="OEj-0Fk20FWF-JlBuVPm-21" value="查询气表设备及分类关系列表" style="ellipse;whiteSpace=wrap;html=1;" vertex="1" parent="ILwhH2VZoe1VF6maPX9_-1">
          <mxGeometry x="1090" y="490" width="157" height="40" as="geometry" />
        </mxCell>
        <mxCell id="OEj-0Fk20FWF-JlBuVPm-22" value="气表能耗分析" style="ellipse;whiteSpace=wrap;html=1;" vertex="1" parent="ILwhH2VZoe1VF6maPX9_-1">
          <mxGeometry x="1090" y="560" width="157" height="40" as="geometry" />
        </mxCell>
        <mxCell id="OEj-0Fk20FWF-JlBuVPm-23" value="设备气表能耗分析" style="ellipse;whiteSpace=wrap;html=1;" vertex="1" parent="ILwhH2VZoe1VF6maPX9_-1">
          <mxGeometry x="1094" y="630" width="157" height="40" as="geometry" />
        </mxCell>
        <mxCell id="OEj-0Fk20FWF-JlBuVPm-24" value="" style="endArrow=none;html=1;rounded=0;exitX=0.5;exitY=0.5;exitDx=0;exitDy=0;exitPerimeter=0;entryX=0;entryY=0.5;entryDx=0;entryDy=0;" edge="1" parent="ILwhH2VZoe1VF6maPX9_-1" source="OEj-0Fk20FWF-JlBuVPm-3" target="OEj-0Fk20FWF-JlBuVPm-4">
          <mxGeometry width="50" height="50" relative="1" as="geometry">
            <mxPoint x="1210" y="260" as="sourcePoint" />
            <mxPoint x="1260" y="210" as="targetPoint" />
          </mxGeometry>
        </mxCell>
        <mxCell id="OEj-0Fk20FWF-JlBuVPm-25" value="" style="endArrow=none;html=1;rounded=0;entryX=0;entryY=0.5;entryDx=0;entryDy=0;" edge="1" parent="ILwhH2VZoe1VF6maPX9_-1" source="OEj-0Fk20FWF-JlBuVPm-3" target="OEj-0Fk20FWF-JlBuVPm-7">
          <mxGeometry width="50" height="50" relative="1" as="geometry">
            <mxPoint x="935" y="400" as="sourcePoint" />
            <mxPoint x="1090" y="100" as="targetPoint" />
          </mxGeometry>
        </mxCell>
        <mxCell id="OEj-0Fk20FWF-JlBuVPm-26" value="" style="endArrow=none;html=1;rounded=0;entryX=0;entryY=0.5;entryDx=0;entryDy=0;exitX=0.5;exitY=0.5;exitDx=0;exitDy=0;exitPerimeter=0;" edge="1" parent="ILwhH2VZoe1VF6maPX9_-1" source="OEj-0Fk20FWF-JlBuVPm-3" target="OEj-0Fk20FWF-JlBuVPm-8">
          <mxGeometry width="50" height="50" relative="1" as="geometry">
            <mxPoint x="950" y="377.74193548387075" as="sourcePoint" />
            <mxPoint x="1090" y="170" as="targetPoint" />
          </mxGeometry>
        </mxCell>
        <mxCell id="OEj-0Fk20FWF-JlBuVPm-27" value="" style="endArrow=none;html=1;rounded=0;entryX=0;entryY=0.5;entryDx=0;entryDy=0;exitX=0.5;exitY=0.5;exitDx=0;exitDy=0;exitPerimeter=0;" edge="1" parent="ILwhH2VZoe1VF6maPX9_-1" source="OEj-0Fk20FWF-JlBuVPm-3" target="OEj-0Fk20FWF-JlBuVPm-15">
          <mxGeometry width="50" height="50" relative="1" as="geometry">
            <mxPoint x="935" y="400" as="sourcePoint" />
            <mxPoint x="1094" y="240" as="targetPoint" />
          </mxGeometry>
        </mxCell>
        <mxCell id="OEj-0Fk20FWF-JlBuVPm-28" value="" style="endArrow=none;html=1;rounded=0;exitX=0.5;exitY=0.5;exitDx=0;exitDy=0;exitPerimeter=0;" edge="1" parent="ILwhH2VZoe1VF6maPX9_-1" source="OEj-0Fk20FWF-JlBuVPm-3" target="OEj-0Fk20FWF-JlBuVPm-16">
          <mxGeometry width="50" height="50" relative="1" as="geometry">
            <mxPoint x="935" y="400" as="sourcePoint" />
            <mxPoint x="1094" y="320" as="targetPoint" />
          </mxGeometry>
        </mxCell>
        <mxCell id="OEj-0Fk20FWF-JlBuVPm-29" value="" style="endArrow=none;html=1;rounded=0;" edge="1" parent="ILwhH2VZoe1VF6maPX9_-1" source="OEj-0Fk20FWF-JlBuVPm-3" target="OEj-0Fk20FWF-JlBuVPm-17">
          <mxGeometry width="50" height="50" relative="1" as="geometry">
            <mxPoint x="935" y="400" as="sourcePoint" />
            <mxPoint x="1095.0548702338285" y="393.26772699435287" as="targetPoint" />
          </mxGeometry>
        </mxCell>
        <mxCell id="OEj-0Fk20FWF-JlBuVPm-30" value="" style="endArrow=none;html=1;rounded=0;entryX=0;entryY=0.5;entryDx=0;entryDy=0;" edge="1" parent="ILwhH2VZoe1VF6maPX9_-1" source="OEj-0Fk20FWF-JlBuVPm-3" target="OEj-0Fk20FWF-JlBuVPm-21">
          <mxGeometry width="50" height="50" relative="1" as="geometry">
            <mxPoint x="950" y="403.7243660926906" as="sourcePoint" />
            <mxPoint x="1120.355158033665" y="446.0220310457257" as="targetPoint" />
          </mxGeometry>
        </mxCell>
        <mxCell id="OEj-0Fk20FWF-JlBuVPm-31" value="" style="endArrow=none;html=1;rounded=0;entryX=0;entryY=0.5;entryDx=0;entryDy=0;" edge="1" parent="ILwhH2VZoe1VF6maPX9_-1" source="OEj-0Fk20FWF-JlBuVPm-3" target="OEj-0Fk20FWF-JlBuVPm-22">
          <mxGeometry width="50" height="50" relative="1" as="geometry">
            <mxPoint x="950" y="410.909090909091" as="sourcePoint" />
            <mxPoint x="1100" y="520" as="targetPoint" />
          </mxGeometry>
        </mxCell>
        <mxCell id="OEj-0Fk20FWF-JlBuVPm-32" value="" style="endArrow=none;html=1;rounded=0;entryX=0;entryY=0.5;entryDx=0;entryDy=0;exitX=0.5;exitY=0.5;exitDx=0;exitDy=0;exitPerimeter=0;" edge="1" parent="ILwhH2VZoe1VF6maPX9_-1" source="OEj-0Fk20FWF-JlBuVPm-3" target="OEj-0Fk20FWF-JlBuVPm-23">
          <mxGeometry width="50" height="50" relative="1" as="geometry">
            <mxPoint x="950" y="417.2727272727275" as="sourcePoint" />
            <mxPoint x="1100" y="590" as="targetPoint" />
          </mxGeometry>
        </mxCell>
      </root>
    </mxGraphModel>
  </diagram>
  <diagram id="TZ_82mnPhGzB_fV9mMCk" name="计费模块">
    <mxGraphModel dx="1662" dy="839" grid="1" gridSize="10" guides="1" tooltips="1" connect="1" arrows="1" fold="1" page="1" pageScale="1" pageWidth="827" pageHeight="1169" math="0" shadow="0">
      <root>
        <mxCell id="Mx4i_zbZK1wTK2FPXlzo-0" />
        <mxCell id="Mx4i_zbZK1wTK2FPXlzo-1" parent="Mx4i_zbZK1wTK2FPXlzo-0" />
        <mxCell id="QtxmLCgCkZLn7nuXHBTK-0" value="计费管理" style="swimlane;startSize=30;" vertex="1" parent="Mx4i_zbZK1wTK2FPXlzo-1">
          <mxGeometry x="240" y="160" width="600" height="760" as="geometry" />
        </mxCell>
        <mxCell id="QtxmLCgCkZLn7nuXHBTK-1" value="新增计费分组" style="ellipse;whiteSpace=wrap;html=1;" vertex="1" parent="QtxmLCgCkZLn7nuXHBTK-0">
          <mxGeometry x="118.5" y="130" width="120" height="40" as="geometry" />
        </mxCell>
        <mxCell id="QtxmLCgCkZLn7nuXHBTK-2" value="修改计费分组" style="ellipse;whiteSpace=wrap;html=1;" vertex="1" parent="QtxmLCgCkZLn7nuXHBTK-0">
          <mxGeometry x="118.5" y="220" width="120" height="40" as="geometry" />
        </mxCell>
        <mxCell id="QtxmLCgCkZLn7nuXHBTK-3" value="查询计费分组" style="ellipse;whiteSpace=wrap;html=1;" vertex="1" parent="QtxmLCgCkZLn7nuXHBTK-0">
          <mxGeometry x="118.5" y="370" width="120" height="40" as="geometry" />
        </mxCell>
        <mxCell id="QtxmLCgCkZLn7nuXHBTK-4" value="删除计费分组" style="ellipse;whiteSpace=wrap;html=1;" vertex="1" parent="QtxmLCgCkZLn7nuXHBTK-0">
          <mxGeometry x="120" y="290" width="120" height="40" as="geometry" />
        </mxCell>
        <mxCell id="QtxmLCgCkZLn7nuXHBTK-5" value="查询计费分组列表" style="ellipse;whiteSpace=wrap;html=1;" vertex="1" parent="QtxmLCgCkZLn7nuXHBTK-0">
          <mxGeometry x="118.5" y="450" width="120" height="40" as="geometry" />
        </mxCell>
        <mxCell id="QtxmLCgCkZLn7nuXHBTK-6" value="计算计费分组时间段内单价费用" style="ellipse;whiteSpace=wrap;html=1;" vertex="1" parent="QtxmLCgCkZLn7nuXHBTK-0">
          <mxGeometry x="380" y="160" width="150" height="40" as="geometry" />
        </mxCell>
        <mxCell id="QtxmLCgCkZLn7nuXHBTK-7" value="" style="endArrow=classic;html=1;rounded=0;exitX=1;exitY=0.5;exitDx=0;exitDy=0;entryX=0;entryY=0.5;entryDx=0;entryDy=0;" edge="1" parent="QtxmLCgCkZLn7nuXHBTK-0" source="QtxmLCgCkZLn7nuXHBTK-1" target="QtxmLCgCkZLn7nuXHBTK-6">
          <mxGeometry width="50" height="50" relative="1" as="geometry">
            <mxPoint x="270" y="190" as="sourcePoint" />
            <mxPoint x="320" y="140" as="targetPoint" />
          </mxGeometry>
        </mxCell>
        <mxCell id="QtxmLCgCkZLn7nuXHBTK-8" value="&amp;lt;&amp;lt;include&amp;gt;&amp;gt;" style="edgeLabel;html=1;align=center;verticalAlign=middle;resizable=0;points=[];" vertex="1" connectable="0" parent="QtxmLCgCkZLn7nuXHBTK-7">
          <mxGeometry x="-0.2854" relative="1" as="geometry">
            <mxPoint as="offset" />
          </mxGeometry>
        </mxCell>
        <mxCell id="QtxmLCgCkZLn7nuXHBTK-9" value="" style="endArrow=classic;html=1;rounded=0;exitX=1;exitY=0.5;exitDx=0;exitDy=0;entryX=0;entryY=1;entryDx=0;entryDy=0;" edge="1" parent="QtxmLCgCkZLn7nuXHBTK-0" source="QtxmLCgCkZLn7nuXHBTK-2" target="QtxmLCgCkZLn7nuXHBTK-6">
          <mxGeometry width="50" height="50" relative="1" as="geometry">
            <mxPoint x="260" y="260" as="sourcePoint" />
            <mxPoint x="401.5" y="290" as="targetPoint" />
          </mxGeometry>
        </mxCell>
        <mxCell id="QtxmLCgCkZLn7nuXHBTK-10" value="&amp;lt;&amp;lt;include&amp;gt;&amp;gt;" style="edgeLabel;html=1;align=center;verticalAlign=middle;resizable=0;points=[];" vertex="1" connectable="0" parent="QtxmLCgCkZLn7nuXHBTK-9">
          <mxGeometry x="-0.2854" relative="1" as="geometry">
            <mxPoint as="offset" />
          </mxGeometry>
        </mxCell>
        <mxCell id="QtxmLCgCkZLn7nuXHBTK-11" value="基础单价管理" style="ellipse;whiteSpace=wrap;html=1;" vertex="1" parent="QtxmLCgCkZLn7nuXHBTK-0">
          <mxGeometry x="100" y="580" width="120" height="60" as="geometry" />
        </mxCell>
        <mxCell id="QtxmLCgCkZLn7nuXHBTK-12" value="查询基础单价" style="ellipse;whiteSpace=wrap;html=1;" vertex="1" parent="QtxmLCgCkZLn7nuXHBTK-0">
          <mxGeometry x="370" y="610" width="120" height="40" as="geometry" />
        </mxCell>
        <mxCell id="QtxmLCgCkZLn7nuXHBTK-13" value="修改基础单价" style="ellipse;whiteSpace=wrap;html=1;" vertex="1" parent="QtxmLCgCkZLn7nuXHBTK-0">
          <mxGeometry x="310" y="530" width="120" height="40" as="geometry" />
        </mxCell>
        <mxCell id="QtxmLCgCkZLn7nuXHBTK-14" value="查询历史修改基础单价列表" style="ellipse;whiteSpace=wrap;html=1;" vertex="1" parent="QtxmLCgCkZLn7nuXHBTK-0">
          <mxGeometry x="310" y="670" width="120" height="40" as="geometry" />
        </mxCell>
        <mxCell id="QtxmLCgCkZLn7nuXHBTK-15" value="" style="endArrow=classic;html=1;rounded=0;exitX=1;exitY=0.5;exitDx=0;exitDy=0;entryX=0;entryY=0.5;entryDx=0;entryDy=0;" edge="1" parent="QtxmLCgCkZLn7nuXHBTK-0" source="QtxmLCgCkZLn7nuXHBTK-11" target="QtxmLCgCkZLn7nuXHBTK-13">
          <mxGeometry width="50" height="50" relative="1" as="geometry">
            <mxPoint x="380" y="540" as="sourcePoint" />
            <mxPoint x="421.96699141100885" y="214.1421356237306" as="targetPoint" />
          </mxGeometry>
        </mxCell>
        <mxCell id="QtxmLCgCkZLn7nuXHBTK-16" value="&amp;lt;&amp;lt;include&amp;gt;&amp;gt;" style="edgeLabel;html=1;align=center;verticalAlign=middle;resizable=0;points=[];" vertex="1" connectable="0" parent="QtxmLCgCkZLn7nuXHBTK-15">
          <mxGeometry x="-0.2854" relative="1" as="geometry">
            <mxPoint as="offset" />
          </mxGeometry>
        </mxCell>
        <mxCell id="QtxmLCgCkZLn7nuXHBTK-17" value="" style="endArrow=classic;html=1;rounded=0;exitX=1;exitY=0.5;exitDx=0;exitDy=0;entryX=0;entryY=0.5;entryDx=0;entryDy=0;" edge="1" parent="QtxmLCgCkZLn7nuXHBTK-0" source="QtxmLCgCkZLn7nuXHBTK-11" target="QtxmLCgCkZLn7nuXHBTK-12">
          <mxGeometry width="50" height="50" relative="1" as="geometry">
            <mxPoint x="248.5" y="610" as="sourcePoint" />
            <mxPoint x="320" y="560" as="targetPoint" />
          </mxGeometry>
        </mxCell>
        <mxCell id="QtxmLCgCkZLn7nuXHBTK-18" value="&amp;lt;&amp;lt;include&amp;gt;&amp;gt;" style="edgeLabel;html=1;align=center;verticalAlign=middle;resizable=0;points=[];" vertex="1" connectable="0" parent="QtxmLCgCkZLn7nuXHBTK-17">
          <mxGeometry x="-0.2854" relative="1" as="geometry">
            <mxPoint as="offset" />
          </mxGeometry>
        </mxCell>
        <mxCell id="QtxmLCgCkZLn7nuXHBTK-19" value="" style="endArrow=classic;html=1;rounded=0;exitX=0.5;exitY=0;exitDx=0;exitDy=0;entryX=0.5;entryY=1;entryDx=0;entryDy=0;" edge="1" parent="QtxmLCgCkZLn7nuXHBTK-0" source="QtxmLCgCkZLn7nuXHBTK-13" target="QtxmLCgCkZLn7nuXHBTK-6">
          <mxGeometry width="50" height="50" relative="1" as="geometry">
            <mxPoint x="248.5" y="250" as="sourcePoint" />
            <mxPoint x="411.96699141100885" y="204.1421356237306" as="targetPoint" />
          </mxGeometry>
        </mxCell>
        <mxCell id="QtxmLCgCkZLn7nuXHBTK-20" value="&amp;lt;&amp;lt;include&amp;gt;&amp;gt;" style="edgeLabel;html=1;align=center;verticalAlign=middle;resizable=0;points=[];" vertex="1" connectable="0" parent="QtxmLCgCkZLn7nuXHBTK-19">
          <mxGeometry x="-0.2854" relative="1" as="geometry">
            <mxPoint as="offset" />
          </mxGeometry>
        </mxCell>
        <mxCell id="QtxmLCgCkZLn7nuXHBTK-21" value="" style="endArrow=classic;html=1;rounded=0;entryX=0;entryY=0.5;entryDx=0;entryDy=0;exitX=0.975;exitY=0.667;exitDx=0;exitDy=0;exitPerimeter=0;" edge="1" parent="QtxmLCgCkZLn7nuXHBTK-0" source="QtxmLCgCkZLn7nuXHBTK-11" target="QtxmLCgCkZLn7nuXHBTK-14">
          <mxGeometry width="50" height="50" relative="1" as="geometry">
            <mxPoint x="240" y="600" as="sourcePoint" />
            <mxPoint x="320" y="630" as="targetPoint" />
          </mxGeometry>
        </mxCell>
        <mxCell id="QtxmLCgCkZLn7nuXHBTK-22" value="&amp;lt;&amp;lt;include&amp;gt;&amp;gt;" style="edgeLabel;html=1;align=center;verticalAlign=middle;resizable=0;points=[];" vertex="1" connectable="0" parent="QtxmLCgCkZLn7nuXHBTK-21">
          <mxGeometry x="-0.2854" relative="1" as="geometry">
            <mxPoint as="offset" />
          </mxGeometry>
        </mxCell>
        <mxCell id="QtxmLCgCkZLn7nuXHBTK-23" value="管理员" style="shape=umlActor;verticalLabelPosition=bottom;verticalAlign=top;html=1;outlineConnect=0;" vertex="1" parent="Mx4i_zbZK1wTK2FPXlzo-1">
          <mxGeometry x="160" y="490" width="30" height="60" as="geometry" />
        </mxCell>
        <mxCell id="QtxmLCgCkZLn7nuXHBTK-24" value="" style="endArrow=none;html=1;rounded=0;" edge="1" parent="Mx4i_zbZK1wTK2FPXlzo-1" source="QtxmLCgCkZLn7nuXHBTK-23" target="QtxmLCgCkZLn7nuXHBTK-1">
          <mxGeometry width="50" height="50" relative="1" as="geometry">
            <mxPoint x="510" y="560" as="sourcePoint" />
            <mxPoint x="560" y="510" as="targetPoint" />
          </mxGeometry>
        </mxCell>
        <mxCell id="QtxmLCgCkZLn7nuXHBTK-25" value="" style="endArrow=none;html=1;rounded=0;exitX=1;exitY=0.3333333333333333;exitDx=0;exitDy=0;exitPerimeter=0;entryX=0;entryY=0.5;entryDx=0;entryDy=0;" edge="1" parent="Mx4i_zbZK1wTK2FPXlzo-1" source="QtxmLCgCkZLn7nuXHBTK-23" target="QtxmLCgCkZLn7nuXHBTK-2">
          <mxGeometry width="50" height="50" relative="1" as="geometry">
            <mxPoint x="200" y="517.0662450464265" as="sourcePoint" />
            <mxPoint x="406.907675906421" y="338.66003316728984" as="targetPoint" />
          </mxGeometry>
        </mxCell>
        <mxCell id="QtxmLCgCkZLn7nuXHBTK-26" value="" style="endArrow=none;html=1;rounded=0;exitX=1;exitY=0.3333333333333333;exitDx=0;exitDy=0;exitPerimeter=0;entryX=0;entryY=0.5;entryDx=0;entryDy=0;" edge="1" parent="Mx4i_zbZK1wTK2FPXlzo-1" source="QtxmLCgCkZLn7nuXHBTK-23" target="QtxmLCgCkZLn7nuXHBTK-4">
          <mxGeometry width="50" height="50" relative="1" as="geometry">
            <mxPoint x="200" y="520" as="sourcePoint" />
            <mxPoint x="368.5" y="410" as="targetPoint" />
          </mxGeometry>
        </mxCell>
        <mxCell id="QtxmLCgCkZLn7nuXHBTK-27" value="" style="endArrow=none;html=1;rounded=0;entryX=0;entryY=0.5;entryDx=0;entryDy=0;" edge="1" parent="Mx4i_zbZK1wTK2FPXlzo-1" target="QtxmLCgCkZLn7nuXHBTK-3">
          <mxGeometry width="50" height="50" relative="1" as="geometry">
            <mxPoint x="190" y="510" as="sourcePoint" />
            <mxPoint x="350" y="550" as="targetPoint" />
          </mxGeometry>
        </mxCell>
        <mxCell id="QtxmLCgCkZLn7nuXHBTK-28" value="" style="endArrow=none;html=1;rounded=0;entryX=0;entryY=0.5;entryDx=0;entryDy=0;exitX=1;exitY=0.3333333333333333;exitDx=0;exitDy=0;exitPerimeter=0;" edge="1" parent="Mx4i_zbZK1wTK2FPXlzo-1" source="QtxmLCgCkZLn7nuXHBTK-23" target="QtxmLCgCkZLn7nuXHBTK-5">
          <mxGeometry width="50" height="50" relative="1" as="geometry">
            <mxPoint x="200" y="520" as="sourcePoint" />
            <mxPoint x="368.5" y="560" as="targetPoint" />
          </mxGeometry>
        </mxCell>
        <mxCell id="QtxmLCgCkZLn7nuXHBTK-29" value="" style="endArrow=none;html=1;rounded=0;entryX=0;entryY=0.5;entryDx=0;entryDy=0;" edge="1" parent="Mx4i_zbZK1wTK2FPXlzo-1" target="QtxmLCgCkZLn7nuXHBTK-11">
          <mxGeometry width="50" height="50" relative="1" as="geometry">
            <mxPoint x="190" y="510" as="sourcePoint" />
            <mxPoint x="368.5" y="640" as="targetPoint" />
          </mxGeometry>
        </mxCell>
      </root>
    </mxGraphModel>
  </diagram>
  <diagram id="jEWYIW3MEWGD0YhtFRUm" name="统计月配置">
    <mxGraphModel dx="1662" dy="839" grid="1" gridSize="10" guides="1" tooltips="1" connect="1" arrows="1" fold="1" page="1" pageScale="1" pageWidth="827" pageHeight="1169" math="0" shadow="0">
      <root>
        <mxCell id="TVtGNNMfjrere-ANvsMh-0" />
        <mxCell id="TVtGNNMfjrere-ANvsMh-1" parent="TVtGNNMfjrere-ANvsMh-0" />
        <mxCell id="TVtGNNMfjrere-ANvsMh-2" value="统计月管理" style="swimlane;" vertex="1" parent="TVtGNNMfjrere-ANvsMh-1">
          <mxGeometry x="310" y="410" width="430" height="280" as="geometry" />
        </mxCell>
        <mxCell id="TVtGNNMfjrere-ANvsMh-3" value="查询月统计配置规则" style="ellipse;whiteSpace=wrap;html=1;" vertex="1" parent="TVtGNNMfjrere-ANvsMh-2">
          <mxGeometry x="60" y="70" width="130" height="50" as="geometry" />
        </mxCell>
        <mxCell id="TVtGNNMfjrere-ANvsMh-4" value="更新月统计配置规则" style="ellipse;whiteSpace=wrap;html=1;" vertex="1" parent="TVtGNNMfjrere-ANvsMh-2">
          <mxGeometry x="60" y="190" width="120" height="50" as="geometry" />
        </mxCell>
        <mxCell id="TVtGNNMfjrere-ANvsMh-5" value="管理员" style="shape=umlActor;verticalLabelPosition=bottom;verticalAlign=top;html=1;outlineConnect=0;" vertex="1" parent="TVtGNNMfjrere-ANvsMh-1">
          <mxGeometry x="240" y="547" width="30" height="60" as="geometry" />
        </mxCell>
        <mxCell id="TVtGNNMfjrere-ANvsMh-6" value="" style="endArrow=none;html=1;rounded=0;exitX=0.5;exitY=0.5;exitDx=0;exitDy=0;exitPerimeter=0;entryX=0;entryY=0.5;entryDx=0;entryDy=0;" edge="1" parent="TVtGNNMfjrere-ANvsMh-1" source="TVtGNNMfjrere-ANvsMh-5" target="TVtGNNMfjrere-ANvsMh-3">
          <mxGeometry width="50" height="50" relative="1" as="geometry">
            <mxPoint x="580" y="700" as="sourcePoint" />
            <mxPoint x="360" y="510" as="targetPoint" />
          </mxGeometry>
        </mxCell>
        <mxCell id="TVtGNNMfjrere-ANvsMh-7" value="" style="endArrow=none;html=1;rounded=0;exitX=0.5;exitY=0.5;exitDx=0;exitDy=0;exitPerimeter=0;entryX=0.033;entryY=0.64;entryDx=0;entryDy=0;entryPerimeter=0;" edge="1" parent="TVtGNNMfjrere-ANvsMh-1" source="TVtGNNMfjrere-ANvsMh-5" target="TVtGNNMfjrere-ANvsMh-4">
          <mxGeometry width="50" height="50" relative="1" as="geometry">
            <mxPoint x="265" y="587" as="sourcePoint" />
            <mxPoint x="380" y="515" as="targetPoint" />
          </mxGeometry>
        </mxCell>
      </root>
    </mxGraphModel>
  </diagram>
</mxfile>
